<svg width="47" height="67" viewBox="0 0 47 67" fill="none" xmlns="http://www.w3.org/2000/svg">
<path d="M35.1667 18.333H11.8333C9.99238 18.333 8.5 19.8254 8.5 21.6663V33.333C8.5 35.174 9.99238 36.6663 11.8333 36.6663H35.1667C37.0076 36.6663 38.5 35.174 38.5 33.333V21.6663C38.5 19.8254 37.0076 18.333 35.1667 18.333Z" stroke="#8F8F8F" stroke-width="3.1358" stroke-linecap="round" stroke-linejoin="round"/>
<path d="M15.166 18.333V11.6663C15.166 9.4562 16.044 7.33659 17.6068 5.77378C19.1696 4.21098 21.2892 3.33301 23.4993 3.33301C25.7095 3.33301 27.8291 4.21098 29.3919 5.77378C30.9547 7.33659 31.8327 9.4562 31.8327 11.6663V18.333" stroke="#8F8F8F" stroke-width="3.1358" stroke-linecap="round" stroke-linejoin="round"/>
<path d="M1.20281 63V52.92H2.23181V62.013H7.01981V63H1.20281ZM11.4402 63.21C10.6889 63.21 10.0472 63.0397 9.5152 62.699C8.9832 62.3583 8.57487 61.887 8.2902 61.285C8.00554 60.683 7.8632 59.9923 7.8632 59.213C7.8632 58.4197 8.00787 57.7243 8.2972 57.127C8.58654 56.5297 8.9972 56.0653 9.5292 55.734C10.0659 55.398 10.7029 55.23 11.4402 55.23C12.1962 55.23 12.8402 55.4003 13.3722 55.741C13.9089 56.077 14.3172 56.546 14.5972 57.148C14.8819 57.7453 15.0242 58.4337 15.0242 59.213C15.0242 60.0063 14.8819 60.704 14.5972 61.306C14.3125 61.9033 13.9019 62.37 13.3652 62.706C12.8285 63.042 12.1869 63.21 11.4402 63.21ZM11.4402 62.223C12.2802 62.223 12.9055 61.9453 13.3162 61.39C13.7269 60.83 13.9322 60.1043 13.9322 59.213C13.9322 58.2983 13.7245 57.5703 13.3092 57.029C12.8985 56.4877 12.2755 56.217 11.4402 56.217C10.8755 56.217 10.4089 56.3453 10.0402 56.602C9.6762 56.854 9.4032 57.2063 9.2212 57.659C9.04387 58.107 8.9552 58.625 8.9552 59.213C8.9552 60.123 9.1652 60.8533 9.5852 61.404C10.0052 61.95 10.6235 62.223 11.4402 62.223ZM19.7744 63.21C19.0137 63.21 18.3697 63.0397 17.8424 62.699C17.315 62.3583 16.9137 61.8893 16.6384 61.292C16.3677 60.69 16.2277 59.9993 16.2184 59.22C16.2277 58.4267 16.3724 57.7313 16.6524 57.134C16.9324 56.532 17.336 56.0653 17.8634 55.734C18.3907 55.398 19.03 55.23 19.7814 55.23C20.5467 55.23 21.2117 55.4167 21.7764 55.79C22.3457 56.1633 22.7354 56.6743 22.9454 57.323L21.9374 57.645C21.76 57.1923 21.4777 56.8423 21.0904 56.595C20.7077 56.343 20.269 56.217 19.7744 56.217C19.219 56.217 18.7594 56.3453 18.3954 56.602C18.0314 56.854 17.7607 57.2063 17.5834 57.659C17.406 58.1117 17.315 58.632 17.3104 59.22C17.3197 60.1253 17.5297 60.8533 17.9404 61.404C18.351 61.95 18.9624 62.223 19.7744 62.223C20.2877 62.223 20.724 62.1063 21.0834 61.873C21.4474 61.635 21.7227 61.2897 21.9094 60.837L22.9454 61.145C22.6654 61.817 22.2547 62.3303 21.7134 62.685C21.172 63.035 20.5257 63.21 19.7744 63.21ZM24.4533 63L24.4603 52.92H25.4963V59.08L28.8703 55.44H30.2423L26.7003 59.22L30.7043 63H29.2063L25.4963 59.36V63H24.4533ZM34.5379 63.21C33.8006 63.21 33.1612 63.0467 32.6199 62.72C32.0832 62.3933 31.6656 61.9337 31.3669 61.341C31.0682 60.7483 30.9189 60.053 30.9189 59.255C30.9189 58.429 31.0659 57.715 31.3599 57.113C31.6539 56.511 32.0669 56.0467 32.5989 55.72C33.1356 55.3933 33.7679 55.23 34.4959 55.23C35.2426 55.23 35.8796 55.4027 36.4069 55.748C36.9342 56.0887 37.3332 56.5787 37.6039 57.218C37.8746 57.8573 37.9982 58.6203 37.9749 59.507H36.9249V59.143C36.9062 58.163 36.6939 57.4233 36.2879 56.924C35.8866 56.4247 35.2986 56.175 34.5239 56.175C33.7119 56.175 33.0889 56.4387 32.6549 56.966C32.2256 57.4933 32.0109 58.2447 32.0109 59.22C32.0109 60.172 32.2256 60.9117 32.6549 61.439C33.0889 61.9617 33.7026 62.223 34.4959 62.223C35.0372 62.223 35.5086 62.0993 35.9099 61.852C36.3159 61.6 36.6356 61.2383 36.8689 60.767L37.8279 61.138C37.5292 61.796 37.0882 62.307 36.5049 62.671C35.9262 63.0303 35.2706 63.21 34.5379 63.21ZM31.6469 59.507V58.646H37.4219V59.507H31.6469ZM42.5314 63.21C41.8267 63.21 41.2247 63.035 40.7254 62.685C40.226 62.3303 39.8434 61.852 39.5774 61.25C39.3114 60.648 39.1784 59.969 39.1784 59.213C39.1784 58.4617 39.309 57.785 39.5704 57.183C39.8364 56.581 40.2167 56.105 40.7114 55.755C41.206 55.405 41.7987 55.23 42.4894 55.23C43.1987 55.23 43.796 55.4027 44.2814 55.748C44.7667 56.0933 45.133 56.567 45.3804 57.169C45.6324 57.7663 45.7584 58.4477 45.7584 59.213C45.7584 59.9643 45.6347 60.6433 45.3874 61.25C45.14 61.852 44.776 62.3303 44.2954 62.685C43.8147 63.035 43.2267 63.21 42.5314 63.21ZM42.6364 62.251C43.173 62.251 43.6164 62.1203 43.9664 61.859C44.3164 61.5977 44.5777 61.2383 44.7504 60.781C44.923 60.319 45.0094 59.7963 45.0094 59.213C45.0094 58.6203 44.923 58.0977 44.7504 57.645C44.5777 57.1877 44.3164 56.8307 43.9664 56.574C43.621 56.3173 43.1847 56.189 42.6574 56.189C42.116 56.189 41.668 56.322 41.3134 56.588C40.9587 56.854 40.695 57.2157 40.5224 57.673C40.3544 58.1303 40.2704 58.6437 40.2704 59.213C40.2704 59.787 40.3567 60.305 40.5294 60.767C40.7067 61.2243 40.9704 61.586 41.3204 61.852C41.6704 62.118 42.109 62.251 42.6364 62.251ZM45.0094 63V57.309H44.8974V52.92H45.9334V63H45.0094Z" fill="#8F8F8F"/>
</svg>
