<svg width="1366" height="768" viewBox="0 0 1366 768" fill="none" xmlns="http://www.w3.org/2000/svg">
<g clip-path="url(#clip0_679_4143)">
<rect width="1366" height="768" fill="#0A0A0A"/>
<g opacity="0.25">
<path d="M0 842.251C61.6099 832.817 109.128 787.629 168.525 772.023C201.018 763.521 234.677 772.838 264.841 785.183C290.813 795.782 315.154 810.107 342.29 817.793C371.29 826.062 400.523 824.665 430.338 823.85C531.429 820.938 632.404 811.737 733.612 810.573C850.776 809.175 967.241 791.705 1084.29 792.753C1140.19 793.219 1195.51 801.255 1251.18 804.4C1330.73 808.826 1411.09 810.456 1490.75 811.854" stroke="url(#paint0_linear_679_4143)" stroke-width="1.16465" stroke-miterlimit="10"/>
<path d="M0 837.01C62.891 825.131 110.991 778.079 171.553 760.376C204.163 750.826 237.472 761.541 267.287 775.167C293.026 786.93 316.901 802.653 344.037 811.388C372.921 820.705 402.037 819.657 432.085 818.958C533.06 816.512 633.685 806.846 734.777 806.03C851.242 805.099 967.008 786.231 1083.36 787.396C1138.68 787.978 1193.53 795.898 1248.74 799.043C1328.98 803.701 1410.51 806.729 1490.98 807.661" stroke="url(#paint1_linear_679_4143)" stroke-width="1.16465" stroke-miterlimit="10"/>
<path d="M0 831.886C63.0075 820.006 111.34 773.187 172.019 755.485C204.629 745.935 237.821 756.649 267.636 770.276C293.259 781.922 317.25 797.412 344.154 806.147C372.921 815.464 402.153 814.649 432.085 814.067C533.759 812.203 635.083 802.886 736.757 802.42C852.406 801.954 967.474 780.525 1083.12 782.388C1138.33 783.203 1192.95 791.356 1248.04 794.85C1328.51 799.974 1410.27 805.099 1490.87 806.031" stroke="url(#paint2_linear_679_4143)" stroke-width="1.16465" stroke-miterlimit="10"/>
<path d="M0 826.878C63.0075 814.998 111.457 768.529 172.135 750.826C204.745 741.276 237.821 751.991 267.636 765.501C293.259 777.031 317.25 792.171 344.154 800.906C372.921 810.107 402.153 809.408 432.201 808.942C534.574 807.428 636.597 798.227 738.97 797.994C853.92 797.762 968.173 774.934 1083.01 777.264C1219.04 780.059 1354.6 802.187 1490.75 803.818" stroke="url(#paint3_linear_679_4143)" stroke-width="1.16465" stroke-miterlimit="10"/>
<path d="M0 821.986C62.891 810.107 111.34 763.987 172.019 746.4C204.629 736.967 237.588 747.565 267.52 760.842C293.142 772.139 317.25 787.163 344.037 795.665C372.921 804.866 402.153 804.167 432.085 803.818C535.156 802.42 637.878 793.103 741.066 792.986C855.202 792.87 968.871 769.461 1082.89 772.256C1218.92 775.517 1354.6 799.741 1490.75 801.488" stroke="url(#paint4_linear_679_4143)" stroke-width="1.16465" stroke-miterlimit="10"/>
<path d="M0 817.328C62.7746 805.565 111.107 759.794 171.553 742.324C204.046 732.891 237.122 743.489 267.054 756.533C292.676 767.714 316.901 782.388 343.804 790.774C372.688 799.858 402.037 799.276 432.085 798.81C535.971 797.412 639.392 787.629 743.279 787.629C856.599 787.513 969.687 764.336 1082.89 767.481C1137.98 768.995 1192.6 776.565 1247.57 780.525C1283.09 782.97 1318.73 783.087 1354.14 786.814C1399.67 791.589 1444.86 798.46 1490.87 799.159" stroke="url(#paint5_linear_679_4143)" stroke-width="1.16465" stroke-miterlimit="10"/>
<path d="M0 812.786C62.4252 801.139 110.642 755.718 170.854 738.364C203.348 729.047 236.424 739.529 266.355 752.224C292.094 763.171 316.435 777.497 343.338 785.766C372.338 794.617 401.687 794.151 431.852 793.685C536.437 792.171 640.673 781.806 745.259 781.573C857.88 781.34 970.385 759.212 1082.89 762.589C1137.98 764.22 1192.83 771.44 1247.8 775.284C1283.33 777.73 1318.85 777.963 1354.25 782.272C1399.79 787.862 1444.86 795.665 1490.75 796.364" stroke="url(#paint6_linear_679_4143)" stroke-width="1.16465" stroke-miterlimit="10"/>
<path d="M0 808.476C62.0758 796.946 109.943 751.991 169.806 734.87C202.183 725.553 235.376 736.035 265.423 748.38C291.279 759.095 315.853 773.071 342.756 781.107C371.872 789.842 401.338 789.376 431.502 788.794C536.903 787.047 641.721 775.75 747.122 775.4C858.928 775.051 970.968 754.669 1082.66 758.163C1137.86 759.91 1192.95 766.665 1248.04 770.392C1283.56 772.838 1319.08 773.187 1354.37 778.079C1399.79 784.368 1444.63 793.103 1490.63 793.918" stroke="url(#paint7_linear_679_4143)" stroke-width="1.16465" stroke-miterlimit="10"/>
<path d="M0 804.284C61.6099 792.986 109.244 748.38 168.641 731.493C201.018 722.292 234.211 732.541 264.492 744.654C290.463 755.019 315.27 768.762 342.29 776.565C371.639 785.067 401.105 784.601 431.386 784.019C537.485 781.806 643.119 769.577 749.335 768.995C860.443 768.296 972.016 750.36 1083.01 753.971C1138.44 755.834 1193.65 761.89 1248.97 765.501C1284.49 767.83 1319.9 768.296 1355.07 773.77C1400.37 780.874 1444.86 790.541 1490.87 791.356" stroke="url(#paint8_linear_679_4143)" stroke-width="1.16465" stroke-miterlimit="10"/>
<path d="M0 800.207C61.1441 789.143 108.312 745.003 167.244 728.348C199.504 719.148 232.93 729.397 263.211 741.043C289.415 751.176 314.339 764.453 341.475 772.023C370.941 780.292 400.523 779.826 430.92 779.127C537.835 776.448 644.051 763.055 750.966 762.007C861.374 760.959 972.598 745.935 1082.89 749.662C1138.56 751.525 1194 756.999 1249.55 760.376C1285.07 762.473 1320.48 763.055 1355.53 769.228C1400.72 777.031 1444.75 787.746 1490.75 788.561" stroke="url(#paint9_linear_679_4143)" stroke-width="1.16465" stroke-miterlimit="10"/>
<path d="M0 796.364C60.5617 785.416 107.148 741.858 165.613 725.437C197.757 716.353 231.416 726.369 261.813 737.666C288.134 747.449 313.407 760.376 340.66 767.714C370.358 775.75 399.94 775.284 430.454 774.352C538.068 771.091 644.983 756.3 752.713 754.902C862.422 753.505 973.297 741.858 1082.89 745.469C1138.79 747.332 1194.58 751.991 1250.48 755.135C1286.01 757.115 1321.29 757.698 1356.35 764.453C1401.31 773.071 1444.86 784.601 1490.87 785.649" stroke="url(#paint10_linear_679_4143)" stroke-width="1.16465" stroke-miterlimit="10"/>
<path d="M0 792.637C59.8629 782.039 105.983 738.83 163.75 722.758C195.894 713.79 229.669 723.69 260.183 734.521C286.737 743.955 312.242 756.533 339.612 763.637C369.427 771.44 399.125 770.858 429.755 769.81C538.068 765.85 645.565 749.662 754.11 747.798C863.238 745.935 973.646 738.132 1082.77 741.742C1139.03 743.605 1195.16 747.449 1251.3 750.244C1286.82 751.991 1321.99 752.573 1356.93 760.027C1401.65 769.461 1444.75 781.922 1490.63 782.97" stroke="url(#paint11_linear_679_4143)" stroke-width="1.16465" stroke-miterlimit="10"/>
<path d="M0 789.027C59.1642 778.661 104.702 736.035 161.77 720.196C193.798 711.345 227.922 721.011 258.436 731.493C285.222 740.694 311.078 752.69 338.563 759.561C368.611 767.015 398.426 766.432 429.173 765.151C538.184 760.493 646.264 742.674 755.508 740.344C864.169 738.015 974.229 734.521 1082.77 737.899C1139.38 739.762 1195.86 742.674 1252.46 745.003C1287.99 746.517 1323.04 747.099 1357.86 755.135C1402.24 765.384 1444.75 778.778 1490.75 779.826" stroke="url(#paint12_linear_679_4143)" stroke-width="1.16465" stroke-miterlimit="10"/>
<path d="M0 785.533C58.4654 775.4 103.304 733.356 159.557 717.867C191.585 709.015 225.825 718.565 256.456 728.581C283.476 737.433 309.68 749.079 337.399 755.601C367.68 762.822 397.611 762.123 428.474 760.609C538.184 755.135 646.729 735.686 756.672 732.774C864.868 729.979 974.578 730.911 1082.77 734.172C1139.73 735.919 1196.68 737.899 1253.63 739.879C1289.27 741.16 1324.09 741.742 1358.91 750.36C1403.05 761.308 1444.86 775.633 1490.75 776.798" stroke="url(#paint13_linear_679_4143)" stroke-width="1.16465" stroke-miterlimit="10"/>
<path d="M0 782.272C57.6501 772.489 101.79 730.911 157.344 715.77C189.255 707.035 223.845 716.469 254.592 725.903C281.845 734.405 308.399 745.585 336.351 751.874C366.864 758.746 396.796 758.047 427.892 756.3C538.301 750.011 647.312 729.28 757.837 725.32C865.567 721.477 975.16 727.65 1082.89 730.794C1140.19 732.425 1197.61 733.473 1255.03 734.987C1290.66 735.919 1325.37 736.501 1360.08 745.818C1403.87 757.581 1444.98 772.838 1490.87 774.003" stroke="url(#paint14_linear_679_4143)" stroke-width="1.16465" stroke-miterlimit="10"/>
<path d="M0 779.127C56.8349 769.694 100.16 728.581 154.898 713.79C186.693 705.172 221.633 714.373 252.496 723.457C280.098 731.61 306.885 742.324 335.069 748.38C365.816 755.019 395.864 754.204 427.077 752.107C538.068 744.887 647.428 722.758 758.652 717.983C866.033 713.325 975.51 724.738 1082.89 727.65C1140.66 729.164 1198.54 729.047 1256.31 730.095C1292.06 730.794 1326.42 731.144 1361.13 741.16C1404.57 753.738 1444.98 769.81 1490.75 771.091" stroke="url(#paint15_linear_679_4143)" stroke-width="1.16465" stroke-miterlimit="10"/>
<path d="M0 776.099C56.0196 766.898 98.5293 726.485 152.453 712.043C184.247 703.541 219.42 712.509 250.399 721.128C311.311 738.015 362.206 752.69 426.378 748.031C537.951 739.995 647.661 716.236 759.468 710.646C866.382 705.055 975.743 721.71 1083.01 724.272C1141.24 725.67 1199.59 724.505 1257.82 725.087C1293.58 725.437 1327.82 725.67 1362.41 736.501C1405.5 749.894 1444.98 766.898 1490.75 768.179" stroke="url(#paint16_linear_679_4143)" stroke-width="1.16465" stroke-miterlimit="10"/>
<path d="M0 773.187C55.0879 764.336 96.8988 724.505 149.89 710.296C181.685 701.795 217.091 710.646 248.187 718.682C309.447 734.754 361.274 748.963 425.446 743.838C537.485 734.871 647.545 709.598 759.817 703.192C812.459 700.164 866.615 707.734 919.257 711.461C973.763 715.304 1028.38 720.08 1083.01 721.361C1141.71 722.642 1200.52 720.312 1259.33 720.312C1295.21 720.312 1329.21 720.429 1363.69 731.959C1406.31 746.168 1445.1 763.987 1490.75 765.384" stroke="url(#paint17_linear_679_4143)" stroke-width="1.16465" stroke-miterlimit="10"/>
<path d="M0 770.392C54.1562 761.89 95.1518 722.525 147.328 708.782C179.007 700.397 214.761 708.899 245.974 716.586C307.584 731.726 360.459 745.469 424.631 739.878C537.136 730.095 647.312 703.192 760.05 695.971C812.575 692.594 867.081 701.678 919.374 706.22C973.763 710.995 1028.5 717.284 1083.01 718.332C1142.29 719.497 1201.57 716.003 1260.73 715.421C1296.72 715.071 1330.38 714.955 1364.85 727.184C1407.13 742.208 1444.98 760.842 1490.63 762.24" stroke="url(#paint18_linear_679_4143)" stroke-width="1.16465" stroke-miterlimit="10"/>
<path d="M0 767.83C53.2244 759.678 93.4048 720.895 144.649 707.501C176.328 699.232 212.432 707.501 243.645 714.722C305.604 729.164 359.527 742.324 423.699 736.268C536.554 725.553 646.846 697.252 760.05 689.216C812.459 685.489 867.314 696.088 919.374 701.445C973.646 707.035 1028.5 714.839 1083.12 715.77C1142.87 716.702 1202.73 712.16 1262.48 710.995C1298.47 710.296 1332.01 709.947 1366.37 722.991C1408.18 738.83 1445.1 758.28 1490.87 759.678" stroke="url(#paint19_linear_679_4143)" stroke-width="1.16465" stroke-miterlimit="10"/>
<path d="M0 765.268C52.2927 757.348 91.6579 719.264 141.971 706.22C173.649 698.068 209.986 705.987 241.315 712.859C303.624 726.485 358.479 739.18 422.768 732.658C535.855 721.128 646.264 691.429 759.817 682.578C812.11 678.502 867.43 690.497 919.257 696.67C973.413 703.192 1028.5 712.393 1083.12 713.092C1143.45 713.79 1203.66 708.084 1263.99 706.337C1300.1 705.288 1333.41 704.706 1367.65 718.449C1408.99 735.103 1445.1 755.252 1490.75 756.766" stroke="url(#paint20_linear_679_4143)" stroke-width="1.16465" stroke-miterlimit="10"/>
<path d="M0 762.939C51.4775 755.368 89.9109 717.75 139.292 705.172C170.854 697.019 207.657 704.823 239.102 711.228C301.644 724.039 357.547 736.268 421.952 729.28C535.273 717.051 645.681 685.839 759.351 676.289C811.644 671.863 867.314 685.256 919.024 692.244C973.064 699.582 1028.62 710.18 1083.24 710.762C1144.15 711.345 1204.83 704.473 1265.62 702.144C1301.84 700.746 1334.92 699.815 1369.04 714.373C1410.04 731.842 1445.1 752.806 1490.75 754.204" stroke="url(#paint21_linear_679_4143)" stroke-width="1.16465" stroke-miterlimit="10"/>
<path d="M0 760.609C50.5458 753.388 88.1639 716.353 136.613 704.007C168.292 695.971 205.211 703.541 236.773 709.481C299.664 721.361 356.499 733.24 420.904 725.903C534.341 712.975 644.633 680.481 758.536 670.349C810.829 665.69 867.081 680.365 918.675 688.052C972.715 696.088 1028.62 708.084 1083.36 708.433C1144.73 708.782 1205.99 700.746 1267.37 697.835C1303.59 696.088 1336.55 694.923 1370.44 710.18C1410.97 728.465 1445.1 750.127 1490.75 751.525" stroke="url(#paint22_linear_679_4143)" stroke-width="1.16465" stroke-miterlimit="10"/>
<path d="M0 758.513C49.614 751.525 86.4169 715.188 133.935 703.192C165.613 695.272 202.765 702.61 234.444 708.084C297.684 719.148 355.451 730.561 419.856 722.875C533.293 709.248 643.352 675.706 757.255 664.875C809.547 659.984 866.382 675.823 917.86 684.208C971.899 692.943 1028.27 706.22 1083.12 706.337C1145.08 706.453 1206.81 697.369 1268.65 693.875C1304.99 691.895 1337.72 690.264 1371.49 706.337C1411.55 725.32 1444.75 747.682 1490.52 749.079" stroke="url(#paint23_linear_679_4143)" stroke-width="1.16465" stroke-miterlimit="10"/>
<path d="M0 756.533C48.6823 749.894 84.67 714.023 131.372 702.377C163.051 694.457 200.436 701.678 232.347 706.802C295.821 717.051 354.519 727.999 419.041 720.079C532.477 705.987 642.187 671.281 756.09 659.984C808.499 654.859 865.916 671.747 917.394 680.714C971.084 690.032 1028.73 705.638 1083.47 704.473C1146.01 703.192 1208.09 694.108 1270.52 690.148C1306.85 687.819 1339.58 685.839 1373.12 702.61C1412.72 722.409 1444.86 745.469 1490.75 746.75" stroke="url(#paint24_linear_679_4143)" stroke-width="1.16465" stroke-miterlimit="10"/>
<path d="M0 754.67C47.8671 748.264 83.0395 712.975 128.81 701.678C160.605 693.875 198.107 700.746 230.135 705.521C293.841 715.071 353.354 725.553 417.992 717.284C531.196 702.726 640.557 667.088 754.227 655.441C806.869 650.084 864.752 668.02 916.346 677.453C970.152 687.236 1028.5 704.007 1083.47 702.61C1146.6 700.979 1209.14 690.963 1272.03 686.421C1308.37 683.742 1340.98 681.413 1374.4 698.999C1413.53 719.497 1444.75 743.256 1490.75 744.537" stroke="url(#paint25_linear_679_4143)" stroke-width="1.16465" stroke-miterlimit="10"/>
<path d="M0 752.922C46.9353 746.75 81.409 712.043 126.364 700.979C158.159 693.176 195.894 699.931 228.038 704.357C291.977 713.091 352.306 723.224 416.944 714.722C529.915 699.931 638.693 663.361 752.13 651.598C805.005 646.124 863.471 664.759 915.297 674.658C969.221 684.907 1028.38 702.61 1083.47 700.979C1147.18 698.999 1210.07 688.168 1273.43 683.044C1309.76 680.132 1342.37 677.453 1375.57 695.622C1414.35 716.935 1444.51 741.276 1490.63 742.324" stroke="url(#paint26_linear_679_4143)" stroke-width="1.16465" stroke-miterlimit="10"/>
<path d="M0 751.176C46.2366 745.236 79.8949 711.112 124.035 700.397C155.946 692.71 193.798 699.232 226.058 703.308C290.23 711.345 351.258 721.128 416.013 712.509C528.518 697.485 636.713 660.333 749.684 648.337C802.909 642.747 861.957 661.963 913.9 672.212C968.056 682.927 1027.92 701.329 1083.47 699.349C1147.64 697.136 1211 685.373 1274.82 679.666C1311.16 676.405 1343.77 673.377 1376.73 692.361C1415.05 714.373 1444.4 739.296 1490.63 740.228" stroke="url(#paint27_linear_679_4143)" stroke-width="1.16465" stroke-miterlimit="10"/>
<path d="M0 749.661C45.4213 743.955 78.3809 710.296 121.822 699.814C153.734 692.128 191.818 698.65 224.195 702.377C288.6 709.83 350.326 719.148 415.081 710.413C527.004 695.389 634.501 657.771 747.006 645.775C800.58 640.068 860.21 659.751 912.619 670.232C967.241 681.18 1027.8 700.164 1083.71 698.068C1148.34 695.622 1212.05 682.927 1276.46 676.754C1312.79 673.261 1345.4 669.883 1378.13 689.449C1416.1 712.16 1444.4 737.666 1490.87 738.481" stroke="url(#paint28_linear_679_4143)" stroke-width="1.16465" stroke-miterlimit="10"/>
<path d="M0 748.264C44.7225 742.674 76.9833 709.598 119.842 699.349C151.87 691.662 190.071 698.068 222.564 701.445C286.969 708.316 349.278 717.284 414.033 708.666C525.257 693.875 631.938 655.791 743.745 644.144C797.901 638.438 857.997 658.237 910.755 668.951C965.843 680.016 1027.1 699.349 1083.59 697.019C1148.69 694.341 1212.75 680.831 1277.5 674.309C1313.84 670.582 1346.57 666.855 1379.06 687.003C1416.68 710.296 1444.16 736.385 1490.75 737.083" stroke="url(#paint29_linear_679_4143)" stroke-width="1.16465" stroke-miterlimit="10"/>
<path d="M0 746.866C44.0237 741.509 75.8186 708.899 117.862 698.883C149.89 691.313 188.324 697.485 220.817 700.63C285.339 706.919 348.346 715.421 413.101 706.919C523.51 692.477 629.26 654.277 740.134 642.98C794.873 637.389 855.435 657.072 908.775 667.903C964.446 679.2 1026.4 698.533 1083.59 695.971C1149.16 693.06 1213.56 678.851 1278.67 671.863C1314.89 668.02 1347.73 663.827 1379.99 684.674C1417.26 708.666 1443.82 735.22 1490.63 735.686" stroke="url(#paint30_linear_679_4143)" stroke-width="1.16465" stroke-miterlimit="10"/>
<path d="M0 745.702C43.4414 740.461 74.654 708.316 116.115 698.533C148.26 690.963 186.81 697.136 219.42 700.047C284.058 705.754 347.415 714.023 412.169 705.754C521.297 691.778 626.232 651.365 736.175 642.98C792.311 638.671 851.941 656.723 906.679 667.554C963.165 678.734 1025.71 697.951 1083.59 695.272C1149.62 692.244 1214.26 677.22 1279.72 669.883C1315.94 665.807 1348.9 661.381 1380.81 682.694C1417.73 707.268 1443.47 734.405 1490.63 734.521" stroke="url(#paint31_linear_679_4143)" stroke-width="1.16465" stroke-miterlimit="10"/>
<path d="M0 744.537C42.8591 739.413 73.6058 707.734 114.601 698.068C146.746 690.497 185.412 696.67 218.139 699.349C282.777 704.59 346.599 712.509 411.354 704.59C519.317 691.313 622.971 651.482 731.749 643.562C849.844 635.06 965.494 700.048 1083.71 694.457C1150.09 691.313 1214.96 675.59 1280.88 667.903C1316.98 663.711 1350.18 659.052 1381.86 680.714C1418.43 705.871 1443.47 733.473 1490.87 733.356" stroke="url(#paint32_linear_679_4143)" stroke-width="1.16465" stroke-miterlimit="10"/>
<path d="M0 743.489C42.3932 738.364 72.7906 707.268 113.204 697.718C145.348 690.148 184.131 696.321 216.974 698.766C281.496 703.658 345.668 711.112 410.306 703.774C517.104 691.429 619.477 652.413 726.974 645.193C846.816 637.156 963.98 699.582 1083.71 693.875C1150.44 690.73 1215.54 674.309 1281.7 666.389C1317.68 662.08 1351.11 657.188 1382.44 679.317C1418.78 705.056 1443.12 733.007 1490.75 732.658" stroke="url(#paint33_linear_679_4143)" stroke-width="1.16465" stroke-miterlimit="10"/>
<path d="M0 742.557C41.6944 737.549 71.5094 707.385 111.224 697.485C143.019 689.566 181.802 695.738 214.295 697.951C278.235 702.377 342.174 709.831 406.229 703.309C512.795 692.594 614.702 655.674 721.616 647.755C844.021 638.787 964.446 700.048 1087.08 693.409C1153.47 689.799 1218.34 673.028 1284.26 665.108C1320.13 660.799 1352.97 656.257 1383.84 678.851C1419.59 705.055 1443.23 732.891 1490.75 732.075" stroke="url(#paint34_linear_679_4143)" stroke-width="1.16465" stroke-miterlimit="10"/>
<path d="M0 741.742C41.345 736.734 70.9271 706.919 110.292 697.136C142.087 689.216 180.986 695.505 213.597 697.602C277.419 701.678 341.475 708.782 405.531 703.076C510.349 693.758 610.742 658.12 715.91 651.482C840.411 643.678 962.466 699.698 1087.08 693.176C1153.7 689.682 1218.69 672.329 1284.84 664.293C1320.6 659.984 1353.67 655.209 1384.19 678.152C1419.82 704.823 1442.77 733.124 1490.75 731.842" stroke="url(#paint35_linear_679_4143)" stroke-width="1.16465" stroke-miterlimit="10"/>
<path d="M0 741.043C41.1121 735.919 70.5777 706.57 109.71 696.786C141.505 688.867 180.521 695.272 213.131 697.252C276.837 701.212 340.893 707.851 404.715 703.076C507.554 695.505 606.316 661.265 709.621 656.373C836.218 650.433 960.369 699.698 1086.97 693.176C1153.82 689.799 1218.8 672.096 1285.07 663.943C1320.6 659.634 1354.02 654.743 1384.3 677.919C1419.82 705.055 1442.3 733.589 1490.63 731.959" stroke="url(#paint36_linear_679_4143)" stroke-width="1.16465" stroke-miterlimit="10"/>
<path d="M0 740.344C40.9956 735.22 70.3448 706.104 109.361 696.321C141.155 688.285 180.288 694.923 212.898 696.787C276.488 700.513 340.31 706.803 404.017 703.309C504.759 697.718 601.774 665.341 702.866 662.313C831.676 658.586 958.157 699.465 1086.85 693.293C1153.82 690.032 1218.92 671.98 1285.31 663.827C1320.71 659.518 1354.49 654.626 1384.42 677.919C1419.94 705.521 1441.84 734.288 1490.63 732.192" stroke="url(#paint37_linear_679_4143)" stroke-width="1.16465" stroke-miterlimit="10"/>
</g>
</g>
<defs>
<linearGradient id="paint0_linear_679_4143" x1="745.375" y1="768.742" x2="745.375" y2="842.251" gradientUnits="userSpaceOnUse">
<stop stop-color="#FA652B"/>
<stop offset="1" stop-color="#04060A" stop-opacity="0.24"/>
</linearGradient>
<linearGradient id="paint1_linear_679_4143" x1="745.492" y1="756.73" x2="745.492" y2="837.01" gradientUnits="userSpaceOnUse">
<stop stop-color="#FA652B"/>
<stop offset="1" stop-color="#04060A" stop-opacity="0.24"/>
</linearGradient>
<linearGradient id="paint2_linear_679_4143" x1="745.433" y1="751.839" x2="745.433" y2="831.886" gradientUnits="userSpaceOnUse">
<stop stop-color="#FA652B"/>
<stop offset="1" stop-color="#04060A" stop-opacity="0.24"/>
</linearGradient>
<linearGradient id="paint3_linear_679_4143" x1="745.375" y1="747.178" x2="745.375" y2="826.878" gradientUnits="userSpaceOnUse">
<stop stop-color="#FA652B"/>
<stop offset="1" stop-color="#04060A" stop-opacity="0.24"/>
</linearGradient>
<linearGradient id="paint4_linear_679_4143" x1="745.375" y1="742.798" x2="745.375" y2="821.986" gradientUnits="userSpaceOnUse">
<stop stop-color="#FA652B"/>
<stop offset="1" stop-color="#04060A" stop-opacity="0.24"/>
</linearGradient>
<linearGradient id="paint5_linear_679_4143" x1="745.433" y1="738.717" x2="745.433" y2="817.328" gradientUnits="userSpaceOnUse">
<stop stop-color="#FA652B"/>
<stop offset="1" stop-color="#04060A" stop-opacity="0.24"/>
</linearGradient>
<linearGradient id="paint6_linear_679_4143" x1="745.375" y1="734.801" x2="745.375" y2="812.786" gradientUnits="userSpaceOnUse">
<stop stop-color="#FA652B"/>
<stop offset="1" stop-color="#04060A" stop-opacity="0.24"/>
</linearGradient>
<linearGradient id="paint7_linear_679_4143" x1="745.317" y1="731.3" x2="745.317" y2="808.476" gradientUnits="userSpaceOnUse">
<stop stop-color="#FA652B"/>
<stop offset="1" stop-color="#04060A" stop-opacity="0.24"/>
</linearGradient>
<linearGradient id="paint8_linear_679_4143" x1="745.433" y1="727.948" x2="745.433" y2="804.284" gradientUnits="userSpaceOnUse">
<stop stop-color="#FA652B"/>
<stop offset="1" stop-color="#04060A" stop-opacity="0.24"/>
</linearGradient>
<linearGradient id="paint9_linear_679_4143" x1="745.375" y1="724.794" x2="745.375" y2="800.207" gradientUnits="userSpaceOnUse">
<stop stop-color="#FA652B"/>
<stop offset="1" stop-color="#04060A" stop-opacity="0.24"/>
</linearGradient>
<linearGradient id="paint10_linear_679_4143" x1="745.433" y1="721.905" x2="745.433" y2="796.364" gradientUnits="userSpaceOnUse">
<stop stop-color="#FA652B"/>
<stop offset="1" stop-color="#04060A" stop-opacity="0.24"/>
</linearGradient>
<linearGradient id="paint11_linear_679_4143" x1="745.317" y1="719.267" x2="745.317" y2="792.637" gradientUnits="userSpaceOnUse">
<stop stop-color="#FA652B"/>
<stop offset="1" stop-color="#04060A" stop-opacity="0.24"/>
</linearGradient>
<linearGradient id="paint12_linear_679_4143" x1="745.375" y1="716.727" x2="745.375" y2="789.027" gradientUnits="userSpaceOnUse">
<stop stop-color="#FA652B"/>
<stop offset="1" stop-color="#04060A" stop-opacity="0.24"/>
</linearGradient>
<linearGradient id="paint13_linear_679_4143" x1="745.375" y1="714.366" x2="745.375" y2="785.533" gradientUnits="userSpaceOnUse">
<stop stop-color="#FA652B"/>
<stop offset="1" stop-color="#04060A" stop-opacity="0.24"/>
</linearGradient>
<linearGradient id="paint14_linear_679_4143" x1="745.433" y1="712.307" x2="745.433" y2="782.272" gradientUnits="userSpaceOnUse">
<stop stop-color="#FA652B"/>
<stop offset="1" stop-color="#04060A" stop-opacity="0.24"/>
</linearGradient>
<linearGradient id="paint15_linear_679_4143" x1="745.375" y1="710.348" x2="745.375" y2="779.127" gradientUnits="userSpaceOnUse">
<stop stop-color="#FA652B"/>
<stop offset="1" stop-color="#04060A" stop-opacity="0.24"/>
</linearGradient>
<linearGradient id="paint16_linear_679_4143" x1="745.375" y1="708.619" x2="745.375" y2="776.099" gradientUnits="userSpaceOnUse">
<stop stop-color="#FA652B"/>
<stop offset="1" stop-color="#04060A" stop-opacity="0.24"/>
</linearGradient>
<linearGradient id="paint17_linear_679_4143" x1="745.375" y1="702.493" x2="745.375" y2="773.187" gradientUnits="userSpaceOnUse">
<stop stop-color="#FA652B"/>
<stop offset="1" stop-color="#04060A" stop-opacity="0.24"/>
</linearGradient>
<linearGradient id="paint18_linear_679_4143" x1="745.317" y1="695.235" x2="745.317" y2="770.392" gradientUnits="userSpaceOnUse">
<stop stop-color="#FA652B"/>
<stop offset="1" stop-color="#04060A" stop-opacity="0.24"/>
</linearGradient>
<linearGradient id="paint19_linear_679_4143" x1="745.433" y1="688.439" x2="745.433" y2="767.83" gradientUnits="userSpaceOnUse">
<stop stop-color="#FA652B"/>
<stop offset="1" stop-color="#04060A" stop-opacity="0.24"/>
</linearGradient>
<linearGradient id="paint20_linear_679_4143" x1="745.375" y1="681.751" x2="745.375" y2="765.268" gradientUnits="userSpaceOnUse">
<stop stop-color="#FA652B"/>
<stop offset="1" stop-color="#04060A" stop-opacity="0.24"/>
</linearGradient>
<linearGradient id="paint21_linear_679_4143" x1="745.375" y1="675.411" x2="745.375" y2="762.939" gradientUnits="userSpaceOnUse">
<stop stop-color="#FA652B"/>
<stop offset="1" stop-color="#04060A" stop-opacity="0.24"/>
</linearGradient>
<linearGradient id="paint22_linear_679_4143" x1="745.375" y1="669.454" x2="745.375" y2="760.609" gradientUnits="userSpaceOnUse">
<stop stop-color="#FA652B"/>
<stop offset="1" stop-color="#04060A" stop-opacity="0.24"/>
</linearGradient>
<linearGradient id="paint23_linear_679_4143" x1="745.259" y1="663.957" x2="745.259" y2="758.513" gradientUnits="userSpaceOnUse">
<stop stop-color="#FA652B"/>
<stop offset="1" stop-color="#04060A" stop-opacity="0.24"/>
</linearGradient>
<linearGradient id="paint24_linear_679_4143" x1="745.375" y1="659.035" x2="745.375" y2="756.533" gradientUnits="userSpaceOnUse">
<stop stop-color="#FA652B"/>
<stop offset="1" stop-color="#04060A" stop-opacity="0.24"/>
</linearGradient>
<linearGradient id="paint25_linear_679_4143" x1="745.375" y1="654.462" x2="745.375" y2="754.67" gradientUnits="userSpaceOnUse">
<stop stop-color="#FA652B"/>
<stop offset="1" stop-color="#04060A" stop-opacity="0.24"/>
</linearGradient>
<linearGradient id="paint26_linear_679_4143" x1="745.317" y1="650.611" x2="745.317" y2="752.922" gradientUnits="userSpaceOnUse">
<stop stop-color="#FA652B"/>
<stop offset="1" stop-color="#04060A" stop-opacity="0.24"/>
</linearGradient>
<linearGradient id="paint27_linear_679_4143" x1="745.317" y1="647.337" x2="745.317" y2="751.176" gradientUnits="userSpaceOnUse">
<stop stop-color="#FA652B"/>
<stop offset="1" stop-color="#04060A" stop-opacity="0.24"/>
</linearGradient>
<linearGradient id="paint28_linear_679_4143" x1="745.433" y1="644.757" x2="745.433" y2="749.661" gradientUnits="userSpaceOnUse">
<stop stop-color="#FA652B"/>
<stop offset="1" stop-color="#04060A" stop-opacity="0.24"/>
</linearGradient>
<linearGradient id="paint29_linear_679_4143" x1="745.375" y1="643.132" x2="745.375" y2="748.264" gradientUnits="userSpaceOnUse">
<stop stop-color="#FA652B"/>
<stop offset="1" stop-color="#04060A" stop-opacity="0.24"/>
</linearGradient>
<linearGradient id="paint30_linear_679_4143" x1="745.317" y1="642" x2="745.317" y2="746.866" gradientUnits="userSpaceOnUse">
<stop stop-color="#FA652B"/>
<stop offset="1" stop-color="#04060A" stop-opacity="0.24"/>
</linearGradient>
<linearGradient id="paint31_linear_679_4143" x1="745.317" y1="642.328" x2="745.317" y2="745.702" gradientUnits="userSpaceOnUse">
<stop stop-color="#FA652B"/>
<stop offset="1" stop-color="#04060A" stop-opacity="0.24"/>
</linearGradient>
<linearGradient id="paint32_linear_679_4143" x1="745.433" y1="642.794" x2="745.433" y2="744.537" gradientUnits="userSpaceOnUse">
<stop stop-color="#FA652B"/>
<stop offset="1" stop-color="#04060A" stop-opacity="0.24"/>
</linearGradient>
<linearGradient id="paint33_linear_679_4143" x1="745.375" y1="644.477" x2="745.375" y2="743.489" gradientUnits="userSpaceOnUse">
<stop stop-color="#FA652B"/>
<stop offset="1" stop-color="#04060A" stop-opacity="0.24"/>
</linearGradient>
<linearGradient id="paint34_linear_679_4143" x1="745.375" y1="646.856" x2="745.375" y2="742.557" gradientUnits="userSpaceOnUse">
<stop stop-color="#FA652B"/>
<stop offset="1" stop-color="#04060A" stop-opacity="0.24"/>
</linearGradient>
<linearGradient id="paint35_linear_679_4143" x1="745.375" y1="650.734" x2="745.375" y2="741.742" gradientUnits="userSpaceOnUse">
<stop stop-color="#FA652B"/>
<stop offset="1" stop-color="#04060A" stop-opacity="0.24"/>
</linearGradient>
<linearGradient id="paint36_linear_679_4143" x1="745.317" y1="655.875" x2="745.317" y2="741.043" gradientUnits="userSpaceOnUse">
<stop stop-color="#FA652B"/>
<stop offset="1" stop-color="#04060A" stop-opacity="0.24"/>
</linearGradient>
<linearGradient id="paint37_linear_679_4143" x1="745.317" y1="660.215" x2="745.317" y2="740.344" gradientUnits="userSpaceOnUse">
<stop stop-color="#FA652B"/>
<stop offset="1" stop-color="#04060A" stop-opacity="0.24"/>
</linearGradient>
<clipPath id="clip0_679_4143">
<rect width="1366" height="768" fill="white"/>
</clipPath>
</defs>
</svg>
