<svg width="52" height="67" viewBox="0 0 52 67" fill="none" xmlns="http://www.w3.org/2000/svg">
<path d="M39.7467 10L21.4134 28.3333L13.0801 20" stroke="#42E01B" stroke-width="3.1358" stroke-linecap="round" stroke-linejoin="round"/>
<path d="M6.00627 63.21C5.02161 63.21 4.18161 62.9907 3.48627 62.552C2.79094 62.1133 2.26361 61.4997 1.90427 60.711C1.54494 59.9177 1.36527 59.0007 1.36527 57.96C1.36527 56.9193 1.54494 56.0047 1.90427 55.216C2.26361 54.4227 2.79094 53.8067 3.48627 53.368C4.18161 52.9293 5.02161 52.71 6.00627 52.71C6.77161 52.71 7.45061 52.8453 8.04327 53.116C8.64061 53.382 9.13527 53.7623 9.52727 54.257C9.92394 54.7517 10.2156 55.3397 10.4023 56.021L9.35228 56.294C9.13294 55.4773 8.74094 54.8403 8.17627 54.383C7.61161 53.9257 6.88827 53.697 6.00627 53.697C5.23627 53.697 4.58527 53.8743 4.05327 54.229C3.52594 54.5837 3.12927 55.0807 2.86327 55.72C2.59727 56.3593 2.45961 57.106 2.45027 57.96C2.44561 58.8093 2.57627 59.556 2.84227 60.2C3.11294 60.8393 3.51427 61.3363 4.04627 61.691C4.58294 62.0457 5.23627 62.223 6.00627 62.223C6.88827 62.223 7.61161 61.9943 8.17627 61.537C8.74094 61.0797 9.13294 60.4427 9.35228 59.626L10.4023 59.899C10.2156 60.5803 9.92394 61.1683 9.52727 61.663C9.13527 62.1577 8.64061 62.5403 8.04327 62.811C7.45061 63.077 6.77161 63.21 6.00627 63.21ZM12.1568 52.71H13.1858V63H12.1568V52.71ZM16.0333 59.507C16.0753 60.375 16.311 61.0447 16.7403 61.516C17.1697 61.9873 17.76 62.223 18.5113 62.223C19.048 62.223 19.5193 62.0993 19.9253 61.852C20.3313 61.6 20.651 61.2383 20.8843 60.767L21.8433 61.138C21.5447 61.796 21.106 62.307 20.5273 62.671C19.9487 63.0303 19.2907 63.21 18.5533 63.21C17.8253 63.21 17.1883 63.0467 16.6423 62.72C16.0963 62.3933 15.674 61.9337 15.3753 61.341C15.0813 60.7437 14.9343 60.0483 14.9343 59.255C14.9343 58.4383 15.079 57.7267 15.3683 57.12C15.6623 56.5133 16.0777 56.0467 16.6143 55.72C17.1557 55.3933 17.788 55.23 18.5113 55.23C19.2347 55.23 19.8553 55.3933 20.3733 55.72C20.896 56.042 21.295 56.5087 21.5703 57.12C21.8503 57.7267 21.9903 58.45 21.9903 59.29V59.507H16.0333ZM18.5393 56.175C17.816 56.175 17.2397 56.3873 16.8103 56.812C16.3857 57.2367 16.1337 57.848 16.0543 58.646H20.9123C20.8377 57.8293 20.5997 57.2133 20.1983 56.798C19.797 56.3827 19.244 56.175 18.5393 56.175ZM29.2101 56.742C29.3594 57.106 29.4341 57.6263 29.4341 58.303V63H28.5171V61.747C28.2231 62.2277 27.8311 62.5917 27.3411 62.839C26.8511 63.0863 26.2841 63.21 25.6401 63.21C25.0894 63.21 24.6181 63.1097 24.2261 62.909C23.8387 62.7083 23.5471 62.4377 23.3511 62.097C23.1551 61.7563 23.0571 61.3807 23.0571 60.97C23.0571 60.382 23.2274 59.9083 23.5681 59.549C23.9087 59.1897 24.3801 58.9307 24.9821 58.772C25.3507 58.6833 25.7614 58.604 26.2141 58.534C26.6714 58.464 27.1987 58.3893 27.7961 58.31L28.4261 58.226C28.4167 57.5307 28.2534 57.0197 27.9361 56.693C27.6234 56.3663 27.1147 56.203 26.4101 56.203C25.8781 56.203 25.4347 56.322 25.0801 56.56C24.7301 56.798 24.4851 57.1643 24.3451 57.659L23.3441 57.365C23.5214 56.6837 23.8714 56.1587 24.3941 55.79C24.9214 55.4167 25.5981 55.23 26.4241 55.23C27.1147 55.23 27.7004 55.3607 28.1811 55.622C28.6664 55.8833 29.0094 56.2567 29.2101 56.742ZM25.7591 62.321C26.2257 62.321 26.6411 62.237 27.0051 62.069C27.3691 61.8963 27.6607 61.6607 27.8801 61.362C28.1041 61.0587 28.2487 60.7157 28.3141 60.333C28.3794 60.0437 28.4121 59.6423 28.4121 59.129C28.2301 59.1477 28.0994 59.164 28.0201 59.178C27.3854 59.2527 26.8697 59.3203 26.4731 59.381C26.0764 59.437 25.7171 59.5093 25.3951 59.598C24.5224 59.8547 24.0861 60.312 24.0861 60.97C24.0861 61.2033 24.1421 61.4227 24.2541 61.628C24.3707 61.8333 24.5551 62.0013 24.8071 62.132C25.0591 62.258 25.3764 62.321 25.7591 62.321ZM32.8384 55.937C33.0484 55.7503 33.298 55.6103 33.5874 55.517C33.8814 55.4237 34.1777 55.377 34.4764 55.377C34.677 55.377 34.866 55.398 35.0434 55.44V56.406C34.8427 56.3593 34.649 56.336 34.4624 56.336C33.977 56.336 33.5687 56.4737 33.2374 56.749C32.892 57.0197 32.6587 57.365 32.5374 57.785C32.416 58.205 32.3554 58.6857 32.3554 59.227V63H31.3264V55.44H32.2504V56.637C32.4137 56.3477 32.6097 56.1143 32.8384 55.937ZM36.9836 59.507C37.0256 60.375 37.2612 61.0447 37.6906 61.516C38.1199 61.9873 38.7102 62.223 39.4616 62.223C39.9982 62.223 40.4696 62.0993 40.8756 61.852C41.2816 61.6 41.6012 61.2383 41.8346 60.767L42.7936 61.138C42.4949 61.796 42.0562 62.307 41.4776 62.671C40.8989 63.0303 40.2409 63.21 39.5036 63.21C38.7756 63.21 38.1386 63.0467 37.5926 62.72C37.0466 62.3933 36.6242 61.9337 36.3256 61.341C36.0316 60.7437 35.8846 60.0483 35.8846 59.255C35.8846 58.4383 36.0292 57.7267 36.3186 57.12C36.6126 56.5133 37.0279 56.0467 37.5646 55.72C38.1059 55.3933 38.7382 55.23 39.4616 55.23C40.1849 55.23 40.8056 55.3933 41.3236 55.72C41.8462 56.042 42.2452 56.5087 42.5206 57.12C42.8006 57.7267 42.9406 58.45 42.9406 59.29V59.507H36.9836ZM39.4896 56.175C38.7662 56.175 38.1899 56.3873 37.7606 56.812C37.3359 57.2367 37.0839 57.848 37.0046 58.646H41.8626C41.7879 57.8293 41.5499 57.2133 41.1486 56.798C40.7472 56.3827 40.1942 56.175 39.4896 56.175ZM50.899 52.92V63H49.975V61.943C49.695 62.3443 49.345 62.657 48.925 62.881C48.5097 63.1003 48.0337 63.21 47.497 63.21C46.8064 63.21 46.2067 63.0373 45.698 62.692C45.194 62.3467 44.809 61.8707 44.543 61.264C44.277 60.6573 44.144 59.9737 44.144 59.213C44.144 58.457 44.277 57.778 44.543 57.176C44.809 56.5693 45.1917 56.0933 45.691 55.748C46.195 55.4027 46.783 55.23 47.455 55.23C47.9684 55.23 48.4257 55.3257 48.827 55.517C49.233 55.7083 49.5784 55.979 49.863 56.329V52.92H50.899ZM47.602 62.251C48.1247 62.251 48.5634 62.1227 48.918 61.866C49.2727 61.6047 49.5364 61.2477 49.709 60.795C49.8864 60.3377 49.975 59.8103 49.975 59.213C49.975 58.611 49.8864 58.0837 49.709 57.631C49.5364 57.1737 49.2727 56.819 48.918 56.567C48.568 56.315 48.1364 56.189 47.623 56.189C47.1004 56.189 46.6594 56.3197 46.3 56.581C45.9407 56.8423 45.6724 57.2017 45.495 57.659C45.3224 58.1117 45.236 58.6297 45.236 59.213C45.236 59.7963 45.3247 60.319 45.502 60.781C45.684 61.2383 45.9524 61.5977 46.307 61.859C46.6617 62.1203 47.0934 62.251 47.602 62.251Z" fill="#42E01B"/>
</svg>
