<svg width="32" height="28" viewBox="0 0 32 28" fill="none" xmlns="http://www.w3.org/2000/svg">
<path d="M27.3085 4.03129C24.6012 1.54838 19.9871 0.872333 19.7915 0.844752C19.5458 0.808191 19.3109 0.961489 19.2097 1.2187C19.1956 1.25397 18.9044 2.00763 18.7723 3.0031C17.6525 2.83505 16.6558 2.78823 15.9082 2.78823C15.1364 2.78823 14.1003 2.83698 12.935 3.01914C12.804 2.01597 12.5095 1.25333 12.4954 1.21805C12.3942 0.960847 12.1593 0.810115 11.9114 0.84411C11.7219 0.871691 7.2332 1.54902 4.49781 4.05951C3.05703 5.57837 0.177734 14.4138 0.177734 22.0306C0.177734 22.1416 0.203031 22.2512 0.251375 22.3481C2.17784 26.2094 7.87292 27.7565 9.15404 27.8033C9.16023 27.8033 9.16585 27.8033 9.17203 27.8033C9.34236 27.8033 9.50426 27.7148 9.61106 27.5628L11.5758 24.7611C12.8366 25.0471 14.2864 25.2376 15.9312 25.2376C17.5676 25.2376 19.0084 25.0491 20.2631 24.7649L22.225 27.5628C22.3313 27.7148 22.4931 27.8033 22.6635 27.8033C22.6697 27.8033 22.6753 27.8033 22.6815 27.8033C23.9598 27.7565 29.6464 26.203 31.583 22.3211C31.6314 22.2249 31.6567 22.1153 31.6567 22.0037C31.6572 14.401 28.7779 5.57773 27.3085 4.03129ZM22.917 26.4967L21.4779 24.4442C24.6456 23.4827 26.2944 21.9774 26.3933 21.885C26.6328 21.6605 26.6671 21.2577 26.4714 20.9838C26.2752 20.7106 25.9217 20.6695 25.6811 20.8921C25.6479 20.9229 22.3065 23.9548 15.9312 23.9548C9.5616 23.9548 6.1938 20.928 6.15332 20.8914C5.91329 20.6682 5.55913 20.7093 5.36351 20.9844C5.16732 21.259 5.2033 21.6631 5.44446 21.8869C5.54396 21.9793 7.19891 23.4776 10.3621 24.4391L8.91907 26.4974C7.28548 26.2902 2.88389 24.7925 1.30371 21.8561C1.34756 14.603 4.12286 6.20247 5.23253 5.03061C7.22645 3.20194 10.4498 2.42647 11.6162 2.19557C11.691 2.46047 11.7742 2.82415 11.8259 3.22888C10.1445 3.60026 8.29902 4.26733 6.62833 5.45009C6.36412 5.63674 6.28318 6.03185 6.44676 6.33267C6.61091 6.63478 6.95662 6.72778 7.22027 6.53985C10.2558 4.39176 13.9666 4.07105 15.9082 4.07105C17.8571 4.07105 21.5797 4.39176 24.6158 6.54049C24.708 6.60591 24.8103 6.6367 24.9115 6.6367C25.0992 6.6367 25.2836 6.52894 25.3899 6.33331C25.554 6.03249 25.4725 5.63738 25.2083 5.45073C23.4977 4.23974 21.601 3.57075 19.8831 3.20451C19.9354 2.80811 20.0175 2.45341 20.0905 2.19364C21.2761 2.41942 24.5933 3.18719 26.5743 5.00238C27.7132 6.20247 30.4874 14.5915 30.5318 21.8298C28.9437 24.7835 24.5478 26.2896 22.917 26.4967Z" fill="#20242A"/>
<path d="M11.4224 13.0513C10.826 13.0513 10.2541 13.3554 9.83242 13.8966C9.41073 14.4379 9.17383 15.1721 9.17383 15.9376C9.17383 16.7031 9.41073 17.4372 9.83242 17.9785C10.2541 18.5198 10.826 18.8239 11.4224 18.8239C12.0188 18.8239 12.5907 18.5198 13.0124 17.9785C13.4341 17.4372 13.671 16.7031 13.671 15.9376C13.671 15.1721 13.4341 14.4379 13.0124 13.8966C12.5907 13.3554 12.0188 13.0513 11.4224 13.0513Z" fill="#20242A"/>
<path d="M20.3778 13.0513C19.7907 13.0513 19.2276 13.3554 18.8124 13.8966C18.3973 14.4379 18.1641 15.1721 18.1641 15.9376C18.1641 16.7031 18.3973 17.4372 18.8124 17.9785C19.2276 18.5198 19.7907 18.8239 20.3778 18.8239C20.9649 18.8239 21.528 18.5198 21.9431 17.9785C22.3583 17.4372 22.5915 16.7031 22.5915 15.9376C22.5915 15.1721 22.3583 14.4379 21.9431 13.8966C21.528 13.3554 20.9649 13.0513 20.3778 13.0513Z" fill="#20242A"/>
</svg>
