<svg width="52" height="52" viewBox="0 0 52 52" fill="none" xmlns="http://www.w3.org/2000/svg">
<circle cx="26" cy="26" r="24.7" fill="#0A0A0A" stroke="#F86800" stroke-width="2.6"/>
<path d="M25.2986 28.8194C25.2104 30.5189 25.1888 32.0918 25.063 33.7953C25.7357 33.8566 26.4946 33.9151 27.2118 33.8107L26.9977 29.0612L26.96 28.8352C26.4139 28.8566 25.8968 28.8783 25.2986 28.8194ZM21.0974 24.0467C20.269 24.4621 19.0502 25.0898 19.1846 26.226C19.3621 26.8466 20.0339 27.2473 20.5654 27.5025C23.5037 28.7971 27.4044 28.8411 30.5065 27.8748C31.2722 27.5797 32.3004 27.1516 32.4412 26.2133C32.433 25.438 31.6123 24.95 31.0226 24.6532V24.6164C31.2283 24.5351 31.4647 24.4621 31.6777 24.4399V24.4189C30.6385 24.2328 29.6354 23.9609 28.6291 23.6949C28.8228 24.1366 28.9626 24.6024 29.1243 25.0612C29.4266 24.9646 29.7366 24.8911 30.0629 24.8466C30.5936 25.0531 31.3535 25.3486 31.4289 26.0122C31.4879 26.6328 30.8088 26.9351 30.3799 27.187C28.1043 28.015 25.5442 28.0958 23.171 27.4661C22.5155 27.2597 21.5695 26.9945 21.4883 26.1598C21.9536 25.0612 23.1569 24.8325 24.162 24.5655C23.6454 24.2328 23.1202 23.9382 22.6195 23.5678C22.0788 23.5978 21.585 23.8343 21.0974 24.0467ZM26.1248 17.4171L25.8301 18.3626L24.353 22.5937C24.723 22.6314 25.181 22.5937 25.5442 22.6314V22.6663L25.328 27.4521L25.3653 27.5025C25.8379 27.5488 26.4279 27.5724 26.9095 27.4903V27.4148L26.7166 22.773L26.7456 22.6159L28.0453 22.5937C27.3971 20.881 26.7684 19.1511 26.1628 17.4171H26.1248ZM25.4384 15.2913C26.5251 14.551 27.5001 15.5859 28.3422 16.1774C31.5977 18.7979 34.67 21.7975 37.0108 25.1848C37.3059 25.6219 37.4393 26.3005 37.1747 26.7953C36.5678 27.8075 35.7489 28.7313 34.9727 29.6695V29.7209C33.0372 31.7813 30.9931 33.8993 28.7843 35.6441C27.7063 36.3 26.7166 37.7327 25.328 36.8453C22.1665 34.5348 19.141 31.6623 16.5763 28.5814C16.1415 27.9042 15.4624 27.3491 15.1601 26.581C14.7379 25.5406 15.6685 24.7943 16.2009 24.0109C18.816 20.7857 22.0639 17.6232 25.4384 15.2913ZM28.1633 12.211L26.96 10.5056C26.8124 10.4157 26.6286 10.2668 26.4656 10.2232C26.1106 10.0693 25.7279 10.2555 25.4384 10.4752L23.2609 13.3113C19.7674 17.6377 15.6321 21.6777 11.1205 24.7744C10.7638 25.0531 10.2336 25.325 10.1233 25.7844C10.0048 26.1975 10.2199 26.5383 10.4764 26.7953C14.0892 29.2838 17.5432 32.2379 20.6176 35.607C21.1633 36.1802 21.6059 36.7504 22.1397 37.2887C23.0389 38.4853 24.0953 39.6914 24.9217 40.9752C25.181 41.2461 25.2254 41.6914 25.6309 41.8235C25.9481 41.9334 26.3399 42.0078 26.6427 41.8235L26.9436 41.5212C30.6818 36.2257 35.4225 31.4698 40.7194 27.63C41.2497 27.1566 42.2624 26.9805 42.2768 26.1017C42.2392 25.6963 42.0032 25.2968 41.655 25.0754L41.5682 25.0612C38.8425 23.207 36.3028 21.1098 33.9101 18.7308L31.266 15.9686C30.1947 14.7811 29.1538 13.4656 28.1633 12.211ZM25.0479 14.6404C26.1106 13.8133 27.4479 14.5001 28.3422 15.2609C29.2786 15.9768 30.2541 16.7879 31.1103 17.6168L31.266 17.7063C33.6368 19.906 35.8388 22.3508 37.6477 24.9355C37.941 25.3853 38.2001 25.8952 38.0363 26.492C37.4329 28 36.2074 29.202 35.1356 30.5189C32.817 33.0146 30.3712 35.4295 27.6331 37.356C27.0794 37.7477 26.3321 38.1095 25.6686 37.7986C23.6531 36.7436 21.9536 35.0154 20.1896 33.4407C18.1437 31.5439 16.0906 29.3351 14.54 27.0245C14.3094 26.7004 14.2445 26.3005 14.2513 25.8729C14.4506 25.0754 14.9971 24.4189 15.5141 23.7467C17.3462 21.4117 19.5904 19.1969 21.8569 17.1738C21.9091 17.122 22.0058 17.0117 22.0879 16.9591C23.0611 16.1175 24.028 15.3726 25.0479 14.6404Z" fill="#F86800"/>
</svg>
