<?xml version="1.0" encoding="utf-8"?>
<!-- Generator: Adobe Illustrator 25.2.0, SVG Export Plug-In . SVG Version: 6.00 Build 0)  -->
<svg version="1.1" id="Layer_1" xmlns="http://www.w3.org/2000/svg" xmlns:xlink="http://www.w3.org/1999/xlink" x="0px" y="0px"
	 viewBox="0 0 1366 768" style="enable-background:new 0 0 1366 768;" xml:space="preserve">
<style type="text/css">
	.st0{fill:url(#SVGID_1_);}
</style>
<radialGradient id="SVGID_1_" cx="683.4877" cy="383.1508" r="1160.384" gradientUnits="userSpaceOnUse">
	<stop  offset="0" style="stop-color:#6ABD45"/>
	<stop  offset="0" style="stop-color:#6ABD45"/>
	<stop  offset="0" style="stop-color:#68BD45"/>
	<stop  offset="1.391721e-02" style="stop-color:#63AE44"/>
	<stop  offset="7.340735e-02" style="stop-color:#51863F"/>
	<stop  offset="0.1387" style="stop-color:#416538"/>
	<stop  offset="0.2084" style="stop-color:#334C2F"/>
	<stop  offset="0.2837" style="stop-color:#273826"/>
	<stop  offset="0.3664" style="stop-color:#1D281D"/>
	<stop  offset="0.4596" style="stop-color:#131A13"/>
	<stop  offset="0.5691" style="stop-color:#090E0A"/>
	<stop  offset="0.7108" style="stop-color:#030403"/>
	<stop  offset="1" style="stop-color:#010101"/>
</radialGradient>
<path class="st0" d="M1358.7,21.8l7.3,4.2v-1.2l-6.8-3.9V3.1l6.4-3.7h-2.3l-4.6,2.7l-4.6-2.7h-2.3l6.4,3.7v17.7l-15.4,8.9l-15.4-8.9
	V3.1l6.4-3.7h-2.3l-4.6,2.7l-4.6-2.7h-2.3l6.4,3.7v17.7l-15.4,8.9l-15.4-8.9V3.1l6.4-3.7h-2.3l-4.6,2.7l-4.6-2.7h-2.3l6.4,3.7v17.7
	l-15.4,8.9l-15.4-8.9V3.1l6.4-3.7h-2.3l-4.6,2.7l-4.6-2.7h-2.3l6.4,3.7v17.7l-15.4,8.9l-15.4-8.9V3.1l6.4-3.7h-2.3l-4.6,2.7
	l-4.6-2.7h-2.3l6.4,3.7v17.7l-15.4,8.9l-15.4-8.9V3.1l6.4-3.7h-2.3l-4.6,2.7l-4.6-2.7h-2.3l6.4,3.7v17.7l-15.4,8.9l-15.4-8.9V3.1
	l6.4-3.7h-2.3l-4.6,2.7l-4.6-2.7h-2.3l6.4,3.7v17.7l-15.4,8.9l-15.4-8.9V3.1l6.4-3.7h-2.3l-4.6,2.7l-4.6-2.7h-2.3l6.4,3.7v17.7
	l-15.4,8.9l-15.4-8.9V3.1l6.4-3.7h-2.3l-4.6,2.7l-4.6-2.7h-2.3l6.4,3.7v17.7l-15.4,8.9l-15.4-8.9V3.1l6.4-3.7h-2.3l-4.6,2.7
	l-4.6-2.7h-2.3l6.4,3.7v17.7l-15.4,8.9l-15.4-8.9V3.1l6.4-3.7h-2.3l-4.6,2.7l-4.6-2.7h-2.3l6.4,3.7v17.7l-15.4,8.9l-15.4-8.9V3.1
	l6.4-3.7h-2.3l-4.6,2.7l-4.6-2.7h-2.3l6.4,3.7v17.7l-15.3,8.8l-15.5-9V3.1l6.4-3.7H982l-4.6,2.7l-4.6-2.7h-2.1l6.2,3.6v17.7
	l-15.4,8.9l-15.4-8.9V3l6.2-3.6H950L945.6,2l-4.4-2.5h-2.3l6.2,3.6v17.7l-15.4,8.9l-15.4-8.9V3l6.2-3.6h-2.3L913.8,2l-4.4-2.5h-2.3
	l6.2,3.6v17.7l-15.4,8.9l-15.4-8.9V3l6.2-3.6h-2.3L882.1,2l-4.4-2.5h-2.3l6.2,3.6v17.7l-15.4,8.9l-15.4-8.9V3l6.2-3.6h-2.3L850.3,2
	l-4.4-2.5h-2.3l6.2,3.6v17.7l-15.4,8.9L819,20.8V3l6.2-3.6h-2.3L818.5,2l-4.4-2.5h-2.3L818,3v17.7l-15.4,8.9l-15.4-8.9V3l6.2-3.6
	h-2.3L786.7,2l-4.4-2.5H780l6.2,3.6v17.7l-15.4,8.9l-15.4-8.9V3l6.2-3.6h-2.3L755,2l-4.4-2.5h-2.3l6.2,3.6v17.7l-15.4,8.9l-15.4-8.9
	V3l6.2-3.6h-2.3L723.2,2l-4.4-2.5h-2.3l6.2,3.6v17.7l-15.4,8.9l-15.4-8.9V3l6.2-3.6h-2.3L691.4,2L687-0.6h-2.3l6.2,3.6v17.7
	l-15.4,8.9l-15.4-8.9V3l6.2-3.6H664L659.6,2l-4.4-2.5h-2.3l6.2,3.6v17.7l-15.4,8.9l-15.4-8.9V3l6.2-3.6h-2.3L627.9,2l-4.4-2.5h-2.3
	l6.2,3.6v17.7L612,29.6l-15.4-8.9V3l6.2-3.6h-2.3L596.1,2l-4.4-2.5h-2.3l6.2,3.6v17.7l-15.4,8.9l-15.4-8.9V3l6.2-3.6h-2.3L564.3,2
	l-4.4-2.5h-2.3l6.2,3.6v17.7l-15.4,8.9l-15.4-8.9V3l6.2-3.6H537L532.5,2l-4.4-2.5h-2.3L532,3v17.7l-15.4,8.9l-15.4-8.9V3l6.2-3.6
	h-2.3L500.8,2l-4.4-2.5H494l6.2,3.6v17.7L485,29.6l-15.5-9V3l6.2-3.6h-2.3L469,2l-4.4-2.5h-2l5.9,3.4v17.8l-15.4,8.9l-15.4-8.9V2.8
	l5.9-3.4h-2.3l-4.1,2.4l-4.1-2.4h-2.3l5.9,3.4v17.7l-15.4,8.9L406,20.6V2.8l5.9-3.4h-2.3l-4.1,2.4l-4.1-2.4H399l5.9,3.4v17.7
	l-15.4,8.9l-15.4-8.9V2.8l5.9-3.4h-2.3l-4.1,2.4l-4.1-2.4h-2.3l5.9,3.4v17.7l-15.4,8.9l-15.4-8.9V2.8l5.9-3.4H346l-4.1,2.4l-4.1-2.4
	h-2.3l5.9,3.4v17.7L326,29.5l-15.4-8.9V2.8l5.9-3.4h-2.3l-4.1,2.4L306-0.6h-2.3l5.9,3.4v17.7l-15.4,8.9l-15.4-8.9V2.8l5.9-3.4h-2.3
	l-4.1,2.4l-4.1-2.4h-2.3l5.9,3.4v17.7l-15.4,8.9l-15.4-8.9V2.8l5.9-3.4h-2.3l-4.1,2.4l-4.1-2.4h-2.3l5.9,3.4v17.7l-15.4,8.9
	l-15.4-8.9V2.8l5.9-3.4h-2.3l-4.1,2.4l-4.1-2.4h-2.3l5.9,3.4v17.7l-15.4,8.9l-15.4-8.9V2.8l5.9-3.4h-2.3L183,1.8l-4.1-2.4h-2.3
	l5.9,3.4v17.7l-15.4,8.9l-15.4-8.9V2.8l5.9-3.4h-2.3l-4.1,2.4l-4.1-2.4h-2.3l5.9,3.4v17.7l-15.4,8.9L120,20.6V2.8l5.9-3.4h-2.3
	l-4.1,2.4l-4.1-2.4h-2.3l5.9,3.4v17.7l-15.4,8.9l-15.4-8.9V2.8l5.9-3.4h-2.3l-4.1,2.4l-4.1-2.4h-2.3l5.9,3.4v17.7l-15.4,8.9
	l-15.4-8.9V2.8l5.9-3.4h-2.3L56,1.8l-4.1-2.4h-2.3l5.9,3.4v17.7l-15.4,8.9l-15.4-8.9V2.8l5.9-3.4h-2.3l-4.1,2.4l-4.1-2.4h-2.3
	l5.9,3.4v17.7L8.3,29.5L1,25.3v1.2l6.8,3.9v17.7L1,52v1.2L8.3,49l15.4,8.9v17.7L8.4,84.4L1,80.1v1.3l6.8,3.9V103L1,106.9v1.2
	l7.2-4.2l15.5,8.9v17.6l-15.4,8.9L1,135.1v1.2l6.8,3.9V158L1,161.9v1.2l7.3-4.2l15.4,8.9v17.7l-15.4,8.9L1,190.1v1.2l6.8,3.9V213
	L1,216.9v1.2l7.3-4.2l15.4,8.9v17.7l-15.4,8.9L1,245.2v1.2l6.8,3.9V268L1,271.9v1.2l7.3-4.2l15.4,8.9v17.7l-15.4,8.9L1,300.2v1.2
	l6.8,3.9V323L1,327v1.2l7.3-4.2l15.4,8.9v17.7l-15.4,8.9L1,355.2v1.2l6.8,3.9v17.7L1,382v1.2l7.3-4.2l15.4,8.9v17.8l-15.4,8.9
	L1,410.2v1.3l6.8,3.9v17.7L1,437.2v1.2l7.3-4.2l15.4,8.9v17.7l-15.4,8.9L1,465.4v1.2l6.8,3.9v17.7L1,492.2v1.2l7.3-4.2l15.4,8.9
	v17.7l-15.4,8.9L1,520.4v1.2l6.8,3.9v17.7L1,547.2v1.2l7.3-4.2l15.4,8.9v17.7l-15.4,8.9L1,575.4v1.2l6.8,3.9v17.7L1,602.2v1.2
	l7.3-4.2l15.4,8.9v17.7l-15.4,8.9L1,630.4v1.2l6.8,3.9v17.7L1,657.2v1.2l7.3-4.2l15.4,8.9v17.7l-15.4,8.9L1,685.4v1.2l6.8,3.9v17.7
	L1,712.3v1.2l7.3-4.2l15.4,8.9v17.7l-15.4,8.9L1,740.5v1.2l6.8,3.9v17.7l-6.2,3.6h2l4.6-2.7l4.6,2.7h2l-6.2-3.6v-17.7l15.4-8.9
	l15.4,8.9v17.7l-6.2,3.6h2l4.6-2.7l4.6,2.7h2l-6.2-3.6v-17.7l15.4-8.9l15.4,8.9v17.7l-6.2,3.6h2l4.6-2.7l4.6,2.7h2l-6.2-3.6v-17.7
	l15.4-8.9l15.4,8.9v17.7l-6.2,3.6h2l4.6-2.7l4.6,2.7h2l-6.2-3.6v-17.7l15.4-8.9l15.4,8.9v17.7l-6.2,3.6h2l4.6-2.7l4.6,2.7h2
	l-6.2-3.6v-17.7l15.4-8.9l15.4,8.9v17.7l-6.2,3.6h2l4.6-2.7l4.6,2.7h2l-6.2-3.6v-17.7l15.4-8.9l15.4,8.9v17.7l-6.2,3.6h2l4.6-2.7
	l4.6,2.7h2l-6.2-3.6v-17.7l15.4-8.9l15.4,8.9v17.7l-6.2,3.6h2l4.6-2.7l4.6,2.7h2l-6.2-3.6v-17.7l15.4-8.9l15.4,8.9v17.7l-6.2,3.6h2
	l4.6-2.7l4.6,2.7h2l-6.2-3.6v-17.7l15.4-8.9l15.4,8.9v17.7l-6.2,3.6h2l4.6-2.7l4.6,2.7h2l-6.2-3.6v-17.7l15.4-8.9l15.4,8.9v17.7
	l-6.2,3.6h2l4.6-2.7l4.6,2.7h2l-6.2-3.6v-17.7l15.4-8.9l15.4,8.9v17.7l-6.2,3.6h2l4.6-2.7l4.6,2.7h2l-6.2-3.6v-17.7l15.3-8.8
	l15.5,8.9v17.6l-6.2,3.6h2l4.5-2.6l4.5,2.6h2.3l-6.2-3.6v-17.6l15.4-8.9l15.4,8.9v17.7l-5.9,3.4h2.1l4.4-2.5l4.4,2.5h2.1l-5.9-3.4
	v-17.7l15.4-8.9l15.4,8.9v17.7l-5.9,3.4h2l4.4-2.5l4.4,2.5h2.1l-5.9-3.4v-17.7l15.4-8.9l15.4,8.9v17.7l-5.9,3.4h2.1l4.4-2.5l4.4,2.5
	h2l-5.9-3.4v-17.7l15.4-8.9l15.4,8.9v17.7l-5.9,3.4h2.1l4.4-2.5l4.4,2.5h2l-5.9-3.4v-17.7l15.4-8.9l15.4,8.9v17.7l-5.9,3.4h2.1
	l4.4-2.5l4.4,2.5h2.1l-5.9-3.4v-17.7l15.4-8.9l15.4,8.9v17.7l-5.9,3.4h2l4.4-2.5l4.4,2.5h2.1l-5.9-3.4v-17.7l15.4-8.9l15.4,8.9v17.7
	l-5.9,3.4h2.1l4.4-2.5l4.4,2.5h2l-5.9-3.4v-17.7l15.4-8.9l15.4,8.9v17.7l-5.9,3.4h2.1l4.4-2.5l4.4,2.5h2.1l-5.9-3.4v-17.7l15.4-8.9
	l15.4,8.9v17.7l-5.9,3.4h2.1l4.4-2.5l4.4,2.5h2.1l-5.9-3.4v-17.7l15.4-8.9l15.4,8.9v17.7l-5.9,3.4h2l4.4-2.5l4.4,2.5h2.1l-5.9-3.4
	v-17.7l15.4-8.9l15.4,8.9v17.7l-5.9,3.4h2.1l4.4-2.5l4.4,2.5h2l-5.9-3.4v-17.7l15.4-8.9l15.4,8.9v17.7l-5.9,3.4h2.1l4.4-2.5l4.4,2.5
	h2.1l-5.9-3.4v-17.7l15.4-8.9l15.4,8.9v17.7l-5.9,3.4h2l4.4-2.5l4.4,2.5h2.1l-5.9-3.4v-17.7l15.4-8.9l15.4,8.9v17.7l-5.9,3.4h2
	l4.4-2.5l4.4,2.5h2.1l-5.9-3.4v-17.7l15.4-8.9l15.4,8.9v17.7l-5.9,3.4h2.1l4.4-2.5l4.4,2.5h2l-5.9-3.4v-17.7l15.2-8.8l15.5,9v17.6
	l-5.9,3.4h2l4.2-2.5l4.2,2.5h2.3l-5.9-3.4v-17.6l15.4-8.9l15.4,8.9v17.7l-5.7,3.3h2l4.1-2.4l4.1,2.4h2l-5.7-3.3v-17.7l15.4-8.9
	l15.4,8.9v17.7l-5.7,3.3h2.1l4.1-2.4l4.1,2.4h2.1l-5.7-3.3v-17.7l15.4-8.9l15.4,8.9v17.7l-5.7,3.3h2l4.1-2.4l4.1,2.4h2.1l-5.7-3.3
	v-17.7l15.4-8.9l15.4,8.9v17.7l-5.7,3.3h2.1l4.1-2.4l4.1,2.4h2l-5.7-3.3v-17.7l15.4-8.9l15.4,8.9v17.7l-5.7,3.3h2.1l4.1-2.4l4.1,2.4
	h2l-5.7-3.3v-17.7l15.4-8.9l15.4,8.9v17.7l-5.7,3.3h2.1l4.1-2.4l4.1,2.4h2.1l-5.7-3.3v-17.7l15.4-8.9l15.4,8.9v17.7l-5.7,3.3h2
	l4.1-2.4l4.1,2.4h2.1l-5.7-3.3v-17.7l15.4-8.9l15.4,8.9v17.7l-5.7,3.3h2.1l4.1-2.4l4.1,2.4h2l-5.7-3.3v-17.7l15.4-8.9l15.4,8.9v17.7
	l-5.7,3.3h2.1l4.1-2.4l4.1,2.4h2.1l-5.7-3.3v-17.7l15.4-8.9l15.4,8.9v17.7l-5.7,3.3h2l4.1-2.4l4.1,2.4h2.1l-5.7-3.3v-17.7l15.4-8.9
	l15.4,8.9v17.7l-5.7,3.3h2l4.1-2.4l4.1,2.4h2.1l-5.7-3.3v-17.7l15.4-8.9l15.4,8.9v17.7l-5.7,3.3h2.1l4.1-2.4l4.1,2.4h2l-5.7-3.3
	v-17.7l15.4-8.9l15.4,8.9v17.7l-5.7,3.3h2.1l4.1-2.4l4.1,2.4h2.1l-5.7-3.3v-17.7l15.4-8.9l15.4,8.9v17.7l-5.7,3.3h2l4.1-2.4l4.1,2.4
	h2.1l-5.7-3.3v-17.7l15.4-8.9l7.3,4.2V740l-6.8-3.9v-17.7l6.8-3.9v-1.2l-7.3,4.2l-15.4-8.9v-17.7l15.3-8.8l7.4,4.3V685l-6.8-3.9
	v-17.6l6.8-3.9v-1.2l-7.2,4.2l-15.5-9V636l15.4-8.9l7.3,4.2v-1.2l-6.8-3.9v-17.7l6.8-3.9v-1.2l-7.3,4.2l-15.4-8.9V581l15.4-8.9
	l7.3,4.2v-1.2l-6.8-3.9v-17.7l6.8-3.9v-1.2l-7.3,4.2l-15.4-8.9V526l15.4-8.9l7.3,4.2v-1.2l-6.8-3.9v-17.7l6.8-3.9v-1.2l-7.3,4.2
	l-15.4-8.9V471l15.4-8.9l7.3,4.2v-1.2l-6.8-3.9v-17.7l6.8-3.9v-1.2l-7.3,4.2l-15.4-8.9v-17.7l15.4-8.9l7.3,4.2v-1.3l-6.8-3.9v-17.8
	l6.8-3.9v-1.2l-7.3,4.2l-15.4-8.9v-17.7l15.4-8.9l7.3,4.2v-1.2l-6.8-3.9v-17.7l6.8-3.9v-1.2l-7.3,4.2l-15.4-8.9v-17.7l15.4-8.9
	l7.3,4.2v-1.2l-6.8-3.9v-17.7l6.8-3.9v-1.2l-7.3,4.2l-15.4-8.9v-17.7l15.4-8.9l7.3,4.2v-1.2l-6.8-3.9v-17.7l6.8-3.9v-1.2l-7.3,4.2
	l-15.4-8.9v-17.7l15.4-8.9l7.3,4.2v-1.2l-6.8-3.9v-17.7l6.8-3.9v-1.2l-7.3,4.2l-15.4-8.9v-17.7l15.4-8.9l7.3,4.2v-1.2l-6.8-3.9
	v-17.7l6.8-3.9v-1.2l-7.3,4.2l-15.4-8.9V85.7l15.4-8.9l7.3,4.2v-1.2l-6.8-3.9V58.2l6.8-3.9V53l-7.3,4.2l-15.4-8.9V30.7L1358.7,21.8z
	 M1311.5,30.7l15.4-8.9l15.4,8.9v17.7l-15.4,8.9l-15.4-8.9V30.7z M120,387.8l15.4-8.9l15.4,8.9v17.8l-15.4,8.9l-15.4-8.9V387.8z
	 M119.5,386.9l-15.4-8.9v-17.7l15.4-8.9l15.4,8.9v17.7L119.5,386.9z M135.9,378.1v-17.7l15.3-8.8l15.5,8.9v17.6l-15.4,8.9
	L135.9,378.1z M151.8,387.8l15.3-8.8l15.5,8.9v17.6l-15.4,8.9l-15.4-8.9V387.8z M167.7,378.1v-17.6l15.4-8.9l15.4,8.9v17.7
	l-15.3,8.8L167.7,378.1z M183.6,388l15.4-8.9l15.4,8.9v17.8l-15.4,8.9l-15.4-8.9V388z M199.4,378.2v-17.7l15.4-8.9l15.4,8.9v17.7
	l-15.4,8.9L199.4,378.2z M215.4,388l15.4-8.9l15.4,8.9v17.8l-15.4,8.9l-15.4-8.9V388z M231.2,378.2v-17.7l15.4-8.9l15.4,8.9v17.7
	l-15.4,8.9L231.2,378.2z M247.1,388l15.4-8.9l15.4,8.9v17.8l-15.4,8.9l-15.4-8.9V388z M263,378.2v-17.7l15.4-8.9l15.4,8.9v17.7
	l-15.4,8.9L263,378.2z M278.9,388l15.4-8.9l15.4,8.9v17.8l-15.4,8.9l-15.4-8.9V388z M294.8,378.2v-17.7l15.4-8.9l15.4,8.9v17.7
	l-15.4,8.9L294.8,378.2z M310.7,388l15.4-8.9l15.4,8.9v17.8l-15.4,8.9l-15.4-8.9V388z M326.5,378.2v-17.7l15.4-8.9l15.4,8.9v17.7
	l-15.4,8.9L326.5,378.2z M342.4,388l15.4-8.9l15.4,8.9v17.8l-15.4,8.9l-15.4-8.9V388z M358.3,378.2v-17.7l15.4-8.9l15.4,8.9v17.7
	l-15.4,8.9L358.3,378.2z M374.2,388l15.4-8.9L405,388v17.8l-15.4,8.9l-15.4-8.9V388z M390.1,378.2v-17.7l15.4-8.9l15.4,8.9v17.7
	l-15.4,8.9L390.1,378.2z M406,388l15.4-8.9l15.4,8.9v17.8l-15.4,8.9l-15.4-8.9V388z M421.9,378.2v-17.7l15.4-8.9l15.4,8.9v17.7
	l-15.4,8.9L421.9,378.2z M437.8,388l15.4-8.9l15.4,8.9v17.8l-15.4,8.9l-15.4-8.9V388z M453.6,378.2v-17.7l15.4-8.9l15.4,8.9v17.7
	l-15.4,8.9L453.6,378.2z M469.5,388l15.4-8.9l15.4,8.9v17.8l-15.4,8.9l-15.4-8.9V388z M485.4,378.2v-17.7l15.4-8.9l15.4,8.9v17.7
	l-15.4,8.9L485.4,378.2z M501.3,388l15.4-8.9l15.4,8.9v17.8l-15.4,8.9l-15.4-8.9V388z M517.2,378.2v-17.7l15.4-8.9l15.4,8.9v17.7
	l-15.4,8.9L517.2,378.2z M533.1,388l15.4-8.9l15.4,8.9v17.8l-15.4,8.9l-15.4-8.9V388z M549,378.2v-17.7l15.4-8.9l15.4,8.9v17.7
	l-15.4,8.9L549,378.2z M564.9,388l15.4-8.9l15.4,8.9v17.8l-15.4,8.9l-15.4-8.9V388z M580.7,378.2v-17.7l15.4-8.9l15.4,8.9v17.7
	l-15.4,8.9L580.7,378.2z M596.6,388l15.4-8.9l15.4,8.9v17.8l-15.4,8.9l-15.4-8.9V388z M612.5,378.2v-17.7l15.4-8.9l15.4,8.9v17.7
	l-15.4,8.9L612.5,378.2z M628.4,388l15.4-8.9l15.4,8.9v17.8l-15.4,8.9l-15.4-8.9V388z M644.3,378.2v-17.7l15.2-8.8l15.5,9v17.6
	l-15.4,8.9L644.3,378.2z M660.2,388l15.2-8.8l15.5,9v17.6l-15.4,8.9l-15.4-8.9V388z M676.1,378.2v-17.6l15.4-8.9l15.4,8.9v17.7
	l-15.2,8.8L676.1,378.2z M692,388.1l15.4-8.9l15.4,8.9v17.8l-15.4,8.9l-15.4-8.9V388.1z M707.8,378.3v-17.7l15.4-8.9l15.4,8.9v17.7
	l-15.4,8.9L707.8,378.3z M723.7,388.1l15.4-8.9l15.4,8.9v17.8l-15.4,8.9l-15.4-8.9V388.1z M739.6,378.3v-17.7l15.4-8.9l15.4,8.9
	v17.7l-15.4,8.9L739.6,378.3z M755.5,388.1l15.4-8.9l15.4,8.9v17.8l-15.4,8.9l-15.4-8.9V388.1z M771.4,378.3v-17.7l15.4-8.9
	l15.4,8.9v17.7l-15.4,8.9L771.4,378.3z M787.3,388.1l15.4-8.9l15.4,8.9v17.8l-15.4,8.9l-15.4-8.9V388.1z M803.1,378.3v-17.7
	l15.4-8.9l15.4,8.9v17.7l-15.4,8.9L803.1,378.3z M819,388.1l15.4-8.9l15.4,8.9v17.8l-15.4,8.9l-15.4-8.9V388.1z M834.9,378.3v-17.7
	l15.4-8.9l15.4,8.9v17.7l-15.4,8.9L834.9,378.3z M850.8,388.1l15.4-8.9l15.4,8.9v17.8l-15.4,8.9l-15.4-8.9V388.1z M866.7,378.3
	v-17.7l15.4-8.9l15.4,8.9v17.7l-15.4,8.9L866.7,378.3z M882.6,388.1l15.4-8.9l15.4,8.9v17.8l-15.4,8.9l-15.4-8.9V388.1z
	 M898.5,378.3v-17.7l15.4-8.9l15.4,8.9v17.7l-15.4,8.9L898.5,378.3z M914.4,388.1l15.4-8.9l15.4,8.9v17.8l-15.4,8.9l-15.4-8.9V388.1
	z M930.2,378.3v-17.7l15.4-8.9l15.4,8.9v17.7l-15.4,8.9L930.2,378.3z M946.1,388.1l15.4-8.9l15.4,8.9v17.8l-15.4,8.9l-15.4-8.9
	V388.1z M962,378.3v-17.7l15.4-8.9l15.4,8.9v17.7l-15.4,8.9L962,378.3z M977.9,388.1l15.4-8.9l15.4,8.9v17.8l-15.4,8.9l-15.4-8.9
	V388.1z M993.8,378.3v-17.7l15.4-8.9l15.4,8.9v17.7l-15.4,8.9L993.8,378.3z M1009.7,388.1l15.4-8.9l15.4,8.9v17.8l-15.4,8.9
	l-15.4-8.9V388.1z M1025.5,378.3v-17.7l15.4-8.9l15.4,8.9v17.7l-15.4,8.9L1025.5,378.3z M1041.5,388.1l15.4-8.9l15.4,8.9v17.8
	l-15.4,8.9l-15.4-8.9V388.1z M1057.3,378.3v-17.7l15.4-8.9l15.4,8.9v17.7l-15.4,8.9L1057.3,378.3z M1073.2,388.1l15.4-8.9l15.4,8.9
	v17.8l-15.4,8.9l-15.4-8.9V388.1z M1089.1,378.3v-17.7l15.4-8.9l15.4,8.9v17.7l-15.4,8.9L1089.1,378.3z M1105,388.1l15.4-8.9
	l15.4,8.9v17.8l-15.4,8.9l-15.4-8.9V388.1z M1120.9,378.3v-17.7l15.4-8.9l15.4,8.9v17.7l-15.4,8.9L1120.9,378.3z M1136.8,388.1
	l15.4-8.9l15.4,8.9v17.8l-15.4,8.9l-15.4-8.9V388.1z M1152.6,378.3v-17.7l15.3-8.8l15.5,8.9v17.6l-15.4,8.9L1152.6,378.3z
	 M1168.6,388.1l15.3-8.8l15.5,8.9v17.6l-15.4,8.9l-15.4-8.9V388.1z M1184.4,378.3v-17.6l15.4-8.9l15.4,8.9v17.7l-15.3,8.8
	L1184.4,378.3z M1200.3,388.2l15.4-8.9l15.4,8.9V406l-15.4,8.9l-15.4-8.9V388.2z M1216.2,378.5v-17.7l15.4-8.9l15.4,8.9v17.7
	l-15.4,8.9L1216.2,378.5z M1232.1,388.2l15.4-8.9l15.4,8.9V406l-15.4,8.9l-15.4-8.9V388.2z M1247.5,359.8l-15.4-8.9v-17.7l15.4-8.9
	l15.4,8.9V351L1247.5,359.8z M1246.9,323.5l-15.4,8.9l-15.4-8.9v-17.7l15.4-8.9l15.4,8.9V323.5z M1231.1,333.2V351l-15.4,8.9
	l-15.4-8.9v-17.7l15.4-8.9L1231.1,333.2z M1215.2,323.5l-15.4,8.9l-15.4-8.9v-17.7l15.4-8.9l15.4,8.9V323.5z M1199.3,333.2V351
	l-15.3,8.8l-15.5-8.9v-17.6l15.4-8.9L1199.3,333.2z M1183.4,323.5l-15.3,8.8l-15.5-8.9v-17.6l15.4-8.9l15.4,8.9V323.5z
	 M1167.5,333.2v17.6l-15.4,8.9l-15.4-8.9v-17.7l15.3-8.8L1167.5,333.2z M1151.6,323.3l-15.4,8.9l-15.4-8.9v-17.7l15.3-8.8l15.5,8.9
	V323.3z M1135.7,333.1v17.7l-15.4,8.9l-15.4-8.9v-17.7l15.4-8.9L1135.7,333.1z M1119.9,323.3l-15.4,8.9l-15.4-8.9v-17.7l15.4-8.9
	l15.4,8.9V323.3z M1104,333.1v17.7l-15.4,8.9l-15.4-8.9v-17.7l15.4-8.9L1104,333.1z M1088.1,323.3l-15.4,8.9l-15.4-8.9v-17.7
	l15.4-8.9l15.4,8.9V323.3z M1072.2,333.1v17.7l-15.4,8.9l-15.4-8.9v-17.7l15.4-8.9L1072.2,333.1z M1056.3,323.3l-15.4,8.9l-15.4-8.9
	v-17.7l15.4-8.9l15.4,8.9V323.3z M1040.4,333.1v17.7l-15.4,8.9l-15.4-8.9v-17.7l15.4-8.9L1040.4,333.1z M1024.5,323.3l-15.4,8.9
	l-15.4-8.9v-17.7l15.4-8.9l15.4,8.9V323.3z M1008.6,333.1v17.7l-15.4,8.9l-15.4-8.9v-17.7l15.4-8.9L1008.6,333.1z M992.8,323.3
	l-15.4,8.9l-15.4-8.9v-17.7l15.4-8.9l15.4,8.9V323.3z M976.9,333.1v17.7l-15.4,8.9l-15.4-8.9v-17.7l15.4-8.9L976.9,333.1z
	 M961,323.3l-15.4,8.9l-15.4-8.9v-17.7l15.4-8.9l15.4,8.9V323.3z M945.1,333.1v17.7l-15.4,8.9l-15.4-8.9v-17.7l15.4-8.9L945.1,333.1
	z M929.2,323.3l-15.4,8.9l-15.4-8.9v-17.7l15.4-8.9l15.4,8.9V323.3z M913.3,333.1v17.7l-15.4,8.9l-15.4-8.9v-17.7l15.4-8.9
	L913.3,333.1z M897.4,323.3l-15.4,8.9l-15.4-8.9v-17.7l15.4-8.9l15.4,8.9V323.3z M881.5,333.1v17.7l-15.4,8.9l-15.4-8.9v-17.7
	l15.4-8.9L881.5,333.1z M865.7,323.3l-15.4,8.9l-15.4-8.9v-17.7l15.4-8.9l15.4,8.9V323.3z M849.8,333.1v17.7l-15.4,8.9l-15.4-8.9
	v-17.7l15.4-8.9L849.8,333.1z M833.9,323.3l-15.4,8.9l-15.4-8.9v-17.7l15.4-8.9l15.4,8.9V323.3z M818,333.1v17.7l-15.4,8.9
	l-15.4-8.9v-17.7l15.4-8.9L818,333.1z M802.1,323.3l-15.4,8.9l-15.4-8.9v-17.7l15.4-8.9l15.4,8.9V323.3z M786.2,333.1v17.7
	l-15.4,8.9l-15.4-8.9v-17.7l15.4-8.9L786.2,333.1z M770.3,323.3l-15.4,8.9l-15.4-8.9v-17.7l15.4-8.9l15.4,8.9V323.3z M754.5,333.1
	v17.7l-15.4,8.9l-15.4-8.9v-17.7l15.4-8.9L754.5,333.1z M738.6,323.3l-15.4,8.9l-15.4-8.9v-17.7l15.4-8.9l15.4,8.9V323.3z
	 M722.7,333.1v17.7l-15.4,8.9l-15.4-8.9v-17.7l15.4-8.9L722.7,333.1z M706.8,323.3l-15.4,8.9l-15.4-8.9v-17.7l15.4-8.9l15.4,8.9
	V323.3z M690.9,333.1v17.7l-15.2,8.8l-15.5-9v-17.6l15.4-8.9L690.9,333.1z M675,323.3l-15.2,8.8l-15.5-9v-17.6l15.4-8.9l15.4,8.9
	V323.3z M659.1,333.1v17.6l-15.4,8.9l-15.4-8.9v-17.7l15.2-8.8L659.1,333.1z M643.2,323.2l-15.4,8.9l-15.4-8.9v-17.7l15.2-8.8
	l15.5,9V323.2z M627.4,332.9v17.7l-15.4,8.9l-15.4-8.9v-17.7l15.4-8.9L627.4,332.9z M611.5,323.2l-15.4,8.9l-15.4-8.9v-17.7
	l15.4-8.9l15.4,8.9V323.2z M595.6,332.9v17.7l-15.4,8.9l-15.4-8.9v-17.7l15.4-8.9L595.6,332.9z M579.7,323.2l-15.4,8.9l-15.4-8.9
	v-17.7l15.4-8.9l15.4,8.9V323.2z M563.8,332.9v17.7l-15.4,8.9l-15.4-8.9v-17.7l15.4-8.9L563.8,332.9z M547.9,323.2l-15.4,8.9
	l-15.4-8.9v-17.7l15.4-8.9l15.4,8.9V323.2z M532.1,332.9v17.7l-15.4,8.9l-15.4-8.9v-17.7l15.4-8.9L532.1,332.9z M516.2,323.2
	l-15.4,8.9l-15.4-8.9v-17.7l15.4-8.9l15.4,8.9V323.2z M500.3,332.9v17.7l-15.4,8.9l-15.4-8.9v-17.7l15.4-8.9L500.3,332.9z
	 M484.4,323.2L469,332l-15.4-8.9v-17.7l15.4-8.9l15.4,8.9V323.2z M468.5,332.9v17.7l-15.4,8.9l-15.4-8.9v-17.7l15.4-8.9L468.5,332.9
	z M452.6,323.2l-15.4,8.9l-15.4-8.9v-17.7l15.4-8.9l15.4,8.9V323.2z M436.7,332.9v17.7l-15.4,8.9l-15.4-8.9v-17.7l15.4-8.9
	L436.7,332.9z M420.8,323.2l-15.4,8.9l-15.4-8.9v-17.7l15.4-8.9l15.4,8.9V323.2z M405,332.9v17.7l-15.4,8.9l-15.4-8.9v-17.7
	l15.4-8.9L405,332.9z M389.1,323.2l-15.4,8.9l-15.4-8.9v-17.7l15.4-8.9l15.4,8.9V323.2z M373.2,332.9v17.7l-15.4,8.9l-15.4-8.9
	v-17.7l15.4-8.9L373.2,332.9z M357.3,323.2l-15.4,8.9l-15.4-8.9v-17.7l15.4-8.9l15.4,8.9V323.2z M341.4,332.9v17.7l-15.4,8.9
	l-15.4-8.9v-17.7l15.4-8.9L341.4,332.9z M325.5,323.2l-15.4,8.9l-15.4-8.9v-17.7l15.4-8.9l15.4,8.9V323.2z M309.6,332.9v17.7
	l-15.4,8.9l-15.4-8.9v-17.7l15.4-8.9L309.6,332.9z M293.7,323.2l-15.4,8.9l-15.4-8.9v-17.7l15.4-8.9l15.4,8.9V323.2z M277.9,332.9
	v17.7l-15.4,8.9l-15.4-8.9v-17.7l15.4-8.9L277.9,332.9z M262,323.2l-15.4,8.9l-15.4-8.9v-17.7l15.4-8.9l15.4,8.9V323.2z
	 M246.1,332.9v17.7l-15.4,8.9l-15.4-8.9v-17.7l15.4-8.9L246.1,332.9z M230.2,323.2l-15.4,8.9l-15.4-8.9v-17.7l15.4-8.9l15.4,8.9
	V323.2z M214.3,332.9v17.7l-15.4,8.9l-15.4-8.9v-17.7l15.4-8.9L214.3,332.9z M198.4,323.2L183,332l-15.4-8.9v-17.7l15.4-8.9
	l15.4,8.9V323.2z M182.5,332.9v17.7l-15.3,8.8l-15.5-9v-17.6l15.4-8.9L182.5,332.9z M166.7,323.2l-15.3,8.8l-15.5-8.9v-17.6
	l15.4-8.9l15.4,8.9V323.2z M150.8,332.9v17.6l-15.4,8.9l-15.4-8.9v-17.7l15.3-8.8L150.8,332.9z M134.9,323l-15.4,8.9l-15.4-8.9
	v-17.7l15.3-8.8l15.5,8.9V323z M119,332.8v17.7l-15.4,8.9l-15.4-8.9v-17.7l15.4-8.9L119,332.8z M103.6,378.9l15.4,8.9v17.8
	l-15.4,8.9l-15.4-8.9v-17.8L103.6,378.9z M119,443v17.7l-15.4,8.9l-15.4-8.9V443l15.4-8.9L119,443z M104.1,433.2v-17.7l15.4-8.9
	l15.4,8.9v17.7l-15.4,8.9L104.1,433.2z M120,443l15.4-8.9l15.4,8.9v17.7l-15.4,8.9l-15.4-8.9V443z M135.9,433.2v-17.7l15.4-8.9
	l15.4,8.9v17.7l-15.4,8.9L135.9,433.2z M151.8,443l15.4-8.9l15.4,8.9v17.7l-15.4,8.9l-15.4-8.9V443z M167.7,433.2v-17.7l15.4-8.9
	l15.4,8.9v17.7l-15.4,8.9L167.7,433.2z M183.6,443l15.3-8.8l15.5,9v17.6l-15.4,8.9l-15.4-8.9V443z M199.5,433.2v-17.6l15.4-8.9
	l15.4,8.9v17.7l-15.3,8.8L199.5,433.2z M215.4,443.2l15.4-8.9l15.4,8.9v17.7l-15.3,8.8l-15.5-8.9V443.2z M231.2,433.4v-17.7
	l15.4-8.9l15.4,8.9v17.7l-15.4,8.9L231.2,433.4z M247.1,443.2l15.4-8.9l15.4,8.9v17.7l-15.4,8.9l-15.4-8.9V443.2z M263,433.4v-17.7
	l15.4-8.9l15.4,8.9v17.7l-15.4,8.9L263,433.4z M278.9,443.2l15.4-8.9l15.4,8.9v17.7l-15.4,8.9l-15.4-8.9V443.2z M294.8,433.4v-17.7
	l15.4-8.9l15.4,8.9v17.7l-15.4,8.9L294.8,433.4z M310.7,443.2l15.4-8.9l15.4,8.9v17.7l-15.4,8.9l-15.4-8.9V443.2z M326.6,433.4
	v-17.7l15.4-8.9l15.4,8.9v17.7l-15.4,8.9L326.6,433.4z M342.4,443.2l15.4-8.9l15.4,8.9v17.7l-15.4,8.9l-15.4-8.9V443.2z
	 M358.3,433.4v-17.7l15.4-8.9l15.4,8.9v17.7l-15.4,8.9L358.3,433.4z M374.2,443.2l15.4-8.9l15.4,8.9v17.7l-15.4,8.9l-15.4-8.9V443.2
	z M390.1,433.4v-17.7l15.4-8.9l15.4,8.9v17.7l-15.4,8.9L390.1,433.4z M406,443.2l15.4-8.9l15.4,8.9v17.7l-15.4,8.9l-15.4-8.9V443.2z
	 M421.9,433.4v-17.7l15.4-8.9l15.4,8.9v17.7l-15.4,8.9L421.9,433.4z M437.8,443.2l15.4-8.9l15.4,8.9v17.7l-15.4,8.9l-15.4-8.9V443.2
	z M453.7,433.4v-17.7l15.4-8.9l15.4,8.9v17.7l-15.4,8.9L453.7,433.4z M469.5,443.2l15.4-8.9l15.4,8.9v17.7l-15.4,8.9l-15.4-8.9
	V443.2z M485.4,433.4v-17.7l15.4-8.9l15.4,8.9v17.7l-15.4,8.9L485.4,433.4z M501.3,443.2l15.4-8.9l15.4,8.9v17.7l-15.4,8.9
	l-15.4-8.9V443.2z M517.2,433.4v-17.7l15.4-8.9l15.4,8.9v17.7l-15.4,8.9L517.2,433.4z M533.1,443.2l15.4-8.9l15.4,8.9v17.7
	l-15.4,8.9l-15.4-8.9V443.2z M549,433.4v-17.7l15.4-8.9l15.4,8.9v17.7l-15.4,8.9L549,433.4z M564.9,443.2l15.4-8.9l15.4,8.9v17.7
	l-15.4,8.9l-15.4-8.9V443.2z M580.8,433.4v-17.7l15.4-8.9l15.4,8.9v17.7l-15.4,8.9L580.8,433.4z M596.6,443.2l15.4-8.9l15.4,8.9
	v17.7l-15.4,8.9l-15.4-8.9V443.2z M612.5,433.4v-17.7l15.4-8.9l15.4,8.9v17.7l-15.4,8.9L612.5,433.4z M628.4,443.2l15.4-8.9
	l15.4,8.9v17.7l-15.4,8.9l-15.4-8.9V443.2z M644.3,433.4v-17.7l15.4-8.9l15.4,8.9v17.7l-15.4,8.9L644.3,433.4z M660.2,443.2
	l15.4-8.9l15.4,8.9v17.7l-15.4,8.9l-15.4-8.9V443.2z M676.1,433.4v-17.7l15.4-8.9l15.4,8.9v17.8l-15.4,8.9L676.1,433.4z M692,443.2
	l15.2-8.8l15.5,9v17.6l-15.4,8.9l-15.4-8.9V443.2z M707.8,433.4v-17.6l15.4-8.9l15.4,8.9v17.7l-15.2,8.8L707.8,433.4z M723.7,443.3
	l15.4-8.9l15.4,8.9V461l-15.2,8.8l-15.5-9V443.3z M739.6,433.5v-17.7l15.4-8.9l15.4,8.9v17.7l-15.4,8.9L739.6,433.5z M755.5,443.3
	l15.4-8.9l15.4,8.9V461l-15.4,8.9l-15.4-8.9V443.3z M771.4,433.5v-17.7l15.4-8.9l15.4,8.9v17.7l-15.4,8.9L771.4,433.5z M787.3,443.3
	l15.4-8.9l15.4,8.9V461l-15.4,8.9l-15.4-8.9V443.3z M803.2,433.5v-17.7l15.4-8.9l15.4,8.9v17.7l-15.4,8.9L803.2,433.5z M819,443.3
	l15.4-8.9l15.4,8.9V461l-15.4,8.9L819,461V443.3z M834.9,433.5v-17.7l15.4-8.9l15.4,8.9v17.7l-15.4,8.9L834.9,433.5z M850.8,443.3
	l15.4-8.9l15.4,8.9V461l-15.4,8.9l-15.4-8.9V443.3z M866.7,433.5v-17.7l15.4-8.9l15.4,8.9v17.7l-15.4,8.9L866.7,433.5z M882.6,443.3
	l15.4-8.9l15.4,8.9V461l-15.4,8.9l-15.4-8.9V443.3z M898.5,433.5v-17.7l15.4-8.9l15.4,8.9v17.7l-15.4,8.9L898.5,433.5z M914.4,443.3
	l15.4-8.9l15.4,8.9V461l-15.4,8.9l-15.4-8.9V443.3z M930.2,433.5v-17.7l15.4-8.9l15.4,8.9v17.7l-15.4,8.9L930.2,433.5z M946.1,443.3
	l15.4-8.9l15.4,8.9V461l-15.4,8.9l-15.4-8.9V443.3z M962,433.5v-17.7l15.4-8.9l15.4,8.9v17.7l-15.4,8.9L962,433.5z M977.9,443.3
	l15.4-8.9l15.4,8.9V461l-15.4,8.9l-15.4-8.9V443.3z M993.8,433.5v-17.7l15.4-8.9l15.4,8.9v17.7l-15.4,8.9L993.8,433.5z
	 M1009.7,443.3l15.4-8.9l15.4,8.9V461l-15.4,8.9l-15.4-8.9V443.3z M1025.6,433.5v-17.7l15.4-8.9l15.4,8.9v17.7l-15.4,8.9
	L1025.6,433.5z M1041.5,443.3l15.4-8.9l15.4,8.9V461l-15.4,8.9l-15.4-8.9V443.3z M1057.3,433.5v-17.7l15.4-8.9l15.4,8.9v17.7
	l-15.4,8.9L1057.3,433.5z M1073.2,443.3l15.4-8.9l15.4,8.9V461l-15.4,8.9l-15.4-8.9V443.3z M1089.1,433.5v-17.7l15.4-8.9l15.4,8.9
	v17.7l-15.4,8.9L1089.1,433.5z M1105,443.3l15.4-8.9l15.4,8.9V461l-15.4,8.9L1105,461V443.3z M1120.9,433.5v-17.7l15.4-8.9l15.4,8.9
	v17.7l-15.4,8.9L1120.9,433.5z M1136.8,443.3l15.4-8.9l15.4,8.9V461l-15.4,8.9l-15.4-8.9V443.3z M1152.7,433.5v-17.7l15.4-8.9
	l15.4,8.9v17.7l-15.4,8.9L1152.7,433.5z M1168.6,443.3l15.4-8.9l15.4,8.9V461l-15.4,8.9l-15.4-8.9V443.3z M1184.4,433.5v-17.7
	l15.4-8.9l15.4,8.9v17.7l-15.4,8.9L1184.4,433.5z M1200.3,443.3l15.3-8.8l15.5,9V461l-15.4,8.9l-15.4-8.9V443.3z M1216.2,433.5
	v-17.6l15.4-8.9l15.4,8.9v17.7l-15.3,8.8L1216.2,433.5z M1232.1,443.5l15.4-8.9l15.4,8.9v17.7l-15.3,8.8l-15.5-9V443.5z M1248,433.7
	v-17.7l15.4-8.9l15.4,8.9v17.7l-15.4,8.9L1248,433.7z M1263.3,387.4l-15.4-8.9v-17.7l15.4-8.9l15.4,8.9v17.7L1263.3,387.4z
	 M1248,323.5v-17.7l15.4-8.9l15.4,8.9v17.7l-15.4,8.9L1248,323.5z M1248,268.4v-17.7l15.4-8.9l15.4,8.9v17.7l-15.4,8.9L1248,268.4z
	 M1262.8,278.2v17.7l-15.4,8.9l-15.4-8.9v-17.7l15.4-8.9L1262.8,278.2z M1246.9,268.4l-15.4,8.9l-15.4-8.9v-17.7l15.4-8.9l15.4,8.9
	V268.4z M1231.1,278.2v17.7l-15.4,8.9l-15.4-8.9v-17.7l15.4-8.9L1231.1,278.2z M1215.2,268.4l-15.4,8.9l-15.4-8.9v-17.7l15.4-8.9
	l15.4,8.9V268.4z M1199.3,278.2v17.7l-15.4,8.9l-15.4-8.9v-17.7l15.4-8.9L1199.3,278.2z M1183.4,268.4l-15.4,8.9l-15.4-8.9v-17.7
	l15.4-8.9l15.4,8.9V268.4z M1167.5,278.2v17.7l-15.3,8.8l-15.5-8.9v-17.6l15.4-8.9L1167.5,278.2z M1151.6,268.4l-15.3,8.8l-15.5-8.9
	v-17.6l15.4-8.9l15.4,8.9V268.4z M1135.7,278.2v17.6l-15.4,8.9l-15.4-8.9v-17.7l15.3-8.8L1135.7,278.2z M1119.9,268.3l-15.4,8.9
	l-15.4-8.9v-17.7l15.3-8.8l15.5,9V268.3z M1104,278.1v17.7l-15.4,8.9l-15.4-8.9v-17.7l15.4-8.9L1104,278.1z M1088.1,268.3l-15.4,8.9
	l-15.4-8.9v-17.7l15.4-8.9l15.4,8.9V268.3z M1072.2,278.1v17.7l-15.4,8.9l-15.4-8.9v-17.7l15.4-8.9L1072.2,278.1z M1056.3,268.3
	l-15.4,8.9l-15.4-8.9v-17.7l15.4-8.9l15.4,8.9V268.3z M1040.4,278.1v17.7l-15.4,8.9l-15.4-8.9v-17.7l15.4-8.9L1040.4,278.1z
	 M1024.5,268.3l-15.4,8.9l-15.4-8.9v-17.7l15.4-8.9l15.4,8.9V268.3z M1008.6,278.1v17.7l-15.4,8.9l-15.4-8.9v-17.7l15.4-8.9
	L1008.6,278.1z M992.8,268.3l-15.4,8.9l-15.4-8.9v-17.7l15.4-8.9l15.4,8.9V268.3z M976.9,278.1v17.7l-15.4,8.9l-15.4-8.9v-17.7
	l15.4-8.9L976.9,278.1z M961,268.3l-15.4,8.9l-15.4-8.9v-17.7l15.4-8.9l15.4,8.9V268.3z M945.1,278.1v17.7l-15.4,8.9l-15.4-8.9
	v-17.7l15.4-8.9L945.1,278.1z M929.2,268.3l-15.4,8.9l-15.4-8.9v-17.7l15.4-8.9l15.4,8.9V268.3z M913.3,278.1v17.7l-15.4,8.9
	l-15.4-8.9v-17.7l15.4-8.9L913.3,278.1z M897.4,268.3l-15.4,8.9l-15.4-8.9v-17.7l15.4-8.9l15.4,8.9V268.3z M881.5,278.1v17.7
	l-15.4,8.9l-15.4-8.9v-17.7l15.4-8.9L881.5,278.1z M865.7,268.3l-15.4,8.9l-15.4-8.9v-17.7l15.4-8.9l15.4,8.9V268.3z M849.8,278.1
	v17.7l-15.4,8.9l-15.4-8.9v-17.7l15.4-8.9L849.8,278.1z M833.9,268.3l-15.4,8.9l-15.4-8.9v-17.7l15.4-8.9l15.4,8.9V268.3z
	 M818,278.1v17.7l-15.4,8.9l-15.4-8.9v-17.7l15.4-8.9L818,278.1z M802.1,268.3l-15.4,8.9l-15.4-8.9v-17.7l15.4-8.9l15.4,8.9V268.3z
	 M786.2,278.1v17.7l-15.4,8.9l-15.4-8.9v-17.7l15.4-8.9L786.2,278.1z M770.3,268.3l-15.4,8.9l-15.4-8.9v-17.7l15.4-8.9l15.4,8.9
	V268.3z M754.5,278.1v17.7l-15.4,8.9l-15.4-8.9v-17.7l15.4-8.9L754.5,278.1z M738.6,268.3l-15.4,8.9l-15.4-8.9v-17.7l15.4-8.9
	l15.4,8.9V268.3z M722.7,278.1v17.7l-15.4,8.9l-15.4-8.9v-17.7l15.4-8.9L722.7,278.1z M706.8,268.3l-15.4,8.9l-15.4-8.9v-17.7
	l15.4-8.9l15.4,8.9V268.3z M690.9,278.1v17.7l-15.4,8.9l-15.4-8.9v-17.7l15.4-8.9L690.9,278.1z M675,268.3l-15.4,8.9l-15.4-8.9
	v-17.7l15.4-8.9l15.4,8.9V268.3z M659.1,278.1v17.7l-15.2,8.8l-15.5-9v-17.6l15.4-8.9L659.1,278.1z M643.2,268.3l-15.2,8.8l-15.5-9
	v-17.6l15.4-8.9l15.4,8.9V268.3z M627.4,278.1v17.6l-15.4,8.9l-15.4-8.9v-17.7l15.2-8.8L627.4,278.1z M611.5,268.2l-15.4,8.9
	l-15.4-8.9v-17.7l15.2-8.8l15.5,9V268.2z M595.6,277.9v17.7l-15.4,8.9l-15.4-8.9v-17.7l15.4-8.9L595.6,277.9z M579.7,268.1
	l-15.4,8.9l-15.4-8.9v-17.7l15.4-8.9l15.4,8.9V268.1z M563.8,277.9v17.7l-15.4,8.9l-15.4-8.9v-17.7l15.4-8.9L563.8,277.9z
	 M547.9,268.1l-15.4,8.9l-15.4-8.9v-17.7l15.4-8.9l15.4,8.9V268.1z M532.1,277.9v17.7l-15.4,8.9l-15.4-8.9v-17.7l15.4-8.9
	L532.1,277.9z M516.2,268.1l-15.4,8.9l-15.4-8.9v-17.7l15.4-8.9l15.4,8.9V268.1z M500.3,277.9v17.7l-15.4,8.9l-15.4-8.9v-17.7
	l15.4-8.9L500.3,277.9z M484.4,268.1L469,277l-15.4-8.9v-17.7l15.4-8.9l15.4,8.9V268.1z M468.5,277.9v17.7l-15.4,8.9l-15.4-8.9
	v-17.7l15.4-8.9L468.5,277.9z M452.6,268.1l-15.4,8.9l-15.4-8.9v-17.7l15.4-8.9l15.4,8.9V268.1z M436.7,277.9v17.7l-15.4,8.9
	l-15.4-8.9v-17.7l15.4-8.9L436.7,277.9z M420.8,268.1l-15.4,8.9l-15.4-8.9v-17.7l15.4-8.9l15.4,8.9V268.1z M405,277.9v17.7
	l-15.4,8.9l-15.4-8.9v-17.7l15.4-8.9L405,277.9z M389.1,268.1l-15.4,8.9l-15.4-8.9v-17.7l15.4-8.9l15.4,8.9V268.1z M373.2,277.9
	v17.7l-15.4,8.9l-15.4-8.9v-17.7l15.4-8.9L373.2,277.9z M357.3,268.1l-15.4,8.9l-15.4-8.9v-17.7l15.4-8.9l15.4,8.9V268.1z
	 M341.4,277.9v17.7l-15.4,8.9l-15.4-8.9v-17.7L326,269L341.4,277.9z M325.5,268.1l-15.4,8.9l-15.4-8.9v-17.7l15.4-8.9l15.4,8.9
	V268.1z M309.6,277.9v17.7l-15.4,8.9l-15.4-8.9v-17.7l15.4-8.9L309.6,277.9z M293.7,268.1l-15.4,8.9l-15.4-8.9v-17.7l15.4-8.9
	l15.4,8.9V268.1z M277.9,277.9v17.7l-15.4,8.9l-15.4-8.9v-17.7l15.4-8.9L277.9,277.9z M262,268.1l-15.4,8.9l-15.4-8.9v-17.7
	l15.4-8.9l15.4,8.9V268.1z M246.1,277.9v17.7l-15.4,8.9l-15.4-8.9v-17.7l15.4-8.9L246.1,277.9z M230.2,268.1l-15.4,8.9l-15.4-8.9
	v-17.7l15.4-8.9l15.4,8.9V268.1z M214.3,277.9v17.7l-15.4,8.9l-15.4-8.9v-17.7l15.4-8.9L214.3,277.9z M198.4,268.1L183,277
	l-15.4-8.9v-17.7l15.4-8.9l15.4,8.9V268.1z M182.5,277.9v17.7l-15.4,8.9l-15.4-8.9v-17.7l15.4-8.9L182.5,277.9z M166.7,268.1
	l-15.4,8.9l-15.4-8.9v-17.7l15.4-8.9l15.4,8.9V268.1z M150.8,277.9v17.7l-15.3,8.8l-15.5-8.9v-17.6l15.4-8.9L150.8,277.9z
	 M134.9,268.1l-15.3,8.8l-15.5-8.9v-17.6l15.4-8.9l15.4,8.9V268.1z M119,277.9v17.6l-15.4,8.9l-15.4-8.9v-17.7l15.3-8.8L119,277.9z
	 M103.1,268l-15.4,8.9L72.3,268v-17.7l15.3-8.8l15.5,8.9V268z M103.1,305.3V323l-15.4,8.9L72.3,323v-17.7l15.4-8.9L103.1,305.3z
	 M103.1,360.3v17.7l-15.4,8.9l-15.4-8.9v-17.7l15.4-8.9L103.1,360.3z M87.7,406.6l15.4,8.9v17.7l-15.4,8.9l-15.4-8.9v-17.7
	L87.7,406.6z M103.1,470.5v17.7l-15.4,8.9l-15.4-8.9v-17.7l15.4-8.9L103.1,470.5z M88.3,498l15.4-8.9L119,498v17.7l-15.4,8.9
	l-15.4-8.9V498z M104.1,488.3v-17.7l15.4-8.9l15.4,8.9v17.7l-15.4,8.9L104.1,488.3z M120,498l15.4-8.9l15.4,8.9v17.7l-15.4,8.9
	l-15.4-8.9V498z M135.9,488.3v-17.7l15.4-8.9l15.4,8.9v17.7l-15.4,8.9L135.9,488.3z M151.8,498l15.4-8.9l15.4,8.9v17.7l-15.4,8.9
	l-15.4-8.9V498z M167.7,488.3v-17.7l15.4-8.9l15.4,8.9v17.7l-15.4,8.9L167.7,488.3z M183.6,498l15.4-8.9l15.4,8.9v17.7l-15.4,8.9
	l-15.4-8.9V498z M199.5,488.3v-17.7l15.3-8.8l15.5,9v17.6l-15.4,8.9L199.5,488.3z M215.4,498l15.3-8.8l15.5,8.9v17.6l-15.4,8.9
	l-15.4-8.9V498z M231.2,488.3v-17.6l15.4-8.9l15.4,8.9v17.7l-15.3,8.8L231.2,488.3z M247.1,498.2l15.4-8.9l15.4,8.9v17.7l-15.3,8.8
	l-15.5-8.9V498.2z M263,488.4v-17.7l15.4-8.9l15.4,8.9v17.7l-15.4,8.9L263,488.4z M278.9,498.2l15.4-8.9l15.4,8.9v17.7l-15.4,8.9
	l-15.4-8.9V498.2z M294.8,488.4v-17.7l15.4-8.9l15.4,8.9v17.7l-15.4,8.9L294.8,488.4z M310.7,498.2l15.4-8.9l15.4,8.9v17.7
	l-15.4,8.9l-15.4-8.9V498.2z M326.6,488.4v-17.7l15.4-8.9l15.4,8.9v17.7l-15.4,8.9L326.6,488.4z M342.4,498.2l15.4-8.9l15.4,8.9
	v17.7l-15.4,8.9l-15.4-8.9V498.2z M358.3,488.4v-17.7l15.4-8.9l15.4,8.9v17.7l-15.4,8.9L358.3,488.4z M374.2,498.2l15.4-8.9
	l15.4,8.9v17.7l-15.4,8.9l-15.4-8.9V498.2z M390.1,488.4v-17.7l15.4-8.9l15.4,8.9v17.7l-15.4,8.9L390.1,488.4z M406,498.2l15.4-8.9
	l15.4,8.9v17.7l-15.4,8.9l-15.4-8.9V498.2z M421.9,488.4v-17.7l15.4-8.9l15.4,8.9v17.7l-15.4,8.9L421.9,488.4z M437.8,498.2
	l15.4-8.9l15.4,8.9v17.7l-15.4,8.9l-15.4-8.9V498.2z M453.7,488.4v-17.7l15.4-8.9l15.4,8.9v17.7l-15.4,8.9L453.7,488.4z
	 M469.5,498.2l15.4-8.9l15.4,8.9v17.7l-15.4,8.9l-15.4-8.9V498.2z M485.4,488.4v-17.7l15.4-8.9l15.4,8.9v17.7l-15.4,8.9L485.4,488.4
	z M501.3,498.2l15.4-8.9l15.4,8.9v17.7l-15.4,8.9l-15.4-8.9V498.2z M517.2,488.4v-17.7l15.4-8.9l15.4,8.9v17.7l-15.4,8.9
	L517.2,488.4z M533.1,498.2l15.4-8.9l15.4,8.9v17.7l-15.4,8.9l-15.4-8.9V498.2z M549,488.4v-17.7l15.4-8.9l15.4,8.9v17.7l-15.4,8.9
	L549,488.4z M564.9,498.2l15.4-8.9l15.4,8.9v17.7l-15.4,8.9l-15.4-8.9V498.2z M580.8,488.4v-17.7l15.4-8.9l15.4,8.9v17.7l-15.4,8.9
	L580.8,488.4z M596.6,498.2l15.4-8.9l15.4,8.9v17.7l-15.4,8.9l-15.4-8.9V498.2z M612.5,488.4v-17.7l15.4-8.9l15.4,8.9v17.7
	l-15.4,8.9L612.5,488.4z M628.4,498.2l15.4-8.9l15.4,8.9v17.7l-15.4,8.9l-15.4-8.9V498.2z M644.3,488.4v-17.7l15.4-8.9l15.4,8.9
	v17.7l-15.4,8.9L644.3,488.4z M660.2,498.2l15.4-8.9l15.4,8.9v17.7l-15.4,8.9l-15.4-8.9V498.2z M676.1,488.4v-17.7l15.4-8.9
	l15.4,8.9v17.7l-15.4,8.9L676.1,488.4z M692,498.2l15.4-8.9l15.4,8.9v17.7l-15.4,8.9l-15.4-8.9V498.2z M707.8,488.4v-17.7l15.2-8.8
	l15.5,9v17.6l-15.4,8.9L707.8,488.4z M723.7,498.2l15.2-8.8l15.5,9v17.6l-15.4,8.9l-15.4-8.9V498.2z M739.6,488.4v-17.6l15.4-8.9
	l15.4,8.9v17.7l-15.2,8.8L739.6,488.4z M755.5,498.3l15.4-8.9l15.4,8.9v17.7l-15.2,8.8l-15.5-9V498.3z M771.4,488.6v-17.7l15.4-8.9
	l15.4,8.9v17.7l-15.4,8.9L771.4,488.6z M787.3,498.3l15.4-8.9l15.4,8.9v17.7l-15.4,8.9l-15.4-8.9V498.3z M803.2,488.6v-17.7
	l15.4-8.9l15.4,8.9v17.7l-15.4,8.9L803.2,488.6z M819,498.3l15.4-8.9l15.4,8.9v17.7l-15.4,8.9l-15.4-8.9V498.3z M834.9,488.6v-17.7
	l15.4-8.9l15.4,8.9v17.7l-15.4,8.9L834.9,488.6z M850.8,498.3l15.4-8.9l15.4,8.9v17.7l-15.4,8.9l-15.4-8.9V498.3z M866.7,488.6
	v-17.7l15.4-8.9l15.4,8.9v17.7l-15.4,8.9L866.7,488.6z M882.6,498.3l15.4-8.9l15.4,8.9v17.7l-15.4,8.9l-15.4-8.9V498.3z
	 M898.5,488.6v-17.7l15.4-8.9l15.4,8.9v17.7l-15.4,8.9L898.5,488.6z M914.4,498.3l15.4-8.9l15.4,8.9v17.7l-15.4,8.9l-15.4-8.9V498.3
	z M930.2,488.6v-17.7l15.4-8.9l15.4,8.9v17.7l-15.4,8.9L930.2,488.6z M946.1,498.3l15.4-8.9l15.4,8.9v17.7l-15.4,8.9l-15.4-8.9
	V498.3z M962,488.6v-17.7l15.4-8.9l15.4,8.9v17.7l-15.4,8.9L962,488.6z M977.9,498.3l15.4-8.9l15.4,8.9v17.7l-15.4,8.9l-15.4-8.9
	V498.3z M993.8,488.6v-17.7l15.4-8.9l15.4,8.9v17.7l-15.4,8.9L993.8,488.6z M1009.7,498.3l15.4-8.9l15.4,8.9v17.7l-15.4,8.9
	l-15.4-8.9V498.3z M1025.6,488.6v-17.7l15.4-8.9l15.4,8.9v17.7l-15.4,8.9L1025.6,488.6z M1041.5,498.3l15.4-8.9l15.4,8.9v17.7
	l-15.4,8.9l-15.4-8.9V498.3z M1057.3,488.6v-17.7l15.4-8.9l15.4,8.9v17.7l-15.4,8.9L1057.3,488.6z M1073.2,498.3l15.4-8.9l15.4,8.9
	v17.7l-15.4,8.9l-15.4-8.9V498.3z M1089.1,488.6v-17.7l15.4-8.9l15.4,8.9v17.7l-15.4,8.9L1089.1,488.6z M1105,498.3l15.4-8.9
	l15.4,8.9v17.7l-15.4,8.9l-15.4-8.9V498.3z M1120.9,488.6v-17.7l15.4-8.9l15.4,8.9v17.7l-15.4,8.9L1120.9,488.6z M1136.8,498.3
	l15.4-8.9l15.4,8.9v17.7l-15.4,8.9l-15.4-8.9V498.3z M1152.7,488.6v-17.7l15.4-8.9l15.4,8.9v17.7l-15.4,8.9L1152.7,488.6z
	 M1168.6,498.3l15.4-8.9l15.4,8.9v17.7l-15.4,8.9l-15.4-8.9V498.3z M1184.4,488.6v-17.7l15.4-8.9l15.4,8.9v17.7l-15.4,8.9
	L1184.4,488.6z M1200.3,498.3l15.4-8.9l15.4,8.9v17.7l-15.4,8.9l-15.4-8.9V498.3z M1216.2,488.6v-17.7l15.3-8.8l15.5,9v17.6
	l-15.4,8.9L1216.2,488.6z M1232.1,498.3l15.3-8.8l15.5,9v17.6l-15.4,8.9l-15.4-8.9V498.3z M1248,488.6V471l15.4-8.9l15.4,8.9v17.7
	l-15.3,8.8L1248,488.6z M1263.9,498.5l15.4-8.9l15.4,8.9v17.7l-15.3,8.8l-15.5-8.9V498.5z M1263.9,461.2v-17.7l15.4-8.9l15.4,8.9
	v17.7l-15.4,8.9L1263.9,461.2z M1263.9,406v-17.8l15.4-8.9l15.4,8.9V406l-15.4,8.9L1263.9,406z M1279.2,359.8l-15.4-8.9v-17.7
	l15.4-8.9l15.4,8.9V351L1279.2,359.8z M1263.9,295.9v-17.7l15.4-8.9l15.4,8.9v17.7l-15.4,8.9L1263.9,295.9z M1263.9,240.9v-17.7
	l15.4-8.9l15.4,8.9v17.7l-15.4,8.9L1263.9,240.9z M1278.7,213.4l-15.4,8.9l-15.4-8.9v-17.7l15.4-8.9l15.4,8.9V213.4z M1262.8,223.2
	v17.7l-15.4,8.9l-15.4-8.9v-17.7l15.4-8.9L1262.8,223.2z M1246.9,213.4l-15.4,8.9l-15.4-8.9v-17.7l15.4-8.9l15.4,8.9V213.4z
	 M1231.1,223.2v17.7l-15.4,8.9l-15.4-8.9v-17.7l15.4-8.9L1231.1,223.2z M1215.2,213.4l-15.4,8.9l-15.4-8.9v-17.7l15.4-8.9l15.4,8.9
	V213.4z M1199.3,223.2v17.7l-15.4,8.9l-15.4-8.9v-17.7l15.4-8.9L1199.3,223.2z M1183.4,213.4l-15.4,8.9l-15.4-8.9v-17.7l15.4-8.9
	l15.4,8.9V213.4z M1167.5,223.2v17.7l-15.4,8.9l-15.4-8.9v-17.7l15.4-8.9L1167.5,223.2z M1151.6,213.4l-15.4,8.9l-15.4-8.9v-17.7
	l15.4-8.9l15.4,8.9V213.4z M1135.7,223.2v17.7l-15.3,8.8l-15.5-8.9v-17.6l15.4-8.9L1135.7,223.2z M1119.9,213.4l-15.3,8.8l-15.5-9
	v-17.6l15.4-8.9l15.4,8.9V213.4z M1104,223.2v17.6l-15.4,8.9l-15.4-8.9v-17.7l15.3-8.8L1104,223.2z M1088.1,213.3l-15.4,8.9
	l-15.4-8.9v-17.7l15.3-8.8l15.5,9V213.3z M1072.2,223.1v17.7l-15.4,8.9l-15.4-8.9v-17.7l15.4-8.9L1072.2,223.1z M1056.3,213.3
	l-15.4,8.9l-15.4-8.9v-17.7l15.4-8.9l15.4,8.9V213.3z M1040.4,223.1v17.7l-15.4,8.9l-15.4-8.9v-17.7l15.4-8.9L1040.4,223.1z
	 M1024.5,213.3l-15.4,8.9l-15.4-8.9v-17.7l15.4-8.9l15.4,8.9V213.3z M1008.6,223.1v17.7l-15.4,8.9l-15.4-8.9v-17.7l15.4-8.9
	L1008.6,223.1z M992.8,213.3l-15.4,8.9l-15.4-8.9v-17.7l15.4-8.9l15.4,8.9V213.3z M976.9,223.1v17.7l-15.4,8.9l-15.4-8.9v-17.7
	l15.4-8.9L976.9,223.1z M961,213.3l-15.4,8.9l-15.4-8.9v-17.7l15.4-8.9l15.4,8.9V213.3z M945.1,223.1v17.7l-15.4,8.9l-15.4-8.9
	v-17.7l15.4-8.9L945.1,223.1z M929.2,213.3l-15.4,8.9l-15.4-8.9v-17.7l15.4-8.9l15.4,8.9V213.3z M913.3,223.1v17.7l-15.4,8.9
	l-15.4-8.9v-17.7l15.4-8.9L913.3,223.1z M897.4,213.3l-15.4,8.9l-15.4-8.9v-17.7l15.4-8.9l15.4,8.9V213.3z M881.5,223.1v17.7
	l-15.4,8.9l-15.4-8.9v-17.7l15.4-8.9L881.5,223.1z M865.7,213.3l-15.4,8.9l-15.4-8.9v-17.7l15.4-8.9l15.4,8.9V213.3z M849.8,223.1
	v17.7l-15.4,8.9l-15.4-8.9v-17.7l15.4-8.9L849.8,223.1z M833.9,213.3l-15.4,8.9l-15.4-8.9v-17.7l15.4-8.9l15.4,8.9V213.3z
	 M818,223.1v17.7l-15.4,8.9l-15.4-8.9v-17.7l15.4-8.9L818,223.1z M802.1,213.3l-15.4,8.9l-15.4-8.9v-17.7l15.4-8.9l15.4,8.9V213.3z
	 M786.2,223.1v17.7l-15.4,8.9l-15.4-8.9v-17.7l15.4-8.9L786.2,223.1z M770.3,213.3l-15.4,8.9l-15.4-8.9v-17.7l15.4-8.9l15.4,8.9
	V213.3z M754.5,223.1v17.7l-15.4,8.9l-15.4-8.9v-17.7l15.4-8.9L754.5,223.1z M738.6,213.3l-15.4,8.9l-15.4-8.9v-17.7l15.4-8.9
	l15.4,8.9V213.3z M722.7,223.1v17.7l-15.4,8.9l-15.4-8.9v-17.7l15.4-8.9L722.7,223.1z M706.8,213.3l-15.4,8.9l-15.4-8.9v-17.7
	l15.4-8.9l15.4,8.9V213.3z M690.9,223.1v17.7l-15.4,8.9l-15.4-8.9v-17.7l15.4-8.9L690.9,223.1z M675,213.3l-15.4,8.9l-15.4-8.9
	v-17.7l15.4-8.9l15.4,8.9V213.3z M659.1,223.1v17.7l-15.4,8.9l-15.4-8.9v-17.7l15.4-8.9L659.1,223.1z M643.2,213.3l-15.4,8.9
	l-15.4-8.9v-17.7l15.4-8.9l15.4,8.9V213.3z M627.4,223.1v17.7l-15.2,8.8l-15.5-9v-17.6l15.4-8.9L627.4,223.1z M611.5,213.3
	l-15.2,8.8l-15.5-9v-17.6l15.4-8.9l15.4,8.9V213.3z M595.6,223.1v17.6l-15.4,8.9l-15.4-8.9v-17.7l15.2-8.8L595.6,223.1z
	 M579.7,213.1l-15.4,8.9l-15.4-8.9v-17.7l15.2-8.8l15.5,9V213.1z M563.8,222.9v17.7l-15.4,8.9l-15.4-8.9v-17.7l15.4-8.9L563.8,222.9
	z M547.9,213.1l-15.4,8.9l-15.4-8.9v-17.7l15.4-8.9l15.4,8.9V213.1z M532.1,222.9v17.7l-15.4,8.9l-15.4-8.9v-17.7l15.4-8.9
	L532.1,222.9z M516.2,213.1l-15.4,8.9l-15.4-8.9v-17.7l15.4-8.9l15.4,8.9V213.1z M500.3,222.9v17.7l-15.4,8.9l-15.4-8.9v-17.7
	l15.4-8.9L500.3,222.9z M484.4,213.1L469,222l-15.4-8.9v-17.7l15.4-8.9l15.4,8.9V213.1z M468.5,222.9v17.7l-15.4,8.9l-15.4-8.9
	v-17.7l15.4-8.9L468.5,222.9z M452.6,213.1l-15.4,8.9l-15.4-8.9v-17.7l15.4-8.9l15.4,8.9V213.1z M436.7,222.9v17.7l-15.4,8.9
	l-15.4-8.9v-17.7l15.4-8.9L436.7,222.9z M420.8,213.1l-15.4,8.9l-15.4-8.9v-17.7l15.4-8.9l15.4,8.9V213.1z M405,222.9v17.7
	l-15.4,8.9l-15.4-8.9v-17.7l15.4-8.9L405,222.9z M389.1,213.1l-15.4,8.9l-15.4-8.9v-17.7l15.4-8.9l15.4,8.9V213.1z M373.2,222.9
	v17.7l-15.4,8.9l-15.4-8.9v-17.7l15.4-8.9L373.2,222.9z M357.3,213.1l-15.4,8.9l-15.4-8.9v-17.7l15.4-8.9l15.4,8.9V213.1z
	 M341.4,222.9v17.7l-15.4,8.9l-15.4-8.9v-17.7L326,214L341.4,222.9z M325.5,213.1l-15.4,8.9l-15.4-8.9v-17.7l15.4-8.9l15.4,8.9
	V213.1z M309.6,222.9v17.7l-15.4,8.9l-15.4-8.9v-17.7l15.4-8.9L309.6,222.9z M293.7,213.1l-15.4,8.9l-15.4-8.9v-17.7l15.4-8.9
	l15.4,8.9V213.1z M277.9,222.9v17.7l-15.4,8.9l-15.4-8.9v-17.7l15.4-8.9L277.9,222.9z M262,213.1l-15.4,8.9l-15.4-8.9v-17.7
	l15.4-8.9l15.4,8.9V213.1z M246.1,222.9v17.7l-15.4,8.9l-15.4-8.9v-17.7l15.4-8.9L246.1,222.9z M230.2,213.1l-15.4,8.9l-15.4-8.9
	v-17.7l15.4-8.9l15.4,8.9V213.1z M214.3,222.9v17.7l-15.4,8.9l-15.4-8.9v-17.7l15.4-8.9L214.3,222.9z M198.4,213.1L183,222
	l-15.4-8.9v-17.7l15.4-8.9l15.4,8.9V213.1z M182.5,222.9v17.7l-15.4,8.9l-15.4-8.9v-17.7l15.4-8.9L182.5,222.9z M166.7,213.1
	l-15.4,8.9l-15.4-8.9v-17.7l15.4-8.9l15.4,8.9V213.1z M150.8,222.9v17.7l-15.4,8.9l-15.4-8.9v-17.7l15.4-8.9L150.8,222.9z
	 M134.9,213.1l-15.4,8.9l-15.4-8.9v-17.7l15.4-8.9l15.4,8.9V213.1z M119,222.9v17.7l-15.3,8.8l-15.5-8.9v-17.6l15.4-8.9L119,222.9z
	 M103.1,213.1L87.8,222L72.3,213v-17.6l15.4-8.9l15.4,8.9V213.1z M87.2,222.9v17.6l-15.4,8.9l-15.4-8.9v-17.7l15.3-8.8L87.2,222.9z
	 M87.2,277.8v17.7l-15.4,8.9l-15.4-8.9v-17.7l15.4-8.9L87.2,277.8z M87.2,332.8v17.7l-15.4,8.9l-15.4-8.9v-17.7l15.4-8.9L87.2,332.8
	z M71.9,378.9l15.4,8.9v17.8l-15.4,8.9l-15.4-8.9v-17.8L71.9,378.9z M87.2,443v17.7l-15.4,8.9l-15.4-8.9V443l15.4-8.9L87.2,443z
	 M87.2,498v17.7l-15.4,8.9l-15.4-8.9V498l15.4-8.9L87.2,498z M87.2,553v17.7l-15.4,8.9l-15.4-8.9V553l15.4-8.9L87.2,553z
	 M72.4,543.3v-17.7l15.4-8.9l15.4,8.9v17.7l-15.4,8.9L72.4,543.3z M88.3,553l15.4-8.9L119,553v17.7l-15.4,8.9l-15.4-8.9V553z
	 M104.1,543.3v-17.7l15.4-8.9l15.4,8.9v17.7l-15.4,8.9L104.1,543.3z M120,553l15.4-8.9l15.4,8.9v17.7l-15.4,8.9l-15.4-8.9V553z
	 M135.9,543.3v-17.7l15.4-8.9l15.4,8.9v17.7l-15.4,8.9L135.9,543.3z M151.8,553l15.4-8.9l15.4,8.9v17.7l-15.4,8.9l-15.4-8.9V553z
	 M167.7,543.3v-17.7l15.4-8.9l15.4,8.9v17.7l-15.4,8.9L167.7,543.3z M183.6,553l15.4-8.9l15.4,8.9v17.7l-15.4,8.9l-15.4-8.9V553z
	 M199.5,543.3v-17.7l15.4-8.9l15.4,8.9v17.7l-15.4,8.9L199.5,543.3z M215.4,553l15.4-8.9l15.4,8.9v17.7l-15.4,8.9l-15.4-8.9V553z
	 M231.2,543.3v-17.7l15.3-8.8l15.5,8.9v17.6l-15.4,8.9L231.2,543.3z M247.1,553l15.3-8.8l15.5,8.9v17.6l-15.4,8.9l-15.4-8.9V553z
	 M263,543.3v-17.6l15.4-8.9l15.4,8.9v17.7l-15.3,8.8L263,543.3z M278.9,553.2l15.4-8.9l15.4,8.9v17.7l-15.3,8.8l-15.5-8.9V553.2z
	 M294.8,543.4v-17.7l15.4-8.9l15.4,8.9v17.7l-15.4,8.9L294.8,543.4z M310.7,553.2l15.4-8.9l15.4,8.9v17.7l-15.4,8.9l-15.4-8.9V553.2
	z M326.6,543.4v-17.7l15.4-8.9l15.4,8.9v17.7l-15.4,8.9L326.6,543.4z M342.4,553.2l15.4-8.9l15.4,8.9v17.7l-15.4,8.9l-15.4-8.9
	V553.2z M358.3,543.4v-17.7l15.4-8.9l15.4,8.9v17.7l-15.4,8.9L358.3,543.4z M374.2,553.2l15.4-8.9l15.4,8.9v17.7l-15.4,8.9
	l-15.4-8.9V553.2z M390.1,543.4v-17.7l15.4-8.9l15.4,8.9v17.7l-15.4,8.9L390.1,543.4z M406,553.2l15.4-8.9l15.4,8.9v17.7l-15.4,8.9
	l-15.4-8.9V553.2z M421.9,543.4v-17.7l15.4-8.9l15.4,8.9v17.7l-15.4,8.9L421.9,543.4z M437.8,553.2l15.4-8.9l15.4,8.9v17.7
	l-15.4,8.9l-15.4-8.9V553.2z M453.7,543.4v-17.7l15.4-8.9l15.4,8.9v17.7l-15.4,8.9L453.7,543.4z M469.5,553.2l15.4-8.9l15.4,8.9
	v17.7l-15.4,8.9l-15.4-8.9V553.2z M485.4,543.4v-17.7l15.4-8.9l15.4,8.9v17.7l-15.4,8.9L485.4,543.4z M501.3,553.2l15.4-8.9
	l15.4,8.9v17.7l-15.4,8.9l-15.4-8.9V553.2z M517.2,543.4v-17.7l15.4-8.9l15.4,8.9v17.7l-15.4,8.9L517.2,543.4z M533.1,553.2
	l15.4-8.9l15.4,8.9v17.7l-15.4,8.9l-15.4-8.9V553.2z M549,543.4v-17.7l15.4-8.9l15.4,8.9v17.7l-15.4,8.9L549,543.4z M564.9,553.2
	l15.4-8.9l15.4,8.9v17.7l-15.4,8.9l-15.4-8.9V553.2z M580.8,543.4v-17.7l15.4-8.9l15.4,8.9v17.7l-15.4,8.9L580.8,543.4z
	 M596.6,553.2l15.4-8.9l15.4,8.9v17.7l-15.4,8.9l-15.4-8.9V553.2z M612.5,543.4v-17.7l15.4-8.9l15.4,8.9v17.7l-15.4,8.9L612.5,543.4
	z M628.4,553.2l15.4-8.9l15.4,8.9v17.7l-15.4,8.9l-15.4-8.9V553.2z M644.3,543.4v-17.7l15.4-8.9l15.4,8.9v17.7l-15.4,8.9
	L644.3,543.4z M660.2,553.2l15.4-8.9l15.4,8.9v17.7l-15.4,8.9l-15.4-8.9V553.2z M676.1,543.4v-17.7l15.4-8.9l15.4,8.9v17.7
	l-15.4,8.9L676.1,543.4z M692,553.2l15.4-8.9l15.4,8.9v17.7l-15.4,8.9l-15.4-8.9V553.2z M707.8,543.4v-17.7l15.4-8.9l15.4,8.9v17.7
	l-15.4,8.9L707.8,543.4z M723.7,553.2l15.4-8.9l15.4,8.9v17.7l-15.4,8.9l-15.4-8.9V553.2z M739.6,543.4v-17.7l15.2-8.8l15.5,9v17.6
	l-15.4,8.9L739.6,543.4z M755.5,553.2l15.2-8.8l15.5,9v17.6l-15.4,8.9l-15.4-8.9V553.2z M771.4,543.4v-17.6l15.4-8.9l15.4,8.9v17.7
	l-15.2,8.8L771.4,543.4z M787.3,553.3l15.4-8.9l15.4,8.9v17.7l-15.2,8.8l-15.5-9V553.3z M803.2,543.6v-17.7l15.4-8.9l15.4,8.9v17.7
	l-15.4,8.9L803.2,543.6z M819,553.3l15.4-8.9l15.4,8.9v17.7l-15.4,8.9l-15.4-8.9V553.3z M834.9,543.6v-17.7l15.4-8.9l15.4,8.9v17.7
	l-15.4,8.9L834.9,543.6z M850.8,553.3l15.4-8.9l15.4,8.9v17.7l-15.4,8.9l-15.4-8.9V553.3z M866.7,543.6v-17.7l15.4-8.9l15.4,8.9
	v17.7l-15.4,8.9L866.7,543.6z M882.6,553.3l15.4-8.9l15.4,8.9v17.7L898,580l-15.4-8.9V553.3z M898.5,543.6v-17.7l15.4-8.9l15.4,8.9
	v17.7l-15.4,8.9L898.5,543.6z M914.4,553.3l15.4-8.9l15.4,8.9v17.7l-15.4,8.9l-15.4-8.9V553.3z M930.2,543.6v-17.7l15.4-8.9
	l15.4,8.9v17.7l-15.4,8.9L930.2,543.6z M946.1,553.3l15.4-8.9l15.4,8.9v17.7l-15.4,8.9l-15.4-8.9V553.3z M962,543.6v-17.7l15.4-8.9
	l15.4,8.9v17.7l-15.4,8.9L962,543.6z M977.9,553.3l15.4-8.9l15.4,8.9v17.7l-15.4,8.9l-15.4-8.9V553.3z M993.8,543.6v-17.7l15.4-8.9
	l15.4,8.9v17.7l-15.4,8.9L993.8,543.6z M1009.7,553.3l15.4-8.9l15.4,8.9v17.7l-15.4,8.9l-15.4-8.9V553.3z M1025.6,543.6v-17.7
	l15.4-8.9l15.4,8.9v17.7l-15.4,8.9L1025.6,543.6z M1041.5,553.3l15.4-8.9l15.4,8.9v17.7l-15.4,8.9l-15.4-8.9V553.3z M1057.3,543.6
	v-17.7l15.4-8.9l15.4,8.9v17.7l-15.4,8.9L1057.3,543.6z M1073.2,553.3l15.4-8.9l15.4,8.9v17.7l-15.4,8.9l-15.4-8.9V553.3z
	 M1089.1,543.6v-17.7l15.4-8.9l15.4,8.9v17.7l-15.4,8.9L1089.1,543.6z M1105,553.3l15.4-8.9l15.4,8.9v17.7l-15.4,8.9l-15.4-8.9
	V553.3z M1120.9,543.6v-17.7l15.4-8.9l15.4,8.9v17.7l-15.4,8.9L1120.9,543.6z M1136.8,553.3l15.4-8.9l15.4,8.9v17.7l-15.4,8.9
	l-15.4-8.9V553.3z M1152.7,543.6v-17.7l15.4-8.9l15.4,8.9v17.7l-15.4,8.9L1152.7,543.6z M1168.6,553.3l15.4-8.9l15.4,8.9v17.7
	l-15.4,8.9l-15.4-8.9V553.3z M1184.4,543.6v-17.7l15.4-8.9l15.4,8.9v17.7l-15.4,8.9L1184.4,543.6z M1200.3,553.3l15.4-8.9l15.4,8.9
	v17.7l-15.4,8.9l-15.4-8.9V553.3z M1216.2,543.6v-17.7l15.4-8.9l15.4,8.9v17.7l-15.4,8.9L1216.2,543.6z M1232.1,553.3l15.4-8.9
	l15.4,8.9v17.7l-15.4,8.9l-15.4-8.9V553.3z M1248,543.6v-17.7l15.3-8.8l15.5,8.9v17.6l-15.4,8.9L1248,543.6z M1263.9,553.3l15.3-8.8
	l15.5,8.9v17.6l-15.4,8.9l-15.4-8.9V553.3z M1279.8,543.6V526l15.4-8.9l15.4,8.9v17.7l-15.3,8.8L1279.8,543.6z M1279.8,488.7V471
	l15.4-8.9l15.4,8.9v17.7l-15.4,8.9L1279.8,488.7z M1279.8,433.7v-17.7l15.4-8.9l15.4,8.9v17.7l-15.4,8.9L1279.8,433.7z
	 M1295.1,387.4l-15.4-8.9v-17.7l15.4-8.9l15.4,8.9v17.7L1295.1,387.4z M1279.7,323.5v-17.7l15.4-8.9l15.4,8.9v17.7l-15.4,8.9
	L1279.7,323.5z M1279.7,268.4v-17.7l15.4-8.9l15.4,8.9v17.7l-15.4,8.9L1279.7,268.4z M1279.7,213.4v-17.7l15.4-8.9l15.4,8.9v17.7
	l-15.4,8.9L1279.7,213.4z M1279.7,158.4v-17.7l15.4-8.9l15.4,8.9v17.7l-15.4,8.9L1279.7,158.4z M1294.6,168.2v17.7l-15.4,8.9
	l-15.4-8.9v-17.7l15.4-8.9L1294.6,168.2z M1278.7,158.4l-15.4,8.9l-15.4-8.9v-17.7l15.4-8.9l15.4,8.9V158.4z M1262.8,168.2v17.7
	l-15.4,8.9l-15.4-8.9v-17.7l15.4-8.9L1262.8,168.2z M1246.9,158.4l-15.4,8.9l-15.4-8.9v-17.7l15.4-8.9l15.4,8.9V158.4z
	 M1231.1,168.2v17.7l-15.4,8.9l-15.4-8.9v-17.7l15.4-8.9L1231.1,168.2z M1215.2,158.4l-15.4,8.9l-15.4-8.9v-17.7l15.4-8.9l15.4,8.9
	V158.4z M1199.3,168.2v17.7l-15.4,8.9l-15.4-8.9v-17.7l15.4-8.9L1199.3,168.2z M1183.4,158.4l-15.4,8.9l-15.4-8.9v-17.7l15.4-8.9
	l15.4,8.9V158.4z M1167.5,168.2v17.7l-15.4,8.9l-15.4-8.9v-17.7l15.4-8.9L1167.5,168.2z M1151.6,158.4l-15.4,8.9l-15.4-8.9v-17.7
	l15.4-8.9l15.4,8.9V158.4z M1135.7,168.2v17.7l-15.4,8.9l-15.4-8.9v-17.7l15.4-8.9L1135.7,168.2z M1119.9,158.4l-15.4,8.9l-15.4-8.9
	v-17.7l15.4-8.9l15.4,8.9V158.4z M1104,168.2v17.7l-15.3,8.8l-15.5-9v-17.6l15.4-8.9L1104,168.2z M1088.1,158.4l-15.3,8.8l-15.5-8.9
	v-17.6l15.4-8.9l15.4,8.9V158.4z M1072.2,168.2v17.6l-15.4,8.9l-15.4-8.9v-17.7l15.3-8.8L1072.2,168.2z M1056.3,158.3l-15.4,8.9
	l-15.4-8.9v-17.7l15.3-8.8l15.5,8.9V158.3z M1040.4,168.1v17.7l-15.4,8.9l-15.4-8.9v-17.7l15.4-8.9L1040.4,168.1z M1024.5,158.3
	l-15.4,8.9l-15.4-8.9v-17.7l15.4-8.9l15.4,8.9V158.3z M1008.6,168.1v17.7l-15.4,8.9l-15.4-8.9v-17.7l15.4-8.9L1008.6,168.1z
	 M992.8,158.3l-15.4,8.9l-15.4-8.9v-17.7l15.4-8.9l15.4,8.9V158.3z M976.9,168.1v17.7l-15.4,8.9l-15.4-8.9v-17.7l15.4-8.9
	L976.9,168.1z M961,158.3l-15.4,8.9l-15.4-8.9v-17.7l15.4-8.9l15.4,8.9V158.3z M945.1,168.1v17.7l-15.4,8.9l-15.4-8.9v-17.7
	l15.4-8.9L945.1,168.1z M929.2,158.3l-15.4,8.9l-15.4-8.9v-17.7l15.4-8.9l15.4,8.9V158.3z M913.3,168.1v17.7l-15.4,8.9l-15.4-8.9
	v-17.7l15.4-8.9L913.3,168.1z M897.4,158.3l-15.4,8.9l-15.4-8.9v-17.7l15.4-8.9l15.4,8.9V158.3z M881.5,168.1v17.7l-15.4,8.9
	l-15.4-8.9v-17.7l15.4-8.9L881.5,168.1z M865.7,158.3l-15.4,8.9l-15.4-8.9v-17.7l15.4-8.9l15.4,8.9V158.3z M849.8,168.1v17.7
	l-15.4,8.9l-15.4-8.9v-17.7l15.4-8.9L849.8,168.1z M833.9,158.3l-15.4,8.9l-15.4-8.9v-17.7l15.4-8.9l15.4,8.9V158.3z M818,168.1
	v17.7l-15.4,8.9l-15.4-8.9v-17.7l15.4-8.9L818,168.1z M802.1,158.3l-15.4,8.9l-15.4-8.9v-17.7l15.4-8.9l15.4,8.9V158.3z
	 M786.2,168.1v17.7l-15.4,8.9l-15.4-8.9v-17.7l15.4-8.9L786.2,168.1z M770.3,158.3l-15.4,8.9l-15.4-8.9v-17.7l15.4-8.9l15.4,8.9
	V158.3z M754.5,168.1v17.7l-15.4,8.9l-15.4-8.9v-17.7l15.4-8.9L754.5,168.1z M738.6,158.3l-15.4,8.9l-15.4-8.9v-17.7l15.4-8.9
	l15.4,8.9V158.3z M722.7,168.1v17.7l-15.4,8.9l-15.4-8.9v-17.7l15.4-8.9L722.7,168.1z M706.8,158.3l-15.4,8.9l-15.4-8.9v-17.7
	l15.4-8.9l15.4,8.9V158.3z M690.9,168.1v17.7l-15.4,8.9l-15.4-8.9v-17.7l15.4-8.9L690.9,168.1z M675,158.3l-15.4,8.9l-15.4-8.9
	v-17.7l15.4-8.9l15.4,8.9V158.3z M659.1,168.1v17.7l-15.4,8.9l-15.4-8.9v-17.7l15.4-8.9L659.1,168.1z M643.2,158.3l-15.4,8.9
	l-15.4-8.9v-17.7l15.4-8.9l15.4,8.9V158.3z M627.4,168.1v17.7l-15.4,8.9l-15.4-8.9v-17.7l15.4-8.9L627.4,168.1z M611.5,158.3
	l-15.4,8.9l-15.4-8.9v-17.7l15.4-8.9l15.4,8.9V158.3z M595.6,168.1v17.7l-15.2,8.8l-15.5-9V168l15.4-8.9L595.6,168.1z M579.7,158.3
	l-15.2,8.8l-15.5-9v-17.6l15.4-8.9l15.4,8.9V158.3z M563.8,168.1v17.6l-15.4,8.9l-15.4-8.9v-17.7l15.2-8.8L563.8,168.1z
	 M547.9,158.1l-15.4,8.9l-15.4-8.9v-17.7l15.2-8.8l15.5,9V158.1z M532.1,167.9v17.7l-15.4,8.9l-15.4-8.9v-17.7l15.4-8.9L532.1,167.9
	z M516.2,158.1l-15.4,8.9l-15.4-8.9v-17.7l15.4-8.9l15.4,8.9V158.1z M500.3,167.9v17.7l-15.4,8.9l-15.4-8.9v-17.7l15.4-8.9
	L500.3,167.9z M484.4,158.1L469,167l-15.4-8.9v-17.7l15.4-8.9l15.4,8.9V158.1z M468.5,167.9v17.7l-15.4,8.9l-15.4-8.9v-17.7
	l15.4-8.9L468.5,167.9z M452.6,158.1l-15.4,8.9l-15.4-8.9v-17.7l15.4-8.9l15.4,8.9V158.1z M436.7,167.9v17.7l-15.4,8.9l-15.4-8.9
	v-17.7l15.4-8.9L436.7,167.9z M420.8,158.1l-15.4,8.9l-15.4-8.9v-17.7l15.4-8.9l15.4,8.9V158.1z M405,167.9v17.7l-15.4,8.9
	l-15.4-8.9v-17.7l15.4-8.9L405,167.9z M389.1,158.1l-15.4,8.9l-15.4-8.9v-17.7l15.4-8.9l15.4,8.9V158.1z M373.2,167.9v17.7
	l-15.4,8.9l-15.4-8.9v-17.7l15.4-8.9L373.2,167.9z M357.3,158.1l-15.4,8.9l-15.4-8.9v-17.7l15.4-8.9l15.4,8.9V158.1z M341.4,167.9
	v17.7l-15.4,8.9l-15.4-8.9v-17.7L326,159L341.4,167.9z M325.5,158.1l-15.4,8.9l-15.4-8.9v-17.7l15.4-8.9l15.4,8.9V158.1z
	 M309.6,167.9v17.7l-15.4,8.9l-15.4-8.9v-17.7l15.4-8.9L309.6,167.9z M293.7,158.1l-15.4,8.9l-15.4-8.9v-17.7l15.4-8.9l15.4,8.9
	V158.1z M277.9,167.9v17.7l-15.4,8.9l-15.4-8.9v-17.7l15.4-8.9L277.9,167.9z M262,158.1l-15.4,8.9l-15.4-8.9v-17.7l15.4-8.9
	l15.4,8.9V158.1z M246.1,167.9v17.7l-15.4,8.9l-15.4-8.9v-17.7l15.4-8.9L246.1,167.9z M230.2,158.1l-15.4,8.9l-15.4-8.9v-17.7
	l15.4-8.9l15.4,8.9V158.1z M214.3,167.9v17.7l-15.4,8.9l-15.4-8.9v-17.7l15.4-8.9L214.3,167.9z M198.4,158.1L183,167l-15.4-8.9
	v-17.7l15.4-8.9l15.4,8.9V158.1z M182.5,167.9v17.7l-15.4,8.9l-15.4-8.9v-17.7l15.4-8.9L182.5,167.9z M166.7,158.1l-15.4,8.9
	l-15.4-8.9v-17.7l15.4-8.9l15.4,8.9V158.1z M150.8,167.9v17.7l-15.4,8.9l-15.4-8.9v-17.7l15.4-8.9L150.8,167.9z M134.9,158.1
	l-15.4,8.9l-15.4-8.9v-17.7l15.4-8.9l15.4,8.9V158.1z M119,167.9v17.7l-15.4,8.9l-15.4-8.9v-17.7l15.4-8.9L119,167.9z M103.1,158.1
	L87.7,167l-15.4-8.9v-17.7l15.4-8.9l15.4,8.9V158.1z M87.2,167.9v17.7L72,194.4l-15.5-9v-17.6l15.4-8.9L87.2,167.9z M71.3,158.1
	l-15.3,8.8l-15.5-9v-17.6l15.4-8.9l15.4,8.9V158.1z M71.3,195.4V213L56,221.9L40.6,213v-17.7l15.3-8.8L71.3,195.4z M71.3,250.3V268
	L56,276.9L40.6,268v-17.7l15.4-8.9L71.3,250.3z M71.3,305.3V323L56,331.9L40.6,323v-17.7l15.4-8.9L71.3,305.3z M71.3,360.3v17.7
	L56,386.9l-15.4-8.9v-17.7l15.4-8.9L71.3,360.3z M56,406.6l15.4,8.9v17.7L56,442.1l-15.4-8.9v-17.7L56,406.6z M71.4,470.5v17.7
	L56,497.1l-15.4-8.9v-17.7l15.4-8.9L71.4,470.5z M71.4,525.5v17.7L56,552.2l-15.4-8.9v-17.7l15.4-8.9L71.4,525.5z M71.4,580.6v17.7
	L56,607.2l-15.4-8.9v-17.7l15.4-8.9L71.4,580.6z M56.5,608.1l15.4-8.9l15.4,8.9v17.7l-15.4,8.9l-15.4-8.9V608.1z M72.4,598.3v-17.7
	l15.4-8.9l15.4,8.9v17.7l-15.4,8.9L72.4,598.3z M88.3,608.1l15.4-8.9l15.4,8.9v17.7l-15.4,8.9l-15.4-8.9V608.1z M104.1,598.3v-17.7
	l15.4-8.9l15.4,8.9v17.7l-15.4,8.9L104.1,598.3z M120,608.1l15.4-8.9l15.4,8.9v17.7l-15.4,8.9l-15.4-8.9V608.1z M135.9,598.3v-17.7
	l15.4-8.9l15.4,8.9v17.7l-15.4,8.9L135.9,598.3z M151.8,608.1l15.4-8.9l15.4,8.9v17.7l-15.4,8.9l-15.4-8.9V608.1z M167.7,598.3
	v-17.7l15.4-8.9l15.4,8.9v17.7l-15.4,8.9L167.7,598.3z M183.6,608.1l15.4-8.9l15.4,8.9v17.7l-15.4,8.9l-15.4-8.9V608.1z
	 M199.5,598.3v-17.7l15.4-8.9l15.4,8.9v17.7l-15.4,8.9L199.5,598.3z M215.4,608.1l15.4-8.9l15.4,8.9v17.7l-15.4,8.9l-15.4-8.9V608.1
	z M231.2,598.3v-17.7l15.4-8.9l15.4,8.9v17.7l-15.4,8.9L231.2,598.3z M247.1,608.1l15.4-8.9l15.4,8.9v17.7l-15.4,8.9l-15.4-8.9
	V608.1z M263,598.3v-17.7l15.3-8.8l15.5,8.9v17.6l-15.4,8.9L263,598.3z M278.9,608.1l15.3-8.8l15.5,8.9v17.6l-15.4,8.9l-15.4-8.9
	V608.1z M294.8,598.3v-17.6l15.4-8.9l15.4,8.9v17.7l-15.3,8.8L294.8,598.3z M310.7,608.2l15.4-8.9l15.4,8.9v17.7l-15.3,8.8l-15.5-9
	V608.2z M326.6,598.4v-17.7l15.4-8.9l15.4,8.9v17.7l-15.4,8.9L326.6,598.4z M342.4,608.2l15.4-8.9l15.4,8.9v17.7l-15.4,8.9
	l-15.4-8.9V608.2z M358.3,598.4v-17.7l15.4-8.9l15.4,8.9v17.7l-15.4,8.9L358.3,598.4z M374.2,608.2l15.4-8.9l15.4,8.9v17.7
	l-15.4,8.9l-15.4-8.9V608.2z M390.1,598.4v-17.7l15.4-8.9l15.4,8.9v17.7l-15.4,8.9L390.1,598.4z M406,608.2l15.4-8.9l15.4,8.9v17.7
	l-15.4,8.9l-15.4-8.9V608.2z M421.9,598.4v-17.7l15.4-8.9l15.4,8.9v17.7l-15.4,8.9L421.9,598.4z M437.8,608.2l15.4-8.9l15.4,8.9
	v17.7l-15.4,8.9l-15.4-8.9V608.2z M453.7,598.4v-17.7l15.4-8.9l15.4,8.9v17.7l-15.4,8.9L453.7,598.4z M469.5,608.2l15.4-8.9
	l15.4,8.9v17.7l-15.4,8.9l-15.4-8.9V608.2z M485.4,598.4v-17.7l15.4-8.9l15.4,8.9v17.7l-15.4,8.9L485.4,598.4z M501.3,608.2
	l15.4-8.9l15.4,8.9v17.7l-15.4,8.9l-15.4-8.9V608.2z M517.2,598.4v-17.7l15.4-8.9l15.4,8.9v17.7l-15.4,8.9L517.2,598.4z
	 M533.1,608.2l15.4-8.9l15.4,8.9v17.7l-15.4,8.9l-15.4-8.9V608.2z M549,598.4v-17.7l15.4-8.9l15.4,8.9v17.7l-15.4,8.9L549,598.4z
	 M564.9,608.2l15.4-8.9l15.4,8.9v17.7l-15.4,8.9l-15.4-8.9V608.2z M580.8,598.4v-17.7l15.4-8.9l15.4,8.9v17.7l-15.4,8.9L580.8,598.4
	z M596.6,608.2l15.4-8.9l15.4,8.9v17.7l-15.4,8.9l-15.4-8.9V608.2z M612.5,598.4v-17.7l15.4-8.9l15.4,8.9v17.7l-15.4,8.9
	L612.5,598.4z M628.4,608.2l15.4-8.9l15.4,8.9v17.7l-15.4,8.9l-15.4-8.9V608.2z M644.3,598.4v-17.7l15.4-8.9l15.4,8.9v17.7
	l-15.4,8.9L644.3,598.4z M660.2,608.2l15.4-8.9l15.4,8.9v17.7l-15.4,8.9l-15.4-8.9V608.2z M676.1,598.4v-17.7l15.4-8.9l15.4,8.9
	v17.7l-15.4,8.9L676.1,598.4z M692,608.2l15.4-8.9l15.4,8.9v17.7l-15.4,8.9l-15.4-8.9V608.2z M707.8,598.4v-17.7l15.4-8.9l15.4,8.9
	v17.7l-15.4,8.9L707.8,598.4z M723.7,608.2l15.4-8.9l15.4,8.9v17.7l-15.4,8.9l-15.4-8.9V608.2z M739.6,598.4v-17.7l15.4-8.9
	l15.4,8.9v17.7l-15.4,8.9L739.6,598.4z M755.5,608.2l15.4-8.9l15.4,8.9v17.7l-15.4,8.9l-15.4-8.9V608.2z M771.4,598.4v-17.7
	l15.2-8.8l15.5,9v17.6l-15.4,8.9L771.4,598.4z M787.3,608.2l15.2-8.8l15.5,9v17.6l-15.4,8.9l-15.4-8.9V608.2z M803.2,598.4v-17.6
	l15.4-8.9l15.4,8.9v17.7l-15.2,8.8L803.2,598.4z M819.1,608.3l15.4-8.9l15.4,8.9v17.7l-15.2,8.8l-15.5-9V608.3z M834.9,598.6v-17.7
	l15.4-8.9l15.4,8.9v17.7l-15.4,8.9L834.9,598.6z M850.8,608.3l15.4-8.9l15.4,8.9v17.7l-15.4,8.9l-15.4-8.9V608.3z M866.7,598.6
	v-17.7l15.4-8.9l15.4,8.9v17.7l-15.4,8.9L866.7,598.6z M882.6,608.3l15.4-8.9l15.4,8.9v17.7L898,635l-15.4-8.9V608.3z M898.5,598.6
	v-17.7l15.4-8.9l15.4,8.9v17.7l-15.4,8.9L898.5,598.6z M914.4,608.3l15.4-8.9l15.4,8.9v17.7l-15.4,8.9l-15.4-8.9V608.3z
	 M930.2,598.6v-17.7l15.4-8.9l15.4,8.9v17.7l-15.4,8.9L930.2,598.6z M946.1,608.3l15.4-8.9l15.4,8.9v17.7l-15.4,8.9l-15.4-8.9V608.3
	z M962,598.6v-17.7l15.4-8.9l15.4,8.9v17.7l-15.4,8.9L962,598.6z M977.9,608.3l15.4-8.9l15.4,8.9v17.7l-15.4,8.9l-15.4-8.9V608.3z
	 M993.8,598.6v-17.7l15.4-8.9l15.4,8.9v17.7l-15.4,8.9L993.8,598.6z M1009.7,608.3l15.4-8.9l15.4,8.9v17.7l-15.4,8.9l-15.4-8.9
	V608.3z M1025.6,598.6v-17.7l15.4-8.9l15.4,8.9v17.7l-15.4,8.9L1025.6,598.6z M1041.5,608.3l15.4-8.9l15.4,8.9v17.7l-15.4,8.9
	l-15.4-8.9V608.3z M1057.3,598.6v-17.7l15.4-8.9l15.4,8.9v17.7l-15.4,8.9L1057.3,598.6z M1073.2,608.3l15.4-8.9l15.4,8.9v17.7
	l-15.4,8.9l-15.4-8.9V608.3z M1089.1,598.6v-17.7l15.4-8.9l15.4,8.9v17.7l-15.4,8.9L1089.1,598.6z M1105,608.3l15.4-8.9l15.4,8.9
	v17.7l-15.4,8.9l-15.4-8.9V608.3z M1120.9,598.6v-17.7l15.4-8.9l15.4,8.9v17.7l-15.4,8.9L1120.9,598.6z M1136.8,608.3l15.4-8.9
	l15.4,8.9v17.7l-15.4,8.9l-15.4-8.9V608.3z M1152.7,598.6v-17.7l15.4-8.9l15.4,8.9v17.7l-15.4,8.9L1152.7,598.6z M1168.6,608.3
	l15.4-8.9l15.4,8.9v17.7l-15.4,8.9l-15.4-8.9V608.3z M1184.4,598.6v-17.7l15.4-8.9l15.4,8.9v17.7l-15.4,8.9L1184.4,598.6z
	 M1200.3,608.3l15.4-8.9l15.4,8.9v17.7l-15.4,8.9l-15.4-8.9V608.3z M1216.2,598.6v-17.7l15.4-8.9l15.4,8.9v17.7l-15.4,8.9
	L1216.2,598.6z M1232.1,608.3l15.4-8.9l15.4,8.9v17.7l-15.4,8.9l-15.4-8.9V608.3z M1248,598.6v-17.7l15.4-8.9l15.4,8.9v17.7
	l-15.4,8.9L1248,598.6z M1263.9,608.3l15.4-8.9l15.4,8.9v17.7l-15.4,8.9l-15.4-8.9V608.3z M1279.8,598.6v-17.7l15.3-8.8l15.5,8.9
	v17.6l-15.4,8.9L1279.8,598.6z M1295.6,608.3l15.3-8.8l15.5,8.9v17.6L1311,635l-15.4-8.9V608.3z M1295.6,571.1v-17.6l15.4-8.9
	l15.4,8.9v17.7l-15.3,8.8L1295.6,571.1z M1295.6,516.2v-17.7l15.4-8.9l15.4,8.9v17.7l-15.4,8.9L1295.6,516.2z M1295.6,461.2v-17.7
	l15.4-8.9l15.4,8.9v17.7l-15.4,8.9L1295.6,461.2z M1295.6,406v-17.8l15.4-8.9l15.4,8.9V406l-15.4,8.9L1295.6,406z M1311,359.8
	l-15.4-8.9v-17.7l15.4-8.9l15.4,8.9V351L1311,359.8z M1295.6,295.9v-17.7l15.4-8.9l15.4,8.9v17.7l-15.4,8.9L1295.6,295.9z
	 M1295.6,240.9v-17.7l15.4-8.9l15.4,8.9v17.7l-15.4,8.9L1295.6,240.9z M1295.6,185.9v-17.7l15.4-8.9l15.4,8.9v17.7l-15.4,8.9
	L1295.6,185.9z M1295.6,130.9v-17.7l15.4-8.9l15.4,8.9v17.7l-15.4,8.9L1295.6,130.9z M1310.5,103.4l-15.4,8.9l-15.4-8.9V85.7
	l15.4-8.9l15.4,8.9V103.4z M1294.6,113.2v17.7l-15.4,8.9l-15.4-8.9v-17.7l15.4-8.9L1294.6,113.2z M1278.7,103.4l-15.4,8.9l-15.4-8.9
	V85.7l15.4-8.9l15.4,8.9V103.4z M1262.8,113.2v17.7l-15.4,8.9l-15.4-8.9v-17.7l15.4-8.9L1262.8,113.2z M1246.9,103.4l-15.4,8.9
	l-15.4-8.9V85.7l15.4-8.9l15.4,8.9V103.4z M1231.1,113.2v17.7l-15.4,8.9l-15.4-8.9v-17.7l15.4-8.9L1231.1,113.2z M1215.2,103.4
	l-15.4,8.9l-15.4-8.9V85.7l15.4-8.9l15.4,8.9V103.4z M1199.3,113.2v17.7l-15.4,8.9l-15.4-8.9v-17.7l15.4-8.9L1199.3,113.2z
	 M1183.4,103.4l-15.4,8.9l-15.4-8.9V85.7l15.4-8.9l15.4,8.9V103.4z M1167.5,113.2v17.7l-15.4,8.9l-15.4-8.9v-17.7l15.4-8.9
	L1167.5,113.2z M1151.6,103.4l-15.4,8.9l-15.4-8.9V85.7l15.4-8.9l15.4,8.9V103.4z M1135.7,113.2v17.7l-15.4,8.9l-15.4-8.9v-17.7
	l15.4-8.9L1135.7,113.2z M1119.9,103.4l-15.4,8.9l-15.4-8.9V85.7l15.4-8.9l15.4,8.9V103.4z M1104,113.2v17.7l-15.4,8.9l-15.4-8.9
	v-17.7l15.4-8.9L1104,113.2z M1088.1,103.4l-15.4,8.9l-15.4-8.9V85.7l15.4-8.9l15.4,8.9V103.4z M1072.2,113.2v17.7l-15.3,8.8
	l-15.5-8.9v-17.6l15.4-8.9L1072.2,113.2z M1056.3,103.4l-15.3,8.8l-15.5-8.9V85.7l15.4-8.9l15.4,8.9V103.4z M1040.4,113.2v17.6
	l-15.4,8.9l-15.4-8.9V113l15.3-8.8L1040.4,113.2z M1024.5,103.3l-15.4,8.9l-15.4-8.9V85.5l15.3-8.8l15.5,8.9V103.3z M1008.6,113
	v17.7l-15.4,8.9l-15.4-8.9V113l15.4-8.9L1008.6,113z M992.8,103.3l-15.4,8.9l-15.4-8.9V85.5l15.4-8.9l15.4,8.9V103.3z M976.9,113
	v17.7l-15.4,8.9l-15.4-8.9V113l15.4-8.9L976.9,113z M961,103.3l-15.4,8.9l-15.4-8.9V85.5l15.4-8.9l15.4,8.9V103.3z M945.1,113v17.7
	l-15.4,8.9l-15.4-8.9V113l15.4-8.9L945.1,113z M929.2,103.3l-15.4,8.9l-15.4-8.9V85.5l15.4-8.9l15.4,8.9V103.3z M913.3,113v17.7
	l-15.4,8.9l-15.4-8.9V113l15.4-8.9L913.3,113z M897.4,103.3l-15.4,8.9l-15.4-8.9V85.5l15.4-8.9l15.4,8.9V103.3z M881.5,113v17.7
	l-15.4,8.9l-15.4-8.9V113l15.4-8.9L881.5,113z M865.7,103.3l-15.4,8.9l-15.4-8.9V85.5l15.4-8.9l15.4,8.9V103.3z M849.8,113v17.7
	l-15.4,8.9l-15.4-8.9V113l15.4-8.9L849.8,113z M833.9,103.3l-15.4,8.9l-15.4-8.9V85.5l15.4-8.9l15.4,8.9V103.3z M818,113v17.7
	l-15.4,8.9l-15.4-8.9V113l15.4-8.9L818,113z M802.1,103.3l-15.4,8.9l-15.4-8.9V85.5l15.4-8.9l15.4,8.9V103.3z M786.2,113v17.7
	l-15.4,8.9l-15.4-8.9V113l15.4-8.9L786.2,113z M770.3,103.3l-15.4,8.9l-15.4-8.9V85.5l15.4-8.9l15.4,8.9V103.3z M754.5,113v17.7
	l-15.4,8.9l-15.4-8.9V113l15.4-8.9L754.5,113z M738.6,103.3l-15.4,8.9l-15.4-8.9V85.5l15.4-8.9l15.4,8.9V103.3z M722.7,113v17.7
	l-15.4,8.9l-15.4-8.9V113l15.4-8.9L722.7,113z M706.8,103.3l-15.4,8.9l-15.4-8.9V85.5l15.4-8.9l15.4,8.9V103.3z M690.9,113v17.7
	l-15.4,8.9l-15.4-8.9V113l15.4-8.9L690.9,113z M675,103.3l-15.4,8.9l-15.4-8.9V85.5l15.4-8.9l15.4,8.9V103.3z M659.1,113v17.7
	l-15.4,8.9l-15.4-8.9V113l15.4-8.9L659.1,113z M643.2,103.3l-15.4,8.9l-15.4-8.9V85.5l15.4-8.9l15.4,8.9V103.3z M627.4,113v17.7
	l-15.4,8.9l-15.4-8.9V113l15.4-8.9L627.4,113z M611.5,103.3l-15.4,8.9l-15.4-8.9V85.5l15.4-8.9l15.4,8.9V103.3z M595.6,113v17.7
	l-15.4,8.9l-15.4-8.9V113l15.4-8.9L595.6,113z M579.7,103.3l-15.4,8.9l-15.4-8.9V85.5l15.4-8.9l15.4,8.9V103.3z M563.8,113v17.7
	l-15.2,8.8l-15.5-9V113l15.4-8.9L563.8,113z M547.9,103.3l-15.2,8.8l-15.5-9V85.5l15.4-8.9l15.4,8.9V103.3z M532,113v17.6l-15.4,8.9
	l-15.4-8.9v-17.7l15.2-8.8L532,113z M516.1,103.1l-15.4,8.9l-15.4-8.9V85.4l15.2-8.8l15.5,9V103.1z M500.3,112.9v17.7l-15.4,8.9
	l-15.4-8.9v-17.7l15.4-8.9L500.3,112.9z M484.4,103.1L469,112l-15.4-8.9V85.4l15.4-8.9l15.4,8.9V103.1z M468.5,112.9v17.7l-15.4,8.9
	l-15.4-8.9v-17.7l15.4-8.9L468.5,112.9z M452.6,103.1l-15.4,8.9l-15.4-8.9V85.4l15.4-8.9l15.4,8.9V103.1z M436.7,112.9v17.7
	l-15.4,8.9l-15.4-8.9v-17.7l15.4-8.9L436.7,112.9z M420.8,103.1l-15.4,8.9l-15.4-8.9V85.4l15.4-8.9l15.4,8.9V103.1z M405,112.9v17.7
	l-15.4,8.9l-15.4-8.9v-17.7l15.4-8.9L405,112.9z M389.1,103.1l-15.4,8.9l-15.4-8.9V85.4l15.4-8.9l15.4,8.9V103.1z M373.2,112.9v17.7
	l-15.4,8.9l-15.4-8.9v-17.7l15.4-8.9L373.2,112.9z M357.3,103.1l-15.4,8.9l-15.4-8.9V85.4l15.4-8.9l15.4,8.9V103.1z M341.4,112.9
	v17.7l-15.4,8.9l-15.4-8.9v-17.7L326,104L341.4,112.9z M325.5,103.1l-15.4,8.9l-15.4-8.9V85.4l15.4-8.9l15.4,8.9V103.1z
	 M309.6,112.9v17.7l-15.4,8.9l-15.4-8.9v-17.7l15.4-8.9L309.6,112.9z M293.7,103.1l-15.4,8.9l-15.4-8.9V85.4l15.4-8.9l15.4,8.9
	V103.1z M277.9,112.9v17.7l-15.4,8.9l-15.4-8.9v-17.7l15.4-8.9L277.9,112.9z M262,103.1l-15.4,8.9l-15.4-8.9V85.4l15.4-8.9l15.4,8.9
	V103.1z M246.1,112.9v17.7l-15.4,8.9l-15.4-8.9v-17.7l15.4-8.9L246.1,112.9z M230.2,103.1l-15.4,8.9l-15.4-8.9V85.4l15.4-8.9
	l15.4,8.9V103.1z M214.3,112.9v17.7l-15.4,8.9l-15.4-8.9v-17.7l15.4-8.9L214.3,112.9z M198.4,103.1L183,112l-15.4-8.9V85.4l15.4-8.9
	l15.4,8.9V103.1z M182.5,112.9v17.7l-15.4,8.9l-15.4-8.9v-17.7l15.4-8.9L182.5,112.9z M166.7,103.1l-15.4,8.9l-15.4-8.9V85.4
	l15.4-8.9l15.4,8.9V103.1z M150.8,112.9v17.7l-15.4,8.9l-15.4-8.9v-17.7l15.4-8.9L150.8,112.9z M134.9,103.1l-15.4,8.9l-15.4-8.9
	V85.4l15.4-8.9l15.4,8.9V103.1z M119,112.9v17.7l-15.4,8.9l-15.4-8.9v-17.7l15.4-8.9L119,112.9z M103.1,103.1L87.7,112l-15.4-8.9
	V85.4l15.4-8.9l15.4,8.9V103.1z M87.2,112.9v17.7l-15.4,8.9l-15.4-8.9v-17.7l15.4-8.9L87.2,112.9z M71.3,103.1L56,112l-15.4-8.9
	V85.4L56,76.5l15.4,8.9V103.1z M55.4,112.9v17.7l-15.3,8.8l-15.5-8.9v-17.6l15.4-8.9L55.4,112.9z M55.4,167.9v17.6l-15.4,8.9
	l-15.4-8.9v-17.7l15.3-8.8L55.4,167.9z M55.4,222.8v17.7l-15.4,8.9l-15.4-8.9v-17.7l15.4-8.9L55.4,222.8z M55.4,277.8v17.7
	l-15.4,8.9l-15.4-8.9v-17.7l15.4-8.9L55.4,277.8z M55.4,332.8v17.7l-15.4,8.9l-15.4-8.9v-17.7l15.4-8.9L55.4,332.8z M40.1,378.9
	l15.4,8.9v17.8l-15.4,8.9l-15.4-8.9v-17.8L40.1,378.9z M55.5,443v17.7l-15.4,8.9l-15.4-8.9V443l15.4-8.9L55.5,443z M55.5,498v17.7
	l-15.4,8.9l-15.4-8.9V498l15.4-8.9L55.5,498z M55.5,553v17.7l-15.4,8.9l-15.4-8.9V553l15.4-8.9L55.5,553z M55.5,608.1v17.7
	l-15.4,8.9l-15.4-8.9v-17.7l15.4-8.9L55.5,608.1z M55.5,663.1v17.7l-15.4,8.9l-15.4-8.9v-17.7l15.4-8.9L55.5,663.1z M40.6,653.3
	v-17.7l15.4-8.9l15.4,8.9v17.7L56,662.2L40.6,653.3z M56.5,663.1l15.4-8.9l15.4,8.9v17.7l-15.4,8.9l-15.4-8.9V663.1z M72.4,653.3
	v-17.7l15.4-8.9l15.4,8.9v17.7l-15.4,8.9L72.4,653.3z M88.3,663.1l15.4-8.9l15.4,8.9v17.7l-15.4,8.9l-15.4-8.9V663.1z M104.1,653.3
	v-17.7l15.4-8.9l15.4,8.9v17.7l-15.4,8.9L104.1,653.3z M120,663.1l15.4-8.9l15.4,8.9v17.7l-15.4,8.9l-15.4-8.9V663.1z M135.9,653.3
	v-17.7l15.4-8.9l15.4,8.9v17.7l-15.4,8.9L135.9,653.3z M151.8,663.1l15.4-8.9l15.4,8.9v17.7l-15.4,8.9l-15.4-8.9V663.1z
	 M167.7,653.3v-17.7l15.4-8.9l15.4,8.9v17.7l-15.4,8.9L167.7,653.3z M183.6,663.1l15.4-8.9l15.4,8.9v17.7l-15.4,8.9l-15.4-8.9V663.1
	z M199.5,653.3v-17.7l15.4-8.9l15.4,8.9v17.7l-15.4,8.9L199.5,653.3z M215.4,663.1l15.4-8.9l15.4,8.9v17.7l-15.4,8.9l-15.4-8.9
	V663.1z M231.2,653.3v-17.7l15.4-8.9l15.4,8.9v17.7l-15.4,8.9L231.2,653.3z M247.1,663.1l15.4-8.9l15.4,8.9v17.7l-15.4,8.9
	l-15.4-8.9V663.1z M263,653.3v-17.7l15.4-8.9l15.4,8.9v17.7l-15.4,8.9L263,653.3z M278.9,663.1l15.4-8.9l15.4,8.9v17.7l-15.4,8.9
	l-15.4-8.9V663.1z M294.8,653.3v-17.7l15.3-8.8l15.5,9v17.6l-15.4,8.9L294.8,653.3z M310.7,663.1l15.3-8.8l15.5,9v17.6l-15.4,8.9
	l-15.4-8.9V663.1z M326.6,653.3v-17.6l15.4-8.9l15.4,8.9v17.7l-15.3,8.8L326.6,653.3z M342.4,663.2l15.4-8.9l15.4,8.9v17.7
	l-15.3,8.8l-15.5-8.9V663.2z M358.3,653.4v-17.7l15.4-8.9l15.4,8.9v17.7l-15.4,8.9L358.3,653.4z M374.2,663.2l15.4-8.9l15.4,8.9
	v17.7l-15.4,8.9l-15.4-8.9V663.2z M390.1,653.4v-17.7l15.4-8.9l15.4,8.9v17.7l-15.4,8.9L390.1,653.4z M406,663.2l15.4-8.9l15.4,8.9
	v17.7l-15.4,8.9l-15.4-8.9V663.2z M421.9,653.4v-17.7l15.4-8.9l15.4,8.9v17.7l-15.4,8.9L421.9,653.4z M437.8,663.2l15.4-8.9
	l15.4,8.9v17.7l-15.4,8.9l-15.4-8.9V663.2z M453.7,653.4v-17.7l15.4-8.9l15.4,8.9v17.7l-15.4,8.9L453.7,653.4z M469.5,663.2
	l15.4-8.9l15.4,8.9v17.7l-15.4,8.9l-15.4-8.9V663.2z M485.4,653.4v-17.7l15.4-8.9l15.4,8.9v17.7l-15.4,8.9L485.4,653.4z
	 M501.3,663.2l15.4-8.9l15.4,8.9v17.7l-15.4,8.9l-15.4-8.9V663.2z M517.2,653.4v-17.7l15.4-8.9l15.4,8.9v17.7l-15.4,8.9L517.2,653.4
	z M533.1,663.2l15.4-8.9l15.4,8.9v17.7l-15.4,8.9l-15.4-8.9V663.2z M549,653.4v-17.7l15.4-8.9l15.4,8.9v17.7l-15.4,8.9L549,653.4z
	 M564.9,663.2l15.4-8.9l15.4,8.9v17.7l-15.4,8.9l-15.4-8.9V663.2z M580.8,653.4v-17.7l15.4-8.9l15.4,8.9v17.7l-15.4,8.9L580.8,653.4
	z M596.6,663.2l15.4-8.9l15.4,8.9v17.7l-15.4,8.9l-15.4-8.9V663.2z M612.5,653.4v-17.7l15.4-8.9l15.4,8.9v17.7l-15.4,8.9
	L612.5,653.4z M628.4,663.2l15.4-8.9l15.4,8.9v17.7l-15.4,8.9l-15.4-8.9V663.2z M644.3,653.4v-17.7l15.4-8.9l15.4,8.9v17.7
	l-15.4,8.9L644.3,653.4z M660.2,663.2l15.4-8.9l15.4,8.9v17.7l-15.4,8.9l-15.4-8.9V663.2z M676.1,653.4v-17.7l15.4-8.9l15.4,8.9
	v17.7l-15.4,8.9L676.1,653.4z M692,663.2l15.4-8.9l15.4,8.9v17.7l-15.4,8.9l-15.4-8.9V663.2z M707.8,653.4v-17.7l15.4-8.9l15.4,8.9
	v17.7l-15.4,8.9L707.8,653.4z M723.7,663.2l15.4-8.9l15.4,8.9v17.7l-15.4,8.9l-15.4-8.9V663.2z M739.6,653.4v-17.7l15.4-8.9
	l15.4,8.9v17.7l-15.4,8.9L739.6,653.4z M755.5,663.2l15.4-8.9l15.4,8.9v17.7l-15.4,8.9l-15.4-8.9V663.2z M771.4,653.4v-17.7
	l15.4-8.9l15.4,8.9v17.7l-15.4,8.9L771.4,653.4z M787.3,663.2l15.4-8.9l15.4,8.9v17.7l-15.4,8.9l-15.4-8.9V663.2z M803.2,653.4
	v-17.7l15.2-8.8l15.5,9v17.6l-15.4,8.9L803.2,653.4z M819.1,663.2l15.2-8.8l15.5,9v17.6l-15.4,8.9l-15.4-8.9V663.2z M834.9,653.4
	v-17.6l15.4-8.9l15.4,8.9v17.7l-15.2,8.8L834.9,653.4z M850.8,663.4l15.4-8.9l15.4,8.9v17.7l-15.2,8.8l-15.5-9V663.4z M866.7,653.6
	v-17.7l15.4-8.9l15.4,8.9v17.7l-15.4,8.9L866.7,653.6z M882.6,663.4l15.4-8.9l15.4,8.9v17.7L898,690l-15.4-8.9V663.4z M898.5,653.6
	v-17.7l15.4-8.9l15.4,8.9v17.7l-15.4,8.9L898.5,653.6z M914.4,663.4l15.4-8.9l15.4,8.9v17.7l-15.4,8.9l-15.4-8.9V663.4z
	 M930.2,653.6v-17.7l15.4-8.9l15.4,8.9v17.7l-15.4,8.9L930.2,653.6z M946.1,663.4l15.4-8.9l15.4,8.9v17.7l-15.4,8.9l-15.4-8.9V663.4
	z M962,653.6v-17.7l15.4-8.9l15.4,8.9v17.7l-15.4,8.9L962,653.6z M977.9,663.4l15.4-8.9l15.4,8.9v17.7l-15.4,8.9l-15.4-8.9V663.4z
	 M993.8,653.6v-17.7l15.4-8.9l15.4,8.9v17.7l-15.4,8.9L993.8,653.6z M1009.7,663.4l15.4-8.9l15.4,8.9v17.7l-15.4,8.9l-15.4-8.9
	V663.4z M1025.6,653.6v-17.7l15.4-8.9l15.4,8.9v17.7l-15.4,8.9L1025.6,653.6z M1041.5,663.4l15.4-8.9l15.4,8.9v17.7l-15.4,8.9
	l-15.4-8.9V663.4z M1057.3,653.6v-17.7l15.4-8.9l15.4,8.9v17.7l-15.4,8.9L1057.3,653.6z M1073.2,663.4l15.4-8.9l15.4,8.9v17.7
	l-15.4,8.9l-15.4-8.9V663.4z M1089.1,653.6v-17.7l15.4-8.9l15.4,8.9v17.7l-15.4,8.9L1089.1,653.6z M1105,663.4l15.4-8.9l15.4,8.9
	v17.7l-15.4,8.9l-15.4-8.9V663.4z M1120.9,653.6v-17.7l15.4-8.9l15.4,8.9v17.7l-15.4,8.9L1120.9,653.6z M1136.8,663.4l15.4-8.9
	l15.4,8.9v17.7l-15.4,8.9l-15.4-8.9V663.4z M1152.7,653.6v-17.7l15.4-8.9l15.4,8.9v17.7l-15.4,8.9L1152.7,653.6z M1168.6,663.4
	l15.4-8.9l15.4,8.9v17.7l-15.4,8.9l-15.4-8.9V663.4z M1184.4,653.6v-17.7l15.4-8.9l15.4,8.9v17.7l-15.4,8.9L1184.4,653.6z
	 M1200.3,663.4l15.4-8.9l15.4,8.9v17.7l-15.4,8.9l-15.4-8.9V663.4z M1216.2,653.6v-17.7l15.4-8.9l15.4,8.9v17.7l-15.4,8.9
	L1216.2,653.6z M1232.1,663.4l15.4-8.9l15.4,8.9v17.7l-15.4,8.9l-15.4-8.9V663.4z M1248,653.6v-17.7l15.4-8.9l15.4,8.9v17.7
	l-15.4,8.9L1248,653.6z M1263.9,663.4l15.4-8.9l15.4,8.9v17.7l-15.4,8.9l-15.4-8.9V663.4z M1279.8,653.6v-17.7l15.4-8.9l15.4,8.9
	v17.7l-15.4,8.9L1279.8,653.6z M1295.6,663.4l15.4-8.9l15.4,8.9v17.7L1311,690l-15.4-8.9V663.4z M1311.5,653.6v-17.7l15.3-8.8
	l15.5,8.9v17.6l-15.4,8.9L1311.5,653.6z M1311.5,598.6V581l15.4-8.9l15.4,8.9v17.7l-15.3,8.8L1311.5,598.6z M1311.5,543.7V526
	l15.4-8.9l15.4,8.9v17.7l-15.4,8.9L1311.5,543.7z M1311.5,488.7V471l15.4-8.9l15.4,8.9v17.7l-15.4,8.9L1311.5,488.7z M1311.5,433.7
	v-17.7l15.4-8.9l15.4,8.9v17.7l-15.4,8.9L1311.5,433.7z M1326.9,387.4l-15.4-8.9v-17.7l15.4-8.9l15.4,8.9v17.7L1326.9,387.4z
	 M1311.5,323.5v-17.7l15.4-8.9l15.4,8.9v17.7l-15.4,8.9L1311.5,323.5z M1311.5,268.4v-17.7l15.4-8.9l15.4,8.9v17.7l-15.4,8.9
	L1311.5,268.4z M1311.5,213.4v-17.7l15.4-8.9l15.4,8.9v17.7l-15.4,8.9L1311.5,213.4z M1311.5,158.4v-17.7l15.4-8.9l15.4,8.9v17.7
	l-15.4,8.9L1311.5,158.4z M1311.5,103.4V85.7l15.4-8.9l15.4,8.9v17.7l-15.4,8.9L1311.5,103.4z M1326.4,58.2v17.7l-15.4,8.9
	l-15.4-8.9V58.2l15.4-8.9L1326.4,58.2z M1279.7,30.7l15.4-8.9l15.4,8.9v17.7l-15.4,8.9l-15.4-8.9V30.7z M1294.6,58.2v17.7l-15.4,8.9
	l-15.4-8.9V58.2l15.4-8.9L1294.6,58.2z M1248,30.7l15.4-8.9l15.4,8.9v17.7l-15.4,8.9l-15.4-8.9V30.7z M1262.8,58.2v17.7l-15.4,8.9
	l-15.4-8.9V58.2l15.4-8.9L1262.8,58.2z M1216.2,30.7l15.4-8.9l15.4,8.9v17.7l-15.4,8.9l-15.4-8.9V30.7z M1231.1,58.2v17.7l-15.4,8.9
	l-15.4-8.9V58.2l15.4-8.9L1231.1,58.2z M1184.4,30.7l15.4-8.9l15.4,8.9v17.7l-15.4,8.9l-15.4-8.9V30.7z M1199.3,58.2v17.7l-15.4,8.9
	l-15.4-8.9V58.2l15.4-8.9L1199.3,58.2z M1152.6,30.7l15.4-8.9l15.4,8.9v17.7l-15.4,8.9l-15.4-8.9V30.7z M1167.5,58.2v17.7l-15.4,8.9
	l-15.4-8.9V58.2l15.4-8.9L1167.5,58.2z M1120.9,30.7l15.4-8.9l15.4,8.9v17.7l-15.4,8.9l-15.4-8.9V30.7z M1135.7,58.2v17.7l-15.4,8.9
	l-15.4-8.9V58.2l15.4-8.9L1135.7,58.2z M1089.1,30.7l15.4-8.9l15.4,8.9v17.7l-15.4,8.9l-15.4-8.9V30.7z M1104,58.2v17.7l-15.4,8.9
	l-15.4-8.9V58.2l15.4-8.9L1104,58.2z M1057.3,30.7l15.4-8.9l15.4,8.9v17.7l-15.4,8.9l-15.4-8.9V30.7z M1072.2,58.2v17.7l-15.4,8.9
	l-15.4-8.9V58.2l15.4-8.9L1072.2,58.2z M1025.5,30.7l15.4-8.9l15.4,8.9v17.7l-15.4,8.9l-15.4-8.9V30.7z M1040.4,58.2v17.7l-15.3,8.8
	l-15.5-8.9V58.2l15.4-8.9L1040.4,58.2z M993.8,30.7l15.4-8.9l15.4,8.9v17.7l-15.3,8.8l-15.5-8.9V30.7z M1008.6,58.2v17.6l-15.4,8.9
	l-15.4-8.9V58l15.3-8.8L1008.6,58.2z M962,30.5l15.3-8.8l15.5,9v17.6l-15.4,8.9L962,48.3V30.5z M976.9,58v17.7l-15.4,8.9l-15.4-8.9
	V58l15.4-8.9L976.9,58z M930.2,30.5l15.4-8.9l15.4,8.9v17.7l-15.4,8.9l-15.4-8.9V30.5z M945.1,58v17.7l-15.4,8.9l-15.4-8.9V58
	l15.4-8.9L945.1,58z M898.5,30.5l15.4-8.9l15.4,8.9v17.7l-15.4,8.9l-15.4-8.9V30.5z M913.3,58v17.7l-15.4,8.9l-15.4-8.9V58l15.4-8.9
	L913.3,58z M866.7,30.5l15.4-8.9l15.4,8.9v17.7l-15.4,8.9l-15.4-8.9V30.5z M881.5,58v17.7l-15.4,8.9l-15.4-8.9V58l15.4-8.9L881.5,58
	z M834.9,30.5l15.4-8.9l15.4,8.9v17.7l-15.4,8.9l-15.4-8.9V30.5z M849.8,58v17.7l-15.4,8.9L819,75.8V58l15.4-8.9L849.8,58z
	 M803.1,30.5l15.4-8.9l15.4,8.9v17.7l-15.4,8.9l-15.4-8.9V30.5z M818,58v17.7l-15.4,8.9l-15.4-8.9V58l15.4-8.9L818,58z M771.4,30.5
	l15.4-8.9l15.4,8.9v17.7l-15.4,8.9l-15.4-8.9V30.5z M786.2,58v17.7l-15.4,8.9l-15.4-8.9V58l15.4-8.9L786.2,58z M739.6,30.5l15.4-8.9
	l15.4,8.9v17.7L755,57.1l-15.4-8.9V30.5z M754.5,58v17.7l-15.4,8.9l-15.4-8.9V58l15.4-8.9L754.5,58z M707.8,30.5l15.4-8.9l15.4,8.9
	v17.7l-15.4,8.9l-15.4-8.9V30.5z M722.7,58v17.7l-15.4,8.9l-15.4-8.9V58l15.4-8.9L722.7,58z M676,30.5l15.4-8.9l15.4,8.9v17.7
	l-15.4,8.9L676,48.3V30.5z M690.9,58v17.7l-15.4,8.9l-15.4-8.9V58l15.4-8.9L690.9,58z M644.3,30.5l15.4-8.9l15.4,8.9v17.7l-15.4,8.9
	l-15.4-8.9V30.5z M659.1,58v17.7l-15.4,8.9l-15.4-8.9V58l15.4-8.9L659.1,58z M612.5,30.5l15.4-8.9l15.4,8.9v17.7l-15.4,8.9
	l-15.4-8.9V30.5z M627.4,58v17.7L612,84.6l-15.4-8.9V58l15.4-8.9L627.4,58z M580.7,30.5l15.4-8.9l15.4,8.9v17.7l-15.4,8.9l-15.4-8.9
	V30.5z M595.6,58v17.7l-15.4,8.9l-15.4-8.9V58l15.4-8.9L595.6,58z M548.9,30.5l15.4-8.9l15.4,8.9v17.7l-15.4,8.9l-15.4-8.9V30.5z
	 M563.8,58v17.7l-15.4,8.9l-15.4-8.9V58l15.4-8.9L563.8,58z M517.2,30.5l15.4-8.9l15.4,8.9v17.7l-15.4,8.9l-15.4-8.9V30.5z M532,58
	v17.7l-15.2,8.8l-15.5-9V58l15.4-8.9L532,58z M485.4,30.5l15.4-8.9l15.4,8.9v17.7l-15.2,8.8l-15.5-9V30.5z M500.3,58v17.6l-15.4,8.9
	l-15.4-8.9V57.9l15.2-8.8L500.3,58z M453.6,30.4l15.2-8.8l15.5,9v17.6L469,57l-15.4-8.9V30.4z M468.5,57.9v17.7l-15.4,8.9l-15.4-8.9
	V57.9l15.4-8.9L468.5,57.9z M421.9,30.4l15.4-8.9l15.4,8.9v17.7L437.2,57l-15.4-8.9V30.4z M436.7,57.9v17.7l-15.4,8.9L406,75.6V57.9
	l15.4-8.9L436.7,57.9z M390.1,30.4l15.4-8.9l15.4,8.9v17.7L405.5,57l-15.4-8.9V30.4z M405,57.9v17.7l-15.4,8.9l-15.4-8.9V57.9
	l15.4-8.9L405,57.9z M358.3,30.4l15.4-8.9l15.4,8.9v17.7L373.7,57l-15.4-8.9V30.4z M373.2,57.9v17.7l-15.4,8.9l-15.4-8.9V57.9
	l15.4-8.9L373.2,57.9z M326.5,30.4l15.4-8.9l15.4,8.9v17.7L341.9,57l-15.4-8.9V30.4z M341.4,57.9v17.7L326,84.5l-15.4-8.9V57.9
	L326,49L341.4,57.9z M294.8,30.4l15.4-8.9l15.4,8.9v17.7L310.1,57l-15.4-8.9V30.4z M309.6,57.9v17.7l-15.4,8.9l-15.4-8.9V57.9
	l15.4-8.9L309.6,57.9z M263,30.4l15.4-8.9l15.4,8.9v17.7L278.4,57L263,48.1V30.4z M277.9,57.9v17.7l-15.4,8.9l-15.4-8.9V57.9
	l15.4-8.9L277.9,57.9z M231.2,30.4l15.4-8.9l15.4,8.9v17.7L246.6,57l-15.4-8.9V30.4z M246.1,57.9v17.7l-15.4,8.9l-15.4-8.9V57.9
	l15.4-8.9L246.1,57.9z M199.4,30.4l15.4-8.9l15.4,8.9v17.7L214.8,57l-15.4-8.9V30.4z M214.3,57.9v17.7l-15.4,8.9l-15.4-8.9V57.9
	l15.4-8.9L214.3,57.9z M167.7,30.4l15.4-8.9l15.4,8.9v17.7L183,57l-15.4-8.9V30.4z M182.5,57.9v17.7l-15.4,8.9l-15.4-8.9V57.9
	l15.4-8.9L182.5,57.9z M135.9,30.4l15.4-8.9l15.4,8.9v17.7L151.3,57l-15.4-8.9V30.4z M150.8,57.9v17.7l-15.4,8.9L120,75.6V57.9
	l15.4-8.9L150.8,57.9z M104.1,30.4l15.4-8.9l15.4,8.9v17.7L119.5,57l-15.4-8.9V30.4z M119,57.9v17.7l-15.4,8.9l-15.4-8.9V57.9
	l15.4-8.9L119,57.9z M72.3,30.4l15.4-8.9l15.4,8.9v17.7L87.7,57l-15.4-8.9V30.4z M87.2,57.9v17.7l-15.4,8.9l-15.4-8.9V57.9L71.8,49
	L87.2,57.9z M40.6,30.4L56,21.5l15.4,8.9v17.7L56,57l-15.4-8.9V30.4z M55.4,57.9v17.7l-15.4,8.9l-15.4-8.9V57.9L40.1,49L55.4,57.9z
	 M8.8,48.1V30.4l15.4-8.9l15.4,8.9v17.7L24.2,57L8.8,48.1z M8.8,103V85.4l15.4-8.9l15.4,8.9v17.7l-15.3,8.8L8.8,103z M8.8,158v-17.7
	l15.3-8.8l15.5,8.9V158l-15.4,8.9L8.8,158z M8.8,213v-17.7l15.4-8.9l15.4,8.9V213l-15.4,8.9L8.8,213z M8.8,268v-17.7l15.4-8.9
	l15.4,8.9V268l-15.4,8.9L8.8,268z M8.8,323v-17.7l15.4-8.9l15.4,8.9V323l-15.4,8.9L8.8,323z M8.8,378.1v-17.7l15.4-8.9l15.4,8.9
	v17.7l-15.4,8.9L8.8,378.1z M8.8,433.2v-17.7l15.4-8.9l15.4,8.9v17.7l-15.4,8.9L8.8,433.2z M8.8,488.3v-17.7l15.4-8.9l15.4,8.9v17.7
	l-15.4,8.9L8.8,488.3z M8.8,543.3v-17.7l15.4-8.9l15.4,8.9v17.7l-15.4,8.9L8.8,543.3z M8.8,598.3v-17.7l15.4-8.9l15.4,8.9v17.7
	l-15.4,8.9L8.8,598.3z M8.8,653.3v-17.7l15.4-8.9l15.4,8.9v17.7l-15.4,8.9L8.8,653.3z M8.8,708.3v-17.7l15.4-8.9l15.4,8.9v17.7
	l-15.4,8.9L8.8,708.3z M55.5,735.8l-15.4,8.9l-15.4-8.9v-17.7l15.4-8.9l15.4,8.9V735.8z M40.6,708.3v-17.7l15.4-8.9l15.4,8.9v17.7
	L56,717.2L40.6,708.3z M87.2,735.8l-15.4,8.9l-15.4-8.9v-17.7l15.4-8.9l15.4,8.9V735.8z M72.4,708.3v-17.7l15.4-8.9l15.4,8.9v17.7
	l-15.4,8.9L72.4,708.3z M119,735.8l-15.4,8.9l-15.4-8.9v-17.7l15.4-8.9l15.4,8.9V735.8z M104.1,708.3v-17.7l15.4-8.9l15.4,8.9v17.7
	l-15.4,8.9L104.1,708.3z M150.8,735.8l-15.4,8.9l-15.4-8.9v-17.7l15.4-8.9l15.4,8.9V735.8z M135.9,708.3v-17.7l15.4-8.9l15.4,8.9
	v17.7l-15.4,8.9L135.9,708.3z M182.6,735.8l-15.4,8.9l-15.4-8.9v-17.7l15.4-8.9l15.4,8.9V735.8z M167.7,708.3v-17.7l15.4-8.9
	l15.4,8.9v17.7l-15.4,8.9L167.7,708.3z M214.3,735.8l-15.4,8.9l-15.4-8.9v-17.7l15.4-8.9l15.4,8.9V735.8z M199.5,708.3v-17.7
	l15.4-8.9l15.4,8.9v17.7l-15.4,8.9L199.5,708.3z M246.1,735.8l-15.4,8.9l-15.4-8.9v-17.7l15.4-8.9l15.4,8.9V735.8z M231.2,708.3
	v-17.7l15.4-8.9l15.4,8.9v17.7l-15.4,8.9L231.2,708.3z M277.9,735.8l-15.4,8.9l-15.4-8.9v-17.7l15.4-8.9l15.4,8.9V735.8z M263,708.3
	v-17.7l15.4-8.9l15.4,8.9v17.7l-15.4,8.9L263,708.3z M309.7,735.8l-15.4,8.9l-15.4-8.9v-17.7l15.4-8.9l15.4,8.9V735.8z M294.8,708.3
	v-17.7l15.4-8.9l15.4,8.9v17.7l-15.4,8.9L294.8,708.3z M341.4,735.8l-15.4,8.9l-15.4-8.9v-17.7l15.4-8.9l15.4,8.9V735.8z
	 M326.6,708.3v-17.7l15.3-8.8l15.5,8.9v17.6l-15.4,8.9L326.6,708.3z M373.2,735.8l-15.4,8.9l-15.4-8.9v-17.7l15.3-8.8l15.5,8.9
	V735.8z M358.3,708.3v-17.6l15.4-8.9l15.4,8.9v17.7l-15.3,8.8L358.3,708.3z M405,735.9l-15.3,8.8l-15.5-8.9v-17.6l15.4-8.9l15.4,8.9
	V735.9z M390.1,708.4v-17.7l15.4-8.9l15.4,8.9v17.7l-15.4,8.9L390.1,708.4z M436.8,735.9l-15.4,8.9l-15.4-8.9v-17.7l15.4-8.9
	l15.4,8.9V735.9z M421.9,708.4v-17.7l15.4-8.9l15.4,8.9v17.7l-15.4,8.9L421.9,708.4z M468.5,735.9l-15.4,8.9l-15.4-8.9v-17.7
	l15.4-8.9l15.4,8.9V735.9z M453.7,708.4v-17.7l15.4-8.9l15.4,8.9v17.7l-15.4,8.9L453.7,708.4z M500.3,735.9l-15.4,8.9l-15.4-8.9
	v-17.7l15.4-8.9l15.4,8.9V735.9z M485.4,708.4v-17.7l15.4-8.9l15.4,8.9v17.7l-15.4,8.9L485.4,708.4z M532.1,735.9l-15.4,8.9
	l-15.4-8.9v-17.7l15.4-8.9l15.4,8.9V735.9z M517.2,708.4v-17.7l15.4-8.9l15.4,8.9v17.7l-15.4,8.9L517.2,708.4z M563.9,735.9
	l-15.4,8.9l-15.4-8.9v-17.7l15.4-8.9l15.4,8.9V735.9z M549,708.4v-17.7l15.4-8.9l15.4,8.9v17.7l-15.4,8.9L549,708.4z M595.6,735.9
	l-15.4,8.9l-15.4-8.9v-17.7l15.4-8.9l15.4,8.9V735.9z M580.8,708.4v-17.7l15.4-8.9l15.4,8.9v17.7l-15.4,8.9L580.8,708.4z
	 M627.4,735.9l-15.4,8.9l-15.4-8.9v-17.7l15.4-8.9l15.4,8.9V735.9z M612.5,708.4v-17.7l15.4-8.9l15.4,8.9v17.7l-15.4,8.9
	L612.5,708.4z M659.2,735.9l-15.4,8.9l-15.4-8.9v-17.7l15.4-8.9l15.4,8.9V735.9z M644.3,708.4v-17.7l15.4-8.9l15.4,8.9v17.7
	l-15.4,8.9L644.3,708.4z M690.9,735.9l-15.4,8.9l-15.4-8.9v-17.7l15.4-8.9l15.4,8.9V735.9z M676.1,708.4v-17.7l15.4-8.9l15.4,8.9
	v17.7l-15.4,8.9L676.1,708.4z M722.7,735.9l-15.4,8.9l-15.4-8.9v-17.7l15.4-8.9l15.4,8.9V735.9z M707.8,708.4v-17.7l15.4-8.9
	l15.4,8.9v17.7l-15.4,8.9L707.8,708.4z M754.5,735.9l-15.4,8.9l-15.4-8.9v-17.7l15.4-8.9l15.4,8.9V735.9z M739.6,708.4v-17.7
	l15.4-8.9l15.4,8.9v17.7l-15.4,8.9L739.6,708.4z M786.3,735.9l-15.4,8.9l-15.4-8.9v-17.7l15.4-8.9l15.4,8.9V735.9z M771.4,708.4
	v-17.7l15.4-8.9l15.4,8.9v17.7l-15.4,8.9L771.4,708.4z M818,735.9l-15.4,8.9l-15.4-8.9v-17.7l15.4-8.9l15.4,8.9V735.9z M803.2,708.4
	v-17.7l15.4-8.9l15.4,8.9v17.7l-15.4,8.9L803.2,708.4z M849.8,735.9l-15.4,8.9l-15.4-8.9v-17.7l15.4-8.9l15.4,8.9V735.9z
	 M834.9,708.4v-17.7l15.2-8.8l15.5,9v17.6l-15.4,8.9L834.9,708.4z M881.6,736l-15.4,8.9l-15.4-8.9v-17.7l15.2-8.8l15.5,9V736z
	 M866.7,708.4v-17.6l15.4-8.9l15.4,8.9v17.7l-15.2,8.8L866.7,708.4z M913.3,736.1l-15.2,8.8l-15.5-9v-17.6l15.4-8.9l15.4,8.9V736.1z
	 M898.5,708.6v-17.7l15.4-8.9l15.4,8.9v17.7l-15.4,8.9L898.5,708.6z M945.1,736.1l-15.4,8.9l-15.4-8.9v-17.7l15.4-8.9l15.4,8.9
	V736.1z M930.2,708.6v-17.7l15.4-8.9l15.4,8.9v17.7l-15.4,8.9L930.2,708.6z M976.9,736.1l-15.4,8.9l-15.4-8.9v-17.7l15.4-8.9
	l15.4,8.9V736.1z M962,708.6v-17.7l15.4-8.9l15.4,8.9v17.7l-15.4,8.9L962,708.6z M1008.7,736.1l-15.4,8.9l-15.4-8.9v-17.7l15.4-8.9
	l15.4,8.9V736.1z M993.8,708.6v-17.7l15.4-8.9l15.4,8.9v17.7l-15.4,8.9L993.8,708.6z M1040.4,736.1l-15.4,8.9l-15.4-8.9v-17.7
	l15.4-8.9l15.4,8.9V736.1z M1025.6,708.6v-17.7l15.4-8.9l15.4,8.9v17.7l-15.4,8.9L1025.6,708.6z M1072.2,736.1l-15.4,8.9l-15.4-8.9
	v-17.7l15.4-8.9l15.4,8.9V736.1z M1057.3,708.6v-17.7l15.4-8.9l15.4,8.9v17.7l-15.4,8.9L1057.3,708.6z M1104,736.1l-15.4,8.9
	l-15.4-8.9v-17.7l15.4-8.9l15.4,8.9V736.1z M1089.1,708.6v-17.7l15.4-8.9l15.4,8.9v17.7l-15.4,8.9L1089.1,708.6z M1135.8,736.1
	l-15.4,8.9l-15.4-8.9v-17.7l15.4-8.9l15.4,8.9V736.1z M1120.9,708.6v-17.7l15.4-8.9l15.4,8.9v17.7l-15.4,8.9L1120.9,708.6z
	 M1167.5,736.1l-15.4,8.9l-15.4-8.9v-17.7l15.4-8.9l15.4,8.9V736.1z M1152.7,708.6v-17.7l15.4-8.9l15.4,8.9v17.7l-15.4,8.9
	L1152.7,708.6z M1199.3,736.1l-15.4,8.9l-15.4-8.9v-17.7l15.4-8.9l15.4,8.9V736.1z M1184.4,708.6v-17.7l15.4-8.9l15.4,8.9v17.7
	l-15.4,8.9L1184.4,708.6z M1231.1,736.1l-15.4,8.9l-15.4-8.9v-17.7l15.4-8.9l15.4,8.9V736.1z M1216.2,708.6v-17.7l15.4-8.9l15.4,8.9
	v17.7l-15.4,8.9L1216.2,708.6z M1262.9,736.1l-15.4,8.9l-15.4-8.9v-17.7l15.4-8.9l15.4,8.9V736.1z M1248,708.6v-17.7l15.4-8.9
	l15.4,8.9v17.7l-15.4,8.9L1248,708.6z M1294.6,736.1l-15.4,8.9l-15.4-8.9v-17.7l15.4-8.9l15.4,8.9V736.1z M1279.8,708.6v-17.7
	l15.4-8.9l15.4,8.9v17.7l-15.4,8.9L1279.8,708.6z M1326.4,736.1L1311,745l-15.4-8.9v-17.7l15.4-8.9l15.4,8.9V736.1z M1311.5,708.6
	v-17.7l15.4-8.9l15.4,8.9v17.7l-15.4,8.9L1311.5,708.6z M1358.2,718.4v17.7l-15.4,8.9l-15.4-8.9v-17.7l15.4-8.9L1358.2,718.4z
	 M1358.2,663.5v17.6l-15.4,8.9l-15.4-8.9v-17.7l15.3-8.8L1358.2,663.5z M1358.2,608.5v17.7l-15.3,8.8l-15.5-9v-17.6l15.4-8.9
	L1358.2,608.5z M1358.2,553.5v17.7l-15.4,8.9l-15.4-8.9v-17.7l15.4-8.9L1358.2,553.5z M1358.2,498.5v17.7l-15.4,8.9l-15.4-8.9v-17.7
	l15.4-8.9L1358.2,498.5z M1358.2,443.5v17.7l-15.4,8.9l-15.4-8.9v-17.7l15.4-8.9L1358.2,443.5z M1358.2,388.2V406l-15.4,8.9
	l-15.4-8.9v-17.8l15.4-8.9L1358.2,388.2z M1358.2,333.2V351l-15.4,8.9l-15.4-8.9v-17.7l15.4-8.9L1358.2,333.2z M1358.2,278.2v17.7
	l-15.4,8.9l-15.4-8.9v-17.7l15.4-8.9L1358.2,278.2z M1358.2,223.2v17.7l-15.4,8.9l-15.4-8.9v-17.7l15.4-8.9L1358.2,223.2z
	 M1358.2,168.2v17.7l-15.4,8.9l-15.4-8.9v-17.7l15.4-8.9L1358.2,168.2z M1358.2,113.2v17.7l-15.4,8.9l-15.4-8.9v-17.7l15.4-8.9
	L1358.2,113.2z M1358.2,58.2v17.7l-15.4,8.9l-15.4-8.9V58.2l15.4-8.9L1358.2,58.2z"/>
</svg>
