<?xml version="1.0" encoding="utf-8"?>
<!-- Generator: Adobe Illustrator 25.2.0, SVG Export Plug-In . SVG Version: 6.00 Build 0)  -->
<svg version="1.1" id="Layer_1" xmlns="http://www.w3.org/2000/svg" xmlns:xlink="http://www.w3.org/1999/xlink" x="0px" y="0px"
	 viewBox="0 0 1366 127" style="enable-background:new 0 0 1366 127;" xml:space="preserve">
<style type="text/css">
	.st0{opacity:0.25;}
	.st1{fill:none;stroke:#84C441;stroke-width:1.1646;stroke-miterlimit:10;}
</style>
<g class="st0">
	<path class="st1" d="M-318,510.9c73.6-37.7,130.4-219.2,201.4-281.8c38.8-34.1,79.1,3.2,115.1,53C29.6,324.6,58.6,382,91,412.9
		c34.7,33.3,69.6,27.7,105.2,24.5C317,425.8,437.7,388.9,558.7,384c140.1-5.6,279.2-75.9,419.1-71.5c66.8,2,132.9,34.1,199.5,46.6
		c95,17.7,191.1,24.5,286.4,30.1"/>
	<path class="st1" d="M-318,489.6c75.2-47.8,132.7-236.4,205.1-307.5c39-38.5,78.8,4.8,114.4,59.4c30.7,47.4,59.3,110.4,91.8,145.3
		c34.5,37.3,69.3,33.3,105.2,30.5c120.7-9.6,240.9-48.6,361.8-51.8c139.2-3.6,277.5-79.5,416.6-74.7c66.1,2.4,131.7,34.1,197.7,46.6
		c95.9,18.9,193.4,30.9,289.5,34.5"/>
	<path class="st1" d="M-318,469.1c75.3-47.8,133-235.6,205.6-306.7c39-38.5,78.6,4.8,114.3,59.4C32.4,268.4,61.1,330.6,93.3,366
		c34.4,37.3,69.3,34.1,105.1,31.7c121.5-7.6,242.6-45,364.2-46.6c138.2-2,275.7-87.9,414-80.3c66,3.2,131.2,36.1,197.1,50.2
		c96.2,20.5,193.9,40.9,290.2,45"/>
	<path class="st1" d="M-318,449.1c75.3-47.8,133.3-234,205.7-305.5c39-38.1,78.5,4.8,114.1,59c30.6,46.2,59.3,107.2,91.4,142.1
		c34.4,36.9,69.3,34.1,105.2,32.1c122.4-6,244.3-43,366.7-43.8c137.4-0.8,273.9-92.7,411.1-83.1c162.5,11.2,324.6,100,487.3,106.8"
		/>
	<path class="st1" d="M-318,429.4c75.2-47.8,133-232.8,205.6-303.5c39-37.7,78.4,4.8,114.1,57.8c30.6,45.4,59.4,105.6,91.4,139.7
		c34.5,36.9,69.4,34.1,105.2,32.9c123.2-5.6,246-43,369.3-43.4c136.4-0.4,272.3-94.3,408.5-83.1c162.5,13.2,324.7,110.4,487.5,117.2
		"/>
	<path class="st1" d="M-318,410.5c75.1-47.4,132.8-230.8,205.1-301.1c38.8-37.7,78.4,4.8,114.1,57c30.6,45,59.5,104,91.8,137.3
		c34.5,36.5,69.6,34.1,105.5,32.1c124.2-5.6,247.8-45,371.9-45c135.4-0.4,270.6-93.5,405.9-80.7c65.9,6,131.1,36.5,196.8,52.2
		c42.4,9.6,85.1,10.4,127.4,25.3C1355,307,1409,334.3,1464,337.1"/>
	<path class="st1" d="M-318,392.5c74.6-46.6,132.2-229.2,204.3-298.7c38.8-37.3,78.4,4.8,114.1,55.8c30.7,43.8,59.9,101.6,92,134.5
		c34.7,35.7,69.7,33.7,105.8,31.7c125-6,249.6-47.8,374.6-48.6c134.6-0.8,269-89.9,403.5-76.3c65.9,6.4,131.3,35.7,197.1,51
		c42.4,9.6,84.9,10.8,127.2,28.1c54.4,22.5,108.3,53.8,163.1,56.6"/>
	<path class="st1" d="M-318,375.2c74.2-46.2,131.3-226.8,202.9-295.5c38.7-37.3,78.4,4.8,114.3,54.2c31,43,60.2,99.2,92.4,131.3
		c34.8,34.9,70,33.3,106,30.9c126-6.8,251.2-52.2,377.2-53.8c133.6-1.2,267.5-83.1,401-69c66,6.8,131.8,34.1,197.7,49
		c42.4,9.6,84.9,11.2,127,30.9c54.3,25.3,107.9,60.2,162.9,63.4"/>
	<path class="st1" d="M-318,358.3c73.6-45.4,130.5-224.4,201.5-292.2c38.7-36.9,78.4,4,114.6,53c31.1,41.7,60.7,96.7,93,128.1
		c35,34.1,70.3,32.1,106.5,30.1c126.8-8.8,253-57.8,379.9-60.2c132.8-2.8,266.2-74.7,398.8-60.2c66.2,7.6,132.2,31.7,198.4,46.2
		c42.4,9.2,84.7,11.2,126.8,33.3c54.1,28.5,107.3,67.4,162.3,70.7"/>
	<path class="st1" d="M-318,341.9c73-44.6,129.4-221.6,199.8-288.6c38.6-36.9,78.5,4,114.7,51c31.3,40.5,61.1,93.9,93.6,124.4
		C125.4,262,160.7,260,197,257.2c127.8-10.8,254.7-64.6,382.5-68.6c131.9-4,264.8-64.6,396.7-49.4c66.6,7.6,132.8,29.3,199.2,43
		c42.4,8.4,84.7,10.8,126.7,35.7c54,31.3,106.6,74.3,161.6,77.5"/>
	<path class="st1" d="M-318,326.6c72.4-43.8,128-218.8,197.9-284.6c38.4-36.5,78.6,3.6,115,49c31.4,39.3,61.7,91.1,94.2,120.4
		c35.5,32.1,70.9,30.5,107.3,26.5c128.6-13.2,256.4-72.7,385.2-78.3c131.1-5.6,263.7-52.2,394.6-37.7
		c66.8,7.6,133.5,26.1,200.3,38.9c42.4,8,84.6,10.4,126.6,37.3c53.8,34.5,105.8,80.7,160.8,85.1"/>
	<path class="st1" d="M-318,311.4c71.6-42.6,126.7-216,195.8-280.2C-83.9-5-43.5,34.8-7,78.5c31.8,37.7,62.3,88.3,94.9,116.8
		c35.6,31.3,71.1,28.9,107.7,24.9c129.4-16.1,257.9-80.7,387.7-88.3c130.4-7.6,262.3-38.9,392.9-24.5
		c67.3,7.6,134.3,22.9,201.4,34.1c42.4,6.8,84.5,9.2,126.2,39.3c53.4,37.7,104.9,87.9,159.8,91.9"/>
	<path class="st1" d="M-318,296.9c70.8-41.7,125.1-212.8,193.4-276.2C-86.4-15-45.5,24-9,66.1c32,36.9,62.9,85.1,95.7,112.8
		c35.9,30.1,71.6,27.7,108.3,22.5c130.3-18.9,259.5-90.3,390-99.6c129.9-9.2,261.4-23.3,391.2-9.6c67.6,7.6,135.2,19.3,202.8,28.5
		c42.4,6,84.4,8.4,126,40.5c53.1,40.9,103.9,94.7,158.8,99.2"/>
	<path class="st1" d="M-318,282.9c69.9-40.5,123.5-209.5,190.7-271.8C-89-24.6-48,13.9-11.4,54.1c32.3,35.7,63.6,82.3,96.7,108.4
		c36.2,28.9,71.9,26.1,108.9,20.1C325.2,160.4,455,82.6,586.4,70.9c129.3-11.2,260.4-7.6,389.7,5.6c68.1,6.8,136.1,14.9,204.3,22.9
		c42.5,5.2,84.3,7.6,125.9,42.2c52.7,43.8,102.7,101.6,157.5,106"/>
	<path class="st1" d="M-318,270c69-39.3,121.7-206.3,188-267c38.1-34.9,79.5,2.8,116.2,40.5C18.8,77.7,50.5,122.7,83.9,148
		c36.5,27.7,72.2,24.9,109.4,17.7C325.2,140.4,455.5,57.3,587.6,41.2C716.3,26,847.3,50.4,976.1,63.3
		c68.5,6.4,137.1,10.8,205.7,16.9c42.5,3.6,84,6,125.5,43.4c52.3,47.4,101.5,108.4,156.3,113.2"/>
	<path class="st1" d="M-318,257.2C-250.1,219.4-198.2,54.5-132.9-5c38-34.5,79.7,2.4,116.6,38.9c33,32.9,65,75.9,98.7,100
		c36.7,26.5,72.7,23.3,110,14.9C325.1,119.9,455.9,31.2,588.8,11.9C717.1-7,848,39.2,976.3,50.8c69.1,6,138.3,5.6,207.2,9.6
		c42.8,2.8,83.8,4,125.3,44.6c51.9,50.6,100.2,114.8,154.9,120"/>
	<path class="st1" d="M-318,245.1C-251.1,208.2-200.3,46-135.7-12.2c38-34.1,80.1,2,117,36.5c72.8,67.8,133.6,126.9,210.4,108
		C325,100.2,456.1,4.7,589.7-17.8c127.8-22.5,258.5,44.6,386.6,54.6c69.6,5.6,139.4,0.8,208.9,3.2c42.8,1.2,83.7,2.4,125,45.8
		c51.5,53.8,98.7,122,153.3,127.3"/>
	<path class="st1" d="M-318,233.5C-252.1,197.8-202.2,38-138.8-19c38-34.1,80.3,1.2,117.5,33.7c73.3,64.6,135.2,121.6,211.9,101.2
		C324.4,79.8,456-21.4,590.2-47.1c62.9-12,127.6,18.1,190.5,33.3C845.9,1.5,911.1,20.7,976.5,26c70.2,5.2,140.4-4,210.7-4
		c42.9,0,83.5,0.4,124.8,46.6c50.9,57,97.3,128.5,151.9,134.1"/>
	<path class="st1" d="M-318,222.3C-253.2,188.1-204.2,30-142-25c37.9-33.7,80.6,0.4,117.8,31.3c73.6,60.6,136.8,116,213.6,93.5
		C323.9,60.5,455.6-47.5,590.3-76.4c62.7-13.6,127.9,22.9,190.4,40.9c65,19.3,130.4,44.6,195.5,48.6c70.9,4.8,141.7-9.2,212.4-11.6
		c43-1.2,83.3-2,124.4,47.4c50.6,60.2,95.7,135.3,150.4,140.9"/>
	<path class="st1" d="M-318,211.8c63.6-32.9,111.6-188.3,172.8-242.1c37.9-33.3,81,0,118.3,28.9C47.2,56.5,111.7,109.5,188.4,85
		C323.3,42,455-71.6,590.4-104.1c62.6-14.9,128.2,27.7,190.4,49C845.7-32.7,911.2-1.3,976.5,2.3c71.5,3.6,142.9-14.5,214.4-19.3
		c43-2.8,83.1-4,124.2,48.2c50,63.4,94.1,141.7,148.8,147.3"/>
	<path class="st1" d="M-318,201.8c62.5-31.7,109.6-184.7,169.7-236.8C-110.4-68-67-35.9-29.6-8.6C44.9,46,110.5,97,187.3,70.9
		C322.5,24.8,454.4-94.5,590.1-130.2c62.5-16.5,128.6,31.7,190.5,56.6c64.8,26.1,130.5,63,195.9,65.8c72.1,2.8,144-20.1,216.2-27.3
		c43.1-4,82.9-6.4,123.9,48.6c49.4,67,92.5,147.7,147.1,153.7"/>
	<path class="st1" d="M-318,192.2c61.6-30.5,107.4-181.4,166.5-232c37.8-32.9,81.7-1.2,119.3,24.5C42.5,36,109.3,85.4,186.4,57.3
		C321.8,8.3,453.7-117,589.6-155.5c62.5-17.7,129.1,36.1,190.9,64.2C845-62,911.5-19.4,976.7-17c72.8,2.4,145.3-25.3,218-34.5
		c43.3-5.6,82.8-9.2,123.6,49c49,70.3,91,154.2,145.5,159.8"/>
	<path class="st1" d="M-318,182.9C-257.6,154-212.6,5.1-154.7-44.3c37.9-32.1,82-2,119.8,22.1c75.2,47.8,143.1,95.5,220,65.8
		C320.6-8.2,452.4-138.6,588.5-179.6c62.5-18.9,129.7,40.1,191.3,71.1c64.5,32.1,131.3,80.3,196.8,81.9
		c73.4,1.2,146.5-30.9,219.9-42.6c43.3-6.8,82.7-11.6,123.2,49.4c48.4,73.5,89.3,160.2,143.8,165.8"/>
	<path class="st1" d="M-318,174.5c59.3-28.1,103.3-173.8,160-222c37.9-31.7,82.2-2.4,120.1,19.7c75.5,44.6,144.6,90.3,221.6,59.4
		C319.3-23,450.9-157.9,587-201.3c62.5-19.7,130.4,43.8,191.9,77.5c64.5,34.9,131.9,88.3,197.6,88.7c74.1,0.4,147.8-36.1,221.7-50.2
		c43.4-8,82.6-14.5,122.9,50.2c47.9,76.3,87.6,165.8,142.2,171.4"/>
	<path class="st1" d="M-318,166.5C-259.8,140-216.8-4.1-161-51.1c37.9-31.7,82.6-2.8,120.7,17.7c75.8,41.7,145.9,85.5,223,53.8
		c135.7-56.6,266.8-195.9,402.9-241.3c62.6-20.5,131.2,47.4,192.8,83.1c64.2,37.3,133,100,198.5,95.5
		c74.7-5.2,148.9-41.7,223.6-57.4c43.4-9.2,82.6-17.3,122.6,50.2c47.3,79.5,85.7,172.2,140.6,177"/>
	<path class="st1" d="M-318,159.2c57.2-25.7,99.2-167.4,153.9-212.8c38-31.3,82.8-3.6,121.1,15.3C33.1,0.3,104.3,42,181.6,9.1
		c135.3-58.6,266-201.5,401.8-248.1c62.9-21.7,132.1,50.6,193.7,88.3c64.3,39.3,134.1,106.8,199.7,101.2
		c75.5-6.8,150.2-47,225.4-65.4c43.4-10.8,82.3-20.1,122.4,50.6c46.7,82.3,84,177.8,139,182.7"/>
	<path class="st1" d="M-318,152c56.1-24.5,97.3-164.2,151.1-208.3c38-31.3,83.1-4,121.5,13.6C31-7.8,103.2,33.2,180.4-0.9
		c135.1-59.4,265-206.3,400.6-253.3c63.1-22.5,133,52.6,194.9,92.3C840.4-121,911.1-49.5,977-56.3c76.1-8,151.3-51.4,227.1-71.9
		c43.4-11.6,82.3-22.5,122,50.6c46.4,85.5,82.3,183.5,137.6,187.5"/>
	<path class="st1" d="M-318,145.2c55.2-23.7,95.5-161,148.2-203.9c38.1-30.9,83.4-4.8,121.9,11.6C28.8-15,101.7,24.4,179.2-10.2
		C313.6-70.4,443-219.7,578-267.9c63.6-22.5,134.2,55,196.2,95.9C839-129,910.5-55.1,977-63.2c76.7-8.8,152.4-56.2,228.6-79.1
		c43.4-13.2,82.5-25.3,121.8,51C1373.2-2.9,1408.3,97,1463.5,101"/>
	<path class="st1" d="M-318,139.2c54.3-22.9,93.7-158.2,145.6-199.9c38.1-30.9,83.7-4.8,122.4,10.4c77,30.1,150.7,67.4,228.2,32.1
		c133.7-60.6,262.2-211.6,396.7-259.7c64.1-22.9,135.3,56.2,197.9,98.4C838-135.8,910.4-59.5,977.2-68
		c77.2-9.6,153.3-60.6,230.4-85.5c43.4-14.1,82.3-27.7,121.5,51c45.4,91.1,79.2,193.5,134.7,196.7"/>
	<path class="st1" d="M-318,133.5c53.4-22.5,92-155.4,143.2-196.3c38.2-30.9,83.9-5.2,122.7,8.4C25-27,99.5,9.1,176.8-25.4
		c133-59.4,260.4-212.4,394-259.3c64.8-22.9,136.6,56.6,199.7,100c65.7,44.2,139,121.6,206.5,112.4c77.8-10.8,154.4-65,231.7-91.1
		c43.4-14.9,82.6-30.1,121.4,51c44.9,93.5,77.8,198.3,133.5,201.1"/>
	<path class="st1" d="M-318,127.9c52.6-21.7,90.6-152.5,140.9-192.7c38.2-30.5,84.3-5.6,123.1,6.8C23.1-32.7,98.4,1.5,175.8-32.7
		c131.8-57.8,258.3-211.2,390.7-256.5c65.4-22.5,137.8,56.6,201.5,100C834.6-143.8,908.6-66.4,977-76.4
		c78.4-11.6,155.4-68.6,233.2-96.7c43.3-15.3,82.6-32.1,121.1,51.4C1375.8-25.4,1407.5,81,1463.4,83"/>
	<path class="st1" d="M-318,123.1c51.9-20.9,89.3-150.1,138.8-189.5c38.4-30.5,84.5-5.6,123.5,6c77.2,22.9,153,56.2,230.3,22.9
		c130.4-56.2,255.9-218.4,387.2-252.1c67-17.3,138.4,55,203.8,98.8c67.5,45,142.2,122,211.4,111.2c78.9-12,156.2-72.7,234.4-102
		c43.3-16.5,82.7-34.1,120.8,51.4c44.1,98.8,74.9,207.5,131.2,207.9"/>
	<path class="st1" d="M-318,118.3c51.3-20.5,88-147.7,137-186.7c38.4-30.5,84.6-5.6,123.7,5.2c77.2,20.9,153.6,53,230.9,20.9
		c129.1-53.4,252.9-213.2,382.9-244.9C697.7-321.3,835.8-60.4,977.2-82.8c79.4-12.4,156.8-75.9,235.7-106.8
		c43.1-16.9,82.8-35.7,120.7,51.4c43.7,101.2,73.6,212,130.3,211.2"/>
	<path class="st1" d="M-318,114.3C-267.3,93.8-231-31-182.7-69.6c38.4-30.5,84.7-5.6,124.1,4c77.1,19.7,153.8,49.4,231,20.1
		c127.6-49.4,250-205.9,378.5-234.8C694.1-312.5,834.1-62,977.2-84.8c79.7-12.4,157.5-78.7,236.6-110.4
		c43-17.3,82.9-36.9,120.4,51.8c43.4,103.2,72.5,215.6,129.4,214"/>
	<path class="st1" d="M-318,110.7c49.8-20.1,85.5-141.3,132.9-181c38-31.7,84.4-6.8,123.2,2C14.5-50.7,91-20.6,167.5-46.7
		c127.4-43.4,249.2-191.5,377-223.2C690.7-306,834.6-60.4,981.3-86.8c79.4-14.5,156.9-81.9,235.7-113.6c42.9-17.3,82.1-35.7,119,55
		c42.8,105.2,71,216.8,127.8,213.6"/>
	<path class="st1" d="M-318,107C-268.6,87-233.3-32.7-186.2-72c38-31.7,84.5-6.4,123.5,2C13.5-53.5,90.2-25,166.6-47.9
		c125.3-37.3,245.2-180.6,371-207.1C686.4-286.4,832.4-61.6,981.3-87.6c79.6-14.1,157.3-83.5,236.4-116
		c42.8-17.3,82.2-36.5,118.7,55.8c42.5,107.2,70,220.8,127.4,215.6"/>
	<path class="st1" d="M-318,104.2c49.1-20.5,84.4-138.5,131.1-177.8c38-31.7,84.6-6,123.6,2C12.8-55.5,89.4-29,165.7-48.3
		c122.9-30.5,240.9-167.8,364.4-187.5C681.4-259.5,829.8-61.6,981.2-87.6c79.8-13.6,157.5-84.7,236.8-117.2
		c42.4-17.3,82.5-36.9,118.6,56.2c42.4,108.8,69.3,223.6,127,216.8"/>
	<path class="st1" d="M-318,101.4C-269,81-234-35.9-187.2-75.2c38-32.1,84.7-5.6,123.7,2c76,14.9,152.3,40.1,228.4,26.1
		C285.2-69.6,401.3-199.6,522-211.7C675.9-226.5,827.1-62.4,980.9-87.2c80.1-13.2,157.9-85.5,237.2-118.4
		c42.3-17.3,82.7-36.9,118.4,56.6c42.4,110.8,68.6,226.4,126.9,218"/>
</g>
</svg>
