<?xml version="1.0" encoding="utf-8"?>
<!-- Generator: Adobe Illustrator 25.2.0, SVG Export Plug-In . SVG Version: 6.00 Build 0)  -->
<svg version="1.1" id="Layer_1" xmlns="http://www.w3.org/2000/svg" xmlns:xlink="http://www.w3.org/1999/xlink" x="0px" y="0px"
	 viewBox="0 0 459 225" style="enable-background:new 0 0 459 225;" xml:space="preserve">
<style type="text/css">
	.st0{fill:#6DBE45;}
</style>
<g>
	<path class="st0" d="M85.7,30h18.1c3.7,0,6.3-0.1,8-0.2c1.7-0.2,3.3-0.5,4.9-0.9c0.5-0.1,0.9-0.2,1.2-0.2c1.2,0,2.3,0.7,3.2,2
		c1.5,2.1,2.3,4.7,2.3,7.7c0,1.5-0.3,2.7-1,3.6c-0.6,0.9-1.5,1.3-2.7,1.3c-0.8,0-1.4-0.2-1.8-0.5c-0.4-0.3-1-1-1.7-2.1
		c-1-1.6-2.3-2.6-3.9-3.1s-4.2-0.8-7.8-0.8c-2.7,0-4.3,0.5-4.9,1.4c-0.3,0.5-0.5,1.2-0.5,2.1C99,41.1,99,43.3,99,46.9
		c0,1.4,0.2,2.3,0.7,2.6c0.5,0.3,1.7,0.5,3.7,0.5c1,0,1.7-0.2,2.1-0.6c0.4-0.4,0.7-1.1,0.8-2.2c0.2-1.4,0.3-2.3,0.5-2.8
		c0.2-0.5,0.5-0.9,1-1.3c0.5-0.4,1.1-0.6,1.7-0.6c1,0,1.8,0.5,2.5,1.4c0.5,0.7,0.9,1.9,1.2,3.6c0.3,1.7,0.5,3.5,0.5,5.4
		c0,3.7-0.6,6.7-1.7,9.1c-0.6,1.3-1.6,1.9-2.9,1.9c-0.8,0-1.3-0.2-1.7-0.6c-0.3-0.4-0.5-1.3-0.7-2.5c-0.4-2.6-1.9-4-4.6-4
		c-1.1,0-1.8,0.3-2.2,1s-0.6,1.9-0.6,3.7c0,1.1,0.1,2.5,0.2,4.3c0.2,1.7,0.3,2.9,0.5,3.5c0.2,0.7,0.8,1.2,1.7,1.5
		c1,0.3,2.6,0.4,4.9,0.4c3.5,0,6.2-0.5,7.9-1.4c1.8-0.9,3.2-2.5,4.4-4.9c0.7-1.4,1.2-2.3,1.8-2.7c0.5-0.5,1.2-0.7,2.1-0.7
		c1,0,1.8,0.4,2.4,1.3c0.6,0.9,1,1.9,1,3.2c0,1.4-0.4,3.2-1.1,5.3c-0.7,2.1-1.6,4-2.7,5.6c-0.5,0.8-1,1.3-1.3,1.6
		c-0.4,0.3-0.8,0.4-1.3,0.4c-0.4,0-1.1-0.1-1.9-0.2c-1.5-0.3-3.5-0.5-6-0.5H82.1c-1.2,0-2.1-0.3-2.8-0.8c-0.7-0.5-1-1.3-1-2.2
		c0-0.7,0.1-1.2,0.4-1.5c0.3-0.3,0.9-0.7,1.9-1.2c0.7-0.3,1.2-0.7,1.6-1.1c0.3-0.4,0.6-1.1,0.8-2c0.8-3.5,1.2-8.3,1.2-14.3
		c0-9-0.6-14.8-1.7-17.1c-0.2-0.5-0.5-0.8-0.8-1c-0.3-0.2-0.9-0.4-1.8-0.7c-1.3-0.4-2-1.3-2-2.7c0-0.8,0.2-1.4,0.7-2
		c0.4-0.6,1-1,1.8-1.2C81.3,30.1,83.1,30,85.7,30z"/>
	<path class="st0" d="M132.9,52.9c0.6,0,1.2,0,1.9,0.1c2.8,0.3,5,0.5,6.5,0.5c1.5,0,2.6-0.1,3.3-0.2c0.8-0.1,1.3-0.2,1.6-0.2
		c0.7,0,1.1,0.5,1.1,1.6c0,1-0.2,2.3-0.7,3.9c-0.4,1.6-1,3.1-1.7,4.5c-0.6,1.1-1,1.9-1.4,2.2c-0.4,0.4-0.8,0.6-1.4,0.6
		c-0.4,0-1-0.1-1.7-0.2c-2.1-0.4-4.5-0.5-7.2-0.5c-1.1,0-2.2,0-3.2,0.1c-0.8,0.1-1.4,0.1-1.8,0.1c-1,0-1.4-0.6-1.4-1.7
		c0-0.8,0.3-2,0.8-3.8c0.6-1.8,1.1-3.2,1.6-4.1c0.6-1.1,1.2-1.9,1.7-2.3C131.4,53.2,132.1,52.9,132.9,52.9z"/>
	<path class="st0" d="M177.7,29.3c2.6,0,5.3,0.2,8,0.7c2.2,0.4,3.8,0.9,4.8,1.5c1,0.7,1.4,1.6,1.4,2.7c0,0.7-0.2,1.3-0.5,1.7
		c-0.4,0.4-1.1,0.9-2.3,1.5c-1.4,0.7-2.1,1.5-2.3,2.5c-0.2,0.9-0.4,4.6-0.5,11.1c-0.1,6.2-0.1,9.9-0.2,11.2
		c-0.1,1.2-0.2,2.4-0.4,3.6c-0.7,3.4-2.1,6.1-4.1,8.1c-1.7,1.6-3.9,2.8-6.5,3.8c-2.6,0.9-5.4,1.4-8.4,1.4c-2.6,0-5.2-0.3-7.8-1
		c-2.6-0.7-4.9-1.6-6.8-2.8c-1.6-1-2.9-2.3-3.8-4c-0.9-1.7-1.4-3.5-1.4-5.4c0-2.3,0.7-4.3,2.2-5.8c1.5-1.5,3.3-2.3,5.6-2.3
		c2.2,0,4,0.6,5.6,1.9c1.5,1.3,2.3,2.9,2.3,4.9c0,0.5-0.1,1.3-0.4,2.5c0,0.2-0.1,0.5-0.1,0.8c0,0.8,0.3,1.4,0.8,1.8
		c0.5,0.5,1.3,0.7,2.1,0.7c1.6,0,2.8-0.7,3.8-2.1c1-1.4,1.4-3.3,1.4-5.6l0-3.2l-0.1-8.6c-0.2-5.2-0.4-8.3-0.5-9.2
		c-0.1-0.9-0.4-1.7-0.8-2.3c-0.4-0.5-0.7-0.8-0.9-0.9c-0.3-0.1-1-0.4-2.2-0.7c-0.6-0.1-1-0.4-1.4-1c-0.4-0.5-0.6-1.1-0.6-1.7
		c0-1.3,0.5-2.3,1.5-3c1-0.8,2.6-1.4,4.9-1.8C172.4,29.6,175,29.3,177.7,29.3z"/>
	<path class="st0" d="M245.4,47.6v8.6c0,5.2-0.4,8.8-1.2,11c-1.7,4.5-5.3,7.8-11,9.9c-3.4,1.3-7.3,1.9-11.6,1.9
		c-7.5,0-13.5-1.8-18.1-5.4c-2.2-1.8-3.7-3.8-4.6-6.1s-1.3-5.7-1.3-10.1c0-1.7,0.1-4.5,0.2-8.4c0.1-2.8,0.1-4.6,0.1-5.5
		c0-1.9-0.1-3.3-0.4-4c-0.3-0.8-0.9-1.5-1.9-2.1c-1.5-1-2.3-2.1-2.3-3.4c0-0.9,0.4-1.7,1.2-2.4c0.8-0.7,1.8-1.2,3.1-1.4
		c2.6-0.5,5.6-0.8,9.1-0.8c3.9,0,7.1,0.3,9.6,0.9c2.5,0.6,3.8,1.8,3.8,3.8c0,1-0.4,1.8-1.1,2.4c-0.2,0.1-0.9,0.5-2.1,1.1
		c-0.8,0.3-1.3,0.9-1.5,1.8c-0.3,0.9-0.4,2.3-0.4,4.3c0,2-0.1,6.4-0.3,13.2c-0.1,4,1,7.1,3.3,9.2c1.9,1.7,4.3,2.6,7.2,2.6
		c1.9,0,3.6-0.3,5.1-1c1.5-0.7,2.7-1.6,3.5-2.8c0.6-0.9,1.1-1.9,1.3-3.1s0.4-2.7,0.4-4.6v-7.7c-0.1-5.9-0.3-9.4-0.5-10.4
		s-1-1.8-2.3-2.4c-1.2-0.5-2.1-1-2.5-1.5c-0.4-0.4-0.7-1-0.7-1.7c0-1.4,0.8-2.4,2.5-3.1c1.7-0.6,4.4-1,8.1-1c3.6,0,6.3,0.3,7.9,0.9
		s2.4,1.6,2.4,3c0,0.7-0.1,1.2-0.4,1.5c-0.3,0.3-1,0.8-2.2,1.5c-1.2,0.7-2,1.5-2.1,2.3S245.4,42.4,245.4,47.6z"/>
	<path class="st0" d="M267.9,29.3c2.7,0,5.2,0.2,7.6,0.7c3.2,0.6,4.8,2,4.8,4c0,0.7-0.2,1.2-0.5,1.5c-0.3,0.3-1.1,0.8-2.4,1.5
		c-1.1,0.5-1.8,1.7-2.1,3.6s-0.5,5.4-0.5,10.7c0,9,0.2,14.5,0.7,16.6c0.2,0.7,0.4,1.2,0.8,1.6c0.3,0.4,0.9,0.8,1.8,1.2
		c1.5,0.7,2.3,1.7,2.3,3.1c0,1.9-1.4,3.2-4.3,3.9c-3.1,0.8-6.9,1.1-11.4,1.1c-7.6,0-11.5-1.5-11.5-4.4c0-1.1,0.8-2,2.2-3
		c1.1-0.7,1.8-1.7,2-2.9c0.4-2.7,0.7-8.3,0.7-17c0-6-0.3-9.8-0.9-11.5c-0.3-1-1.1-1.8-2.4-2.6c-1-0.6-1.6-1.2-1.9-1.6
		s-0.5-1-0.5-1.6c0-1,0.5-1.8,1.5-2.4s2.7-1.1,5.2-1.6C261.9,29.6,264.9,29.3,267.9,29.3z"/>
	<path class="st0" d="M309.4,29.1c3.4,0,6.7,0.8,9.9,2.2c1.5,0.7,2.5,1.1,3.1,1.1c0.4,0,1.1-0.1,2-0.3c0.3-0.1,0.6-0.1,1-0.1
		c1.2,0,2.3,0.6,3.2,1.7c2.2,2.7,3.4,6.1,3.4,10.1c0,2.8-1,4.9-2.9,6.2c-1.1,0.7-2.2,1.1-3.6,1.1c-1.2,0-2.2-0.3-2.9-0.8
		c-0.8-0.5-1.5-1.4-2.2-2.7c-1-1.9-1.8-3.2-2.5-4s-1.4-1.5-2.3-2.2c-2.3-1.6-4.7-2.4-7.1-2.4c-2.4,0-4.3,0.9-5.7,2.6
		c-1.4,1.7-2.1,4.1-2.1,7c0,4,1,7.7,3.1,11.1c2.8,4.5,6.7,6.7,11.9,6.7c1.9,0,3.8-0.3,5.6-0.9s3.3-1.5,4.3-2.5
		c0.9-0.8,1.6-1.3,2.2-1.3c0.8,0,1.5,0.4,2.1,1.1c0.6,0.8,0.9,1.7,0.9,2.8c0,1.4-0.4,2.9-1.2,4.6s-1.8,3-3,4
		c-0.5,0.4-1.5,0.8-3.1,1.1c-0.9,0.2-2.1,0.6-3.6,1.3c-3.5,1.7-7.1,2.5-10.8,2.5c-3.9,0-7.8-0.9-11.7-2.6c-4.5-2-8.1-5.2-10.7-9.4
		c-2.6-4.1-3.9-8.4-3.9-12.9c0-5.2,1.6-9.9,4.9-14.2c2.8-3.7,6.5-6.6,11-8.5C302.2,29.8,305.8,29.1,309.4,29.1z"/>
	<path class="st0" d="M341.7,30h18.1c3.7,0,6.3-0.1,8-0.2c1.7-0.2,3.3-0.5,4.9-0.9c0.5-0.1,0.9-0.2,1.2-0.2c1.2,0,2.3,0.7,3.2,2
		c1.5,2.1,2.3,4.7,2.3,7.7c0,1.5-0.3,2.7-1,3.6s-1.5,1.3-2.7,1.3c-0.8,0-1.4-0.2-1.8-0.5s-1-1-1.7-2.1c-1-1.6-2.3-2.6-3.9-3.1
		s-4.2-0.8-7.8-0.8c-2.7,0-4.3,0.5-4.9,1.4c-0.3,0.5-0.5,1.2-0.5,2.1c-0.1,0.9-0.1,3.1-0.1,6.6c0,1.4,0.2,2.3,0.7,2.6
		c0.5,0.3,1.7,0.5,3.7,0.5c1,0,1.7-0.2,2.1-0.6c0.4-0.4,0.7-1.1,0.8-2.2c0.2-1.4,0.3-2.3,0.5-2.8c0.2-0.5,0.5-0.9,1-1.3
		c0.5-0.4,1.1-0.6,1.7-0.6c1,0,1.8,0.5,2.5,1.4c0.5,0.7,0.9,1.9,1.2,3.6s0.5,3.5,0.5,5.4c0,3.7-0.6,6.7-1.7,9.1
		c-0.6,1.3-1.6,1.9-2.9,1.9c-0.8,0-1.3-0.2-1.7-0.6c-0.3-0.4-0.5-1.3-0.7-2.5c-0.4-2.6-1.9-4-4.6-4c-1.1,0-1.8,0.3-2.2,1
		s-0.6,1.9-0.6,3.7c0,1.1,0.1,2.5,0.2,4.3c0.2,1.7,0.3,2.9,0.5,3.5c0.2,0.7,0.8,1.2,1.7,1.5c1,0.3,2.6,0.4,4.9,0.4
		c3.5,0,6.2-0.5,7.9-1.4c1.8-0.9,3.2-2.5,4.4-4.9c0.7-1.4,1.2-2.3,1.8-2.7c0.5-0.5,1.2-0.7,2.1-0.7c1,0,1.8,0.4,2.4,1.3
		c0.6,0.9,1,1.9,1,3.2c0,1.4-0.4,3.2-1.1,5.3s-1.6,4-2.7,5.6c-0.5,0.8-1,1.3-1.3,1.6c-0.4,0.3-0.8,0.4-1.3,0.4
		c-0.4,0-1.1-0.1-1.9-0.2c-1.5-0.3-3.5-0.5-6-0.5h-29.8c-1.2,0-2.1-0.3-2.8-0.8s-1-1.3-1-2.2c0-0.7,0.1-1.2,0.4-1.5
		c0.3-0.3,0.9-0.7,1.9-1.2c0.7-0.3,1.2-0.7,1.6-1.1c0.3-0.4,0.6-1.1,0.8-2c0.8-3.5,1.2-8.3,1.2-14.3c0-9-0.6-14.8-1.7-17.1
		c-0.2-0.5-0.5-0.8-0.8-1c-0.3-0.2-0.9-0.4-1.8-0.7c-1.3-0.4-2-1.3-2-2.7c0-0.8,0.2-1.4,0.7-2c0.4-0.6,1-1,1.8-1.2
		C337.3,30.1,339.1,30,341.7,30z"/>
</g>
<g>
	<path class="st0" d="M97.1,110.4h9.1v3.1h-13V96.8H106v3.1h-8.8V110.4z M96.9,103.5h8.1v3h-8.1V103.5z"/>
	<path class="st0" d="M114.2,113.6l-7.2-16.8h4.2l6.3,14.9H115l6.4-14.9h3.9l-7.3,16.8H114.2z"/>
	<path class="st0" d="M141.9,113.8c-1.3,0-2.5-0.2-3.6-0.6c-1.1-0.4-2.1-1-2.9-1.8c-0.8-0.8-1.5-1.7-1.9-2.8s-0.7-2.2-0.7-3.5
		c0-1.3,0.2-2.4,0.7-3.5c0.5-1.1,1.1-2,1.9-2.8c0.8-0.8,1.8-1.4,2.9-1.8c1.1-0.4,2.3-0.6,3.6-0.6c1.5,0,2.8,0.3,3.9,0.8
		c1.2,0.5,2.2,1.2,3,2.2l-2.5,2.3c-0.6-0.7-1.2-1.1-1.9-1.5c-0.7-0.3-1.5-0.5-2.3-0.5c-0.8,0-1.5,0.1-2.2,0.4
		c-0.7,0.3-1.2,0.6-1.7,1.1s-0.9,1-1.1,1.7c-0.3,0.7-0.4,1.4-0.4,2.2c0,0.8,0.1,1.5,0.4,2.2s0.6,1.2,1.1,1.7c0.5,0.5,1,0.8,1.7,1.1
		c0.7,0.3,1.4,0.4,2.2,0.4c0.8,0,1.6-0.2,2.3-0.5s1.3-0.8,1.9-1.5l2.5,2.3c-0.8,1-1.8,1.7-3,2.2
		C144.7,113.6,143.3,113.8,141.9,113.8z"/>
	<path class="st0" d="M155.3,113.6h-3.9V96.8h3.9V113.6z M163.2,106.7H155v-3.3h8.2V106.7z M162.9,96.8h3.9v16.8h-3.9V96.8z"/>
	<path class="st0" d="M168.6,113.6l7.5-16.8h3.8l7.5,16.8h-4.1l-6.1-14.8h1.5l-6.2,14.8H168.6z M172.4,110l1-3h8.6l1.1,3H172.4z"/>
	<path class="st0" d="M189.2,113.6V96.8h7.3c1.5,0,2.8,0.2,3.9,0.7c1.1,0.5,1.9,1.2,2.5,2.1c0.6,0.9,0.9,2,0.9,3.3
		c0,1.2-0.3,2.3-0.9,3.2c-0.6,0.9-1.4,1.6-2.5,2.1c-1.1,0.5-2.4,0.7-3.9,0.7h-5.1l1.7-1.7v6.4H189.2z M193.1,107.6l-1.7-1.8h4.9
		c1.2,0,2.1-0.3,2.7-0.8s0.9-1.2,0.9-2.1c0-0.9-0.3-1.6-0.9-2.2s-1.5-0.8-2.7-0.8h-4.9l1.7-1.8V107.6z M199.9,113.6l-4.2-6.1h4.2
		l4.2,6.1H199.9z"/>
	<path class="st0" d="M215,113.8c-1.3,0-2.5-0.2-3.7-0.6c-1.1-0.4-2.1-1-2.9-1.8c-0.8-0.8-1.5-1.7-1.9-2.8s-0.7-2.2-0.7-3.5
		c0-1.3,0.2-2.4,0.7-3.5c0.5-1.1,1.1-2,1.9-2.8c0.8-0.8,1.8-1.4,2.9-1.8c1.1-0.4,2.4-0.6,3.7-0.6c1.5,0,2.8,0.2,4,0.7
		c1.2,0.5,2.2,1.2,3,2.2l-2.5,2.3c-0.6-0.6-1.3-1.1-2-1.4c-0.7-0.3-1.5-0.5-2.4-0.5c-0.8,0-1.6,0.1-2.2,0.4
		c-0.7,0.3-1.3,0.6-1.7,1.1c-0.5,0.5-0.9,1-1.1,1.7c-0.3,0.7-0.4,1.4-0.4,2.2c0,0.8,0.1,1.5,0.4,2.2c0.3,0.7,0.6,1.2,1.1,1.7
		c0.5,0.5,1.1,0.9,1.7,1.1c0.7,0.3,1.4,0.4,2.2,0.4c0.8,0,1.5-0.1,2.2-0.4c0.7-0.2,1.4-0.7,2.1-1.3l2.2,2.8c-0.9,0.7-2,1.2-3.2,1.6
		C217.4,113.7,216.2,113.8,215,113.8z M218.2,111.2v-6.3h3.6v6.8L218.2,111.2z"/>
	<path class="st0" d="M225.3,113.6V96.8h3.9v16.8H225.3z"/>
	<path class="st0" d="M233.2,113.6V96.8h3.2l9.9,12.1h-1.6V96.8h3.8v16.8h-3.2l-9.9-12.1h1.6v12.1H233.2z"/>
	<path class="st0" d="M260.7,113.8c-1.3,0-2.5-0.2-3.7-0.6c-1.1-0.4-2.1-1-2.9-1.8c-0.8-0.8-1.5-1.7-1.9-2.8s-0.7-2.2-0.7-3.5
		c0-1.3,0.2-2.4,0.7-3.5c0.5-1.1,1.1-2,1.9-2.8c0.8-0.8,1.8-1.4,2.9-1.8c1.1-0.4,2.4-0.6,3.7-0.6c1.5,0,2.8,0.2,4,0.7
		c1.2,0.5,2.2,1.2,3,2.2l-2.5,2.3c-0.6-0.6-1.3-1.1-2-1.4c-0.7-0.3-1.5-0.5-2.4-0.5c-0.8,0-1.6,0.1-2.2,0.4
		c-0.7,0.3-1.3,0.6-1.7,1.1c-0.5,0.5-0.9,1-1.1,1.7c-0.3,0.7-0.4,1.4-0.4,2.2c0,0.8,0.1,1.5,0.4,2.2c0.3,0.7,0.6,1.2,1.1,1.7
		c0.5,0.5,1.1,0.9,1.7,1.1s1.4,0.4,2.2,0.4c0.8,0,1.5-0.1,2.2-0.4c0.7-0.2,1.4-0.7,2.1-1.3l2.2,2.8c-0.9,0.7-2,1.2-3.2,1.6
		C263.1,113.7,261.9,113.8,260.7,113.8z M264,111.2v-6.3h3.6v6.8L264,111.2z"/>
	<path class="st0" d="M283.4,113.8c-1.3,0-2.6-0.2-3.9-0.5s-2.2-0.8-3-1.4l1.3-2.9c0.7,0.5,1.6,0.9,2.6,1.3c1,0.3,2,0.5,3,0.5
		c0.8,0,1.4-0.1,1.9-0.2c0.5-0.2,0.8-0.4,1-0.6c0.2-0.3,0.3-0.6,0.3-0.9c0-0.4-0.2-0.8-0.5-1.1c-0.4-0.3-0.8-0.5-1.4-0.6
		c-0.6-0.2-1.2-0.3-1.9-0.5c-0.7-0.2-1.4-0.3-2.1-0.6c-0.7-0.2-1.3-0.5-1.9-0.9s-1-0.8-1.4-1.4c-0.4-0.6-0.5-1.3-0.5-2.2
		c0-1,0.3-1.8,0.8-2.6c0.5-0.8,1.3-1.4,2.4-1.9c1-0.5,2.4-0.7,3.9-0.7c1.1,0,2.1,0.1,3.1,0.4c1,0.2,1.9,0.6,2.7,1.1l-1.2,3
		c-0.8-0.4-1.6-0.8-2.4-1c-0.8-0.2-1.6-0.3-2.3-0.3s-1.4,0.1-1.8,0.3c-0.5,0.2-0.8,0.4-1,0.7c-0.2,0.3-0.3,0.6-0.3,1
		c0,0.4,0.2,0.8,0.5,1c0.4,0.3,0.8,0.5,1.4,0.6c0.6,0.2,1.2,0.3,1.9,0.5c0.7,0.2,1.4,0.3,2.1,0.6c0.7,0.2,1.3,0.5,1.9,0.8
		c0.6,0.4,1,0.8,1.4,1.4c0.4,0.6,0.5,1.3,0.5,2.2c0,0.9-0.3,1.8-0.8,2.6c-0.5,0.8-1.3,1.4-2.4,1.9
		C286.3,113.6,285,113.8,283.4,113.8z"/>
	<path class="st0" d="M297,113.6v-6.9l0.9,2.4l-7.4-12.3h4.1l5.7,9.4h-2.4l5.7-9.4h3.8l-7.4,12.3l0.9-2.4v6.9H297z"/>
	<path class="st0" d="M314.2,113.8c-1.3,0-2.6-0.2-3.9-0.5c-1.2-0.4-2.2-0.8-3-1.4l1.3-2.9c0.7,0.5,1.6,0.9,2.6,1.3
		c1,0.3,2,0.5,3,0.5c0.8,0,1.4-0.1,1.9-0.2c0.5-0.2,0.8-0.4,1-0.6c0.2-0.3,0.3-0.6,0.3-0.9c0-0.4-0.2-0.8-0.5-1.1
		c-0.4-0.3-0.8-0.5-1.4-0.6c-0.6-0.2-1.2-0.3-1.9-0.5c-0.7-0.2-1.4-0.3-2.1-0.6c-0.7-0.2-1.3-0.5-1.9-0.9s-1-0.8-1.4-1.4
		c-0.4-0.6-0.5-1.3-0.5-2.2c0-1,0.3-1.8,0.8-2.6c0.5-0.8,1.3-1.4,2.4-1.9c1-0.5,2.4-0.7,3.9-0.7c1.1,0,2.1,0.1,3.1,0.4
		c1,0.2,1.9,0.6,2.7,1.1l-1.2,3c-0.8-0.4-1.6-0.8-2.4-1c-0.8-0.2-1.6-0.3-2.3-0.3c-0.8,0-1.4,0.1-1.8,0.3c-0.5,0.2-0.8,0.4-1,0.7
		c-0.2,0.3-0.3,0.6-0.3,1c0,0.4,0.2,0.8,0.5,1c0.4,0.3,0.8,0.5,1.4,0.6c0.6,0.2,1.2,0.3,1.9,0.5c0.7,0.2,1.4,0.3,2.1,0.6
		s1.3,0.5,1.9,0.8c0.6,0.4,1,0.8,1.4,1.4c0.4,0.6,0.5,1.3,0.5,2.2c0,0.9-0.3,1.8-0.8,2.6c-0.5,0.8-1.3,1.4-2.4,1.9
		C317.2,113.6,315.8,113.8,314.2,113.8z"/>
	<path class="st0" d="M327.3,113.6V99.9h-5.4v-3.2h14.6v3.2h-5.4v13.6H327.3z"/>
	<path class="st0" d="M342.5,110.4h9.1v3.1h-13V96.8h12.7v3.1h-8.8V110.4z M342.2,103.5h8.1v3h-8.1V103.5z"/>
	<path class="st0" d="M354.7,113.6V96.8h3.2l7.2,11.9h-1.7l7-11.9h3.2l0,16.8H370l0-11.2h0.7l-5.6,9.4h-1.8l-5.7-9.4h0.8v11.2H354.7
		z"/>
</g>
</svg>
